<?xml version="1.0" standalone="no"?>
<!DOCTYPE svg PUBLIC "-//W3C//DTD SVG 20010904//EN"
 "http://www.w3.org/TR/2001/REC-SVG-20010904/DTD/svg10.dtd">
<svg version="1.0" xmlns="http://www.w3.org/2000/svg"
 width="1024.000000pt" height="1024.000000pt" viewBox="0 0 1024.000000 1024.000000"
 preserveAspectRatio="xMidYMid meet">
<metadata>
Created by potrace 1.14, written by Peter Selinger 2001-2017
</metadata>
<g transform="translate(0.000000,1024.000000) scale(0.100000,-0.100000)"
fill="#000000" stroke="none">
<path d="M4439 10238 c-6 -18 -3 -68 3 -68 5 0 6 -5 3 -11 -12 -18 -12 -68 -1
-73 6 -3 5 -5 -2 -5 -9 -1 -10 -6 -3 -18 10 -20 11 -24 11 -53 0 -11 5 -19 12
-17 7 1 13 -4 14 -10 1 -7 3 -16 4 -20 1 -5 1 -18 1 -29 -1 -12 5 -28 13 -37
8 -8 12 -17 9 -21 -3 -3 2 -8 11 -12 9 -3 16 -12 16 -19 0 -24 32 -75 46 -75
13 0 13 -2 2 -14 -14 -13 -72 -46 -84 -47 -4 0 -11 5 -15 13 -7 10 -9 10 -9 0
0 -7 -4 -10 -10 -7 -17 11 -32 -5 -19 -21 6 -8 10 -15 8 -15 -22 -8 -247 -3
-258 5 -11 8 -13 8 -8 -1 5 -8 -2 -11 -23 -9 -16 1 -32 5 -35 8 -3 3 -22 2
-41 -2 -20 -5 -37 -4 -40 2 -3 5 -12 4 -22 -4 -9 -7 -13 -8 -9 -2 6 11 -36 30
-55 26 -5 -1 -8 2 -8 7 0 5 -11 8 -25 6 -14 -1 -28 1 -30 5 -3 5 -13 7 -23 6
-9 -2 -30 1 -47 6 -16 5 -41 11 -55 12 -13 2 -26 9 -28 15 -2 6 -14 11 -27 11
-13 0 -26 8 -30 18 -6 16 -7 16 -21 -2 -14 -19 -14 -19 -14 2 0 21 -22 29 -67
23 -7 -1 -13 5 -13 14 0 13 -12 19 -32 16 -5 0 -8 4 -8 9 0 5 -3 9 -7 8 -16
-3 -61 21 -66 36 -4 9 -14 16 -22 16 -9 0 -13 5 -10 11 4 6 -4 22 -16 36 -13
15 -18 23 -10 18 9 -5 7 1 -4 19 -10 14 -14 26 -11 26 14 0 -18 26 -34 27 -12
1 -16 -9 -17 -45 0 -26 4 -53 9 -59 7 -9 6 -13 -3 -13 -11 -1 -11 -3 1 -13 8
-7 15 -28 15 -47 0 -19 3 -40 7 -46 8 -11 16 -47 17 -76 1 -10 4 -17 9 -17 21
4 31 -3 26 -16 -6 -16 17 -45 36 -45 7 0 9 -8 5 -20 -4 -13 -1 -22 9 -26 9 -3
14 -10 11 -14 -3 -5 4 -11 15 -15 11 -3 19 -9 19 -13 -3 -19 2 -33 10 -28 5 3
14 -7 21 -23 6 -16 18 -32 27 -35 8 -3 11 -11 8 -17 -4 -5 1 -17 11 -24 11 -8
16 -15 12 -16 -5 -1 -12 -3 -18 -4 -5 -1 -23 -3 -39 -4 -20 -1 -32 -7 -36 -22
-5 -16 -10 -18 -21 -8 -11 9 -14 9 -14 0 0 -7 -6 -11 -12 -10 -7 1 -26 -3 -41
-9 -16 -7 -37 -12 -48 -12 -11 0 -22 -6 -25 -14 -3 -7 -15 -12 -27 -12 -12 1
-27 -2 -34 -6 -6 -5 -14 -5 -17 0 -3 6 -20 7 -39 3 -18 -5 -41 -5 -52 -1 -11
4 -30 4 -42 -1 -13 -5 -23 -5 -23 -1 0 4 -18 7 -40 7 -24 0 -40 4 -40 11 0 6
-22 14 -50 18 -27 4 -50 11 -50 17 0 6 -4 7 -10 4 -5 -3 -10 -1 -10 6 0 7 -3
9 -7 6 -3 -4 -13 -1 -21 6 -13 10 -15 9 -8 -3 4 -9 1 -8 -7 3 -8 9 -19 17 -26
17 -6 0 -11 5 -11 11 0 5 -4 7 -10 4 -18 -11 -49 13 -43 35 4 16 2 19 -12 13
-14 -5 -16 -3 -11 8 4 8 -2 3 -13 -10 -12 -12 -18 -27 -15 -33 3 -5 -3 -12
-15 -15 -12 -3 -21 -8 -22 -12 0 -3 -3 -15 -5 -26 -3 -11 -5 -27 -4 -35 0 -8
0 -25 0 -38 0 -12 6 -25 14 -28 8 -3 12 -13 9 -23 -2 -10 3 -26 13 -36 10 -10
19 -26 21 -36 3 -22 38 -59 56 -59 9 0 9 -3 -1 -9 -18 -11 -73 -6 -81 8 -4 6
-24 13 -46 16 -21 2 -42 10 -46 17 -4 7 -11 9 -15 5 -4 -4 -14 -1 -22 6 -13 9
-14 9 -8 0 5 -9 2 -11 -8 -7 -9 3 -16 12 -16 19 0 8 -8 11 -19 8 -10 -3 -22 0
-25 6 -4 6 -18 11 -30 11 -13 0 -29 6 -35 14 -6 7 -22 11 -35 9 -13 -3 -27 0
-30 6 -4 6 -18 11 -32 11 -13 0 -24 5 -24 10 0 6 -3 9 -7 9 -5 -1 -11 0 -15 1
-5 1 -12 4 -18 5 -5 1 -11 3 -12 4 -2 2 -13 4 -26 7 -13 2 -30 11 -38 19 -17
17 -39 21 -29 5 3 -6 -1 -7 -9 -4 -9 3 -16 11 -16 17 0 6 -3 7 -7 4 -3 -4 -12
-2 -20 4 -7 6 -13 8 -13 3 0 -5 -4 -3 -9 4 -4 7 -14 14 -22 16 -8 1 -29 9 -47
18 -20 10 -30 12 -26 5 3 -7 -1 -4 -9 5 -8 10 -17 15 -20 12 -3 -4 -14 -3 -24
0 -10 4 -18 6 -18 5 0 -1 -11 4 -25 11 -14 8 -28 13 -32 12 -5 -1 -8 3 -8 9 0
8 -4 8 -14 0 -10 -8 -15 -9 -18 -1 -2 6 -13 12 -26 13 -12 1 -21 6 -19 12 5
11 -43 12 -61 1 -8 -5 -10 -1 -5 10 5 14 2 16 -15 12 -12 -4 -20 -3 -18 1 3 4
-4 13 -16 20 -14 9 -18 9 -13 1 4 -7 -4 -4 -19 5 -15 10 -30 15 -33 11 -4 -3
-18 4 -31 16 -14 13 -22 17 -18 11 4 -7 3 -13 -2 -13 -6 0 -13 7 -16 16 -3 8
-11 12 -16 9 -6 -4 -17 -1 -25 5 -8 6 -19 9 -25 5 -5 -3 -10 -2 -10 3 0 5 -12
10 -26 10 -15 0 -29 4 -33 10 -3 6 -20 14 -36 18 -17 4 -34 10 -40 14 -5 4
-32 8 -59 9 -28 1 -53 4 -58 7 -4 3 -8 1 -8 -5 0 -7 -8 -7 -25 -1 -18 7 -24 6
-22 -3 1 -7 -2 -11 -8 -10 -5 0 -16 -5 -23 -13 -10 -11 -10 -14 0 -14 7 -1 1
-7 -14 -15 -15 -8 -29 -24 -33 -35 -3 -11 -11 -20 -16 -20 -6 0 -7 -6 -2 -12
4 -7 8 -119 8 -248 0 -129 4 -240 8 -247 4 -6 3 -14 -2 -17 -11 -7 -9 -25 4
-46 6 -8 11 -37 11 -65 3 -100 4 -105 18 -105 18 0 23 -21 21 -110 -1 -56 3
-79 15 -90 19 -18 23 -70 7 -89 -9 -11 -9 -13 0 -8 9 6 11 -4 10 -32 -2 -29 2
-42 17 -51 15 -10 16 -14 5 -21 -8 -5 -9 -9 -4 -9 6 0 10 -29 10 -72 0 -65 10
-102 25 -93 3 2 7 -39 8 -91 2 -68 7 -99 18 -113 17 -19 27 -134 11 -124 -4 3
-3 -4 4 -15 7 -12 17 -20 23 -19 5 1 10 -20 11 -48 1 -27 6 -59 10 -69 7 -15
5 -18 -6 -12 -8 4 -4 -1 9 -12 23 -21 30 -38 11 -26 -8 5 -8 1 0 -14 6 -11 11
-39 11 -62 0 -25 4 -39 10 -35 6 3 10 -1 10 -9 0 -9 4 -16 9 -16 6 0 8 -10 6
-22 -3 -12 0 -27 6 -34 6 -7 8 -18 4 -24 -3 -5 -2 -10 3 -10 5 0 9 -27 10 -59
0 -64 6 -81 26 -81 9 0 14 -17 15 -56 0 -31 4 -61 8 -67 5 -7 8 -78 9 -159 1
-122 4 -149 17 -163 10 -9 15 -21 12 -26 -4 -5 -1 -9 5 -9 6 0 8 -4 5 -10 -3
-5 -1 -10 5 -10 6 0 8 -4 5 -10 -3 -5 -1 -10 6 -10 7 0 10 -3 6 -6 -3 -4 -1
-12 6 -20 30 -34 37 -44 30 -44 -4 0 3 -6 17 -13 14 -8 24 -19 23 -25 -2 -7 4
-12 12 -12 8 0 15 -4 15 -10 0 -5 18 -28 40 -50 22 -22 40 -37 40 -34 0 4 7 1
15 -6 8 -7 15 -9 15 -4 0 4 11 -3 25 -16 14 -13 28 -21 31 -17 4 3 13 0 21 -8
8 -8 23 -15 34 -15 10 0 19 -5 19 -10 0 -6 11 -8 24 -6 22 4 24 0 30 -47 4
-28 11 -54 16 -57 4 -3 10 -16 11 -30 2 -14 10 -31 17 -38 7 -8 9 -19 5 -25
-4 -7 -1 -7 9 1 14 11 16 10 11 -7 -3 -12 2 -38 10 -60 9 -21 13 -42 9 -46 -4
-5 0 -6 9 -2 13 4 16 -2 15 -34 -1 -21 2 -39 7 -39 4 0 6 -4 3 -8 -3 -5 2 -20
12 -33 9 -13 17 -37 17 -54 1 -16 4 -36 8 -42 5 -7 5 -13 0 -13 -4 0 -1 -5 7
-10 8 -5 16 -17 17 -27 3 -36 13 -65 25 -81 7 -8 14 -33 14 -55 2 -46 -25 -84
-51 -73 -10 3 -14 2 -10 -5 8 -12 -12 -29 -72 -60 -24 -12 -43 -26 -43 -31 0
-4 -3 -7 -8 -7 -20 3 -32 -2 -26 -13 4 -6 3 -8 -3 -5 -5 3 -23 -1 -39 -10 -16
-8 -45 -17 -64 -19 -19 -3 -44 -7 -54 -9 -11 -2 -27 0 -37 6 -12 6 -20 5 -24
-1 -4 -6 -12 -7 -23 -1 -20 11 -70 -18 -51 -30 10 -6 10 -11 -2 -25 -8 -10 -9
-15 -3 -11 7 4 15 0 18 -9 3 -8 10 -12 16 -9 5 3 8 0 5 -7 -3 -7 8 -22 25 -33
16 -11 30 -26 30 -34 0 -8 2 -12 5 -9 6 6 36 -17 90 -69 19 -18 40 -34 47 -35
14 -3 26 -12 68 -50 16 -16 36 -28 45 -28 8 0 19 -9 25 -20 8 -16 6 -24 -12
-42 -13 -13 -22 -26 -21 -30 2 -5 -6 -8 -17 -8 -11 0 -19 -3 -17 -8 3 -11
-103 -118 -115 -114 -5 1 -19 -9 -30 -23 -11 -15 -26 -24 -33 -21 -8 2 -16 -2
-19 -10 -3 -8 -15 -14 -26 -14 -11 0 -20 -5 -20 -11 0 -5 -5 -7 -10 -4 -6 4
-27 -3 -46 -14 -19 -12 -44 -21 -55 -21 -13 0 -19 -7 -19 -21 0 -11 -5 -17
-10 -14 -6 4 -9 1 -8 -6 5 -21 78 -71 95 -65 11 4 13 2 9 -9 -3 -8 -2 -14 2
-13 11 3 56 -14 62 -22 3 -5 14 -10 25 -12 11 -1 23 -7 26 -11 3 -5 14 -9 23
-11 10 -1 22 -9 27 -17 7 -11 9 -11 9 -1 0 7 5 10 10 7 6 -4 7 -11 4 -17 -4
-6 -2 -8 3 -5 6 4 25 0 42 -9 17 -8 36 -12 42 -8 7 4 9 3 6 -3 -4 -6 0 -16 8
-23 12 -10 15 -10 15 1 0 11 2 11 10 -1 5 -8 10 -10 10 -5 0 6 4 4 8 -2 5 -7
27 -14 50 -15 23 -1 42 -5 42 -10 0 -4 6 -8 14 -8 19 0 27 -26 12 -39 -7 -6
-16 -8 -19 -4 -4 3 -7 -7 -7 -24 0 -18 -10 -42 -25 -59 -14 -16 -23 -34 -21
-40 2 -6 -9 -19 -25 -28 -16 -9 -29 -22 -29 -27 0 -6 -5 -7 -10 -4 -6 4 -10
-6 -9 -27 2 -50 9 -68 25 -68 8 0 14 -4 14 -10 0 -5 6 -10 14 -10 8 0 16 -4
18 -9 2 -5 12 -11 23 -13 10 -1 27 -11 37 -21 10 -10 23 -15 28 -12 6 4 10 0
10 -7 0 -9 3 -9 10 2 6 10 10 11 10 3 0 -7 7 -13 15 -13 9 0 18 -7 22 -16 3
-8 11 -13 18 -10 8 3 11 -2 8 -14 -3 -12 2 -20 17 -25 14 -4 19 -12 16 -22 -5
-12 -1 -14 14 -10 11 3 20 2 20 -2 0 -11 71 -5 79 6 9 14 80 29 115 25 25 -3
28 -7 23 -31 -7 -35 8 -52 37 -42 11 5 29 7 38 6 9 -2 25 5 35 14 13 12 36 16
80 16 61 0 87 -9 67 -23 -5 -4 -11 -18 -12 -32 -4 -46 -8 -62 -19 -68 -6 -4
-15 -20 -18 -35 -4 -15 -12 -27 -18 -27 -6 0 -8 -3 -4 -6 3 -4 0 -18 -7 -33
-7 -14 -12 -33 -11 -41 0 -8 -4 -18 -10 -22 -6 -5 -6 -8 2 -8 9 0 10 -7 4 -23
-12 -31 7 -45 60 -43 45 1 73 12 65 24 -2 4 13 7 35 7 25 0 47 6 60 18 10 10
19 15 19 12 0 -3 12 1 28 8 15 8 43 14 62 13 29 -1 34 -4 33 -23 0 -13 -2 -24
-3 -25 -8 -12 -6 -39 5 -48 14 -11 45 -4 45 12 0 5 5 6 10 3 6 -3 10 -1 10 4
0 6 9 11 19 11 11 0 22 4 25 8 6 10 69 3 76 -9 3 -5 17 -10 30 -12 13 -2 26
-9 28 -15 2 -7 12 -12 21 -12 21 0 48 -50 28 -50 -6 -1 -1 -7 13 -14 14 -7 39
-12 55 -11 17 1 38 3 48 4 10 0 16 4 14 8 -4 6 49 8 94 4 13 -2 5 -101 -8
-101 -10 0 -20 -33 -26 -90 -1 -8 -10 -22 -19 -32 -10 -10 -15 -24 -12 -32 3
-9 -5 -20 -23 -30 -15 -8 -22 -15 -15 -16 7 0 12 -8 10 -17 -2 -12 4 -17 22
-17 15 0 24 5 22 13 -2 9 4 12 18 8 11 -3 18 -1 14 4 -3 5 4 9 15 9 12 0 21 4
21 9 0 10 23 20 60 27 13 3 30 10 37 16 7 6 20 8 28 4 9 -3 18 1 21 9 4 8 10
12 15 9 5 -3 9 -1 9 4 0 8 43 30 70 36 3 1 12 6 20 11 38 24 75 10 75 -29 1
-14 -4 -26 -10 -26 -5 0 -2 -5 9 -11 26 -16 84 -13 128 5 45 19 51 20 42 4 -5
-7 -3 -8 7 -2 25 15 38 13 45 -8 7 -24 7 -328 0 -335 -3 -3 -1 -14 5 -24 5
-11 6 -19 2 -19 -4 0 -7 -28 -7 -62 1 -68 -3 -91 -16 -83 -11 7 -23 -31 -15
-44 3 -5 0 -13 -6 -17 -8 -4 -7 -9 2 -15 11 -7 11 -9 1 -9 -8 0 -10 -5 -6 -12
5 -8 2 -9 -9 -5 -11 4 -17 1 -17 -9 0 -9 -5 -12 -11 -8 -8 4 -9 0 -4 -15 5
-15 2 -21 -10 -21 -9 0 -14 -4 -11 -9 3 -5 -7 -8 -24 -7 -16 1 -31 -2 -33 -8
-2 -6 -17 -11 -33 -11 -38 -2 -75 -14 -96 -32 -9 -8 -22 -12 -27 -8 -6 3 -18
-1 -27 -9 -9 -9 -20 -14 -25 -11 -5 4 -9 2 -9 -3 0 -6 -7 -13 -16 -16 -8 -3
-13 -2 -10 2 3 5 -1 9 -9 9 -8 0 -12 -3 -10 -7 4 -6 -82 -52 -89 -47 -1 1 -10
-4 -20 -12 -9 -8 -24 -15 -34 -15 -21 -3 -75 -28 -83 -40 -4 -5 -14 -6 -23 -3
-9 4 -16 1 -16 -5 0 -6 -6 -5 -17 3 -9 8 -14 9 -11 4 8 -13 -20 -31 -47 -30
-11 0 -23 -4 -26 -9 -4 -5 -18 -8 -32 -8 -14 0 -28 -7 -31 -14 -3 -8 -12 -11
-22 -7 -9 3 -19 1 -23 -6 -4 -6 -16 -13 -27 -15 -11 -2 -43 -11 -70 -19 -27
-8 -53 -15 -57 -15 -5 0 -12 -4 -15 -8 -4 -4 -1 -4 7 1 9 5 12 4 7 -3 -3 -6
-17 -9 -30 -6 -14 2 -31 -2 -39 -10 -8 -8 -17 -12 -21 -9 -3 4 -6 2 -6 -4 0
-5 -16 -9 -35 -8 -19 1 -35 -2 -35 -7 0 -5 -6 -8 -12 -6 -7 1 -23 -3 -35 -10
-13 -7 -24 -8 -28 -2 -3 5 -14 2 -25 -7 -10 -9 -16 -21 -13 -27 4 -6 -1 -5
-10 3 -9 7 -17 9 -17 4 0 -6 -16 -9 -35 -8 -21 1 -36 -4 -40 -12 -2 -8 -9 -12
-14 -8 -5 3 -12 1 -16 -5 -3 -6 -17 -8 -31 -6 -15 3 -24 0 -24 -8 0 -8 -13
-12 -34 -11 -19 0 -33 -2 -31 -5 1 -3 -3 -11 -11 -18 -11 -10 -14 -10 -14 0 0
8 -3 9 -8 3 -4 -6 -15 -11 -24 -12 -10 0 -26 -1 -36 -2 -11 0 -30 -10 -43 -22
-14 -12 -25 -16 -27 -9 -2 6 -9 7 -15 2 -7 -5 -28 -15 -47 -22 -19 -7 -42 -20
-52 -27 -9 -8 -24 -16 -33 -17 -9 -1 -20 -7 -23 -12 -4 -5 -16 -11 -27 -12
-11 -2 -23 -9 -26 -14 -4 -6 -13 -7 -20 -3 -8 5 -11 5 -7 0 8 -8 -28 -45 -44
-45 -4 0 -8 -7 -8 -16 0 -8 -4 -13 -9 -10 -5 4 -15 -7 -23 -24 -7 -16 -19 -30
-25 -30 -7 0 -12 -3 -12 -7 3 -19 -2 -34 -9 -29 -4 2 -14 -4 -21 -16 -7 -11
-8 -17 -2 -13 6 3 11 1 11 -4 0 -6 -6 -11 -14 -11 -8 0 -17 -13 -21 -30 -4
-16 -13 -30 -21 -30 -8 0 -14 -10 -14 -25 0 -14 -4 -25 -9 -25 -5 0 -12 -12
-16 -27 -3 -15 -12 -31 -18 -35 -12 -7 -13 -11 -16 -44 0 -9 -6 -12 -13 -8 -8
5 -9 0 -6 -14 4 -12 2 -24 -3 -27 -9 -6 -30 -51 -46 -100 -5 -16 -15 -29 -22
-27 -8 1 -10 -2 -5 -10 15 -23 13 -37 -4 -31 -10 4 -13 2 -8 -5 3 -6 2 -13 -4
-17 -6 -4 -8 -11 -5 -16 4 -5 1 -9 -6 -9 -7 0 -10 -3 -6 -6 3 -4 0 -13 -8 -20
-8 -8 -12 -20 -9 -27 2 -7 -4 -21 -15 -31 -12 -11 -17 -25 -13 -38 3 -14 1
-19 -6 -14 -7 4 -12 1 -12 -8 0 -9 -4 -16 -8 -16 -5 0 -8 -10 -7 -22 1 -13 -4
-28 -11 -35 -7 -7 -11 -21 -10 -30 2 -10 -1 -21 -6 -24 -5 -3 -11 -19 -14 -35
-3 -16 -9 -31 -13 -34 -5 -3 -17 -24 -28 -48 -11 -23 -21 -40 -24 -37 -3 2 -5
-8 -5 -23 1 -15 -4 -26 -10 -25 -6 1 -11 -10 -10 -25 1 -15 -6 -37 -16 -50 -9
-13 -15 -32 -13 -42 2 -13 -2 -20 -11 -20 -8 0 -15 -8 -16 -17 0 -10 -2 -23
-2 -30 -1 -7 -10 -19 -21 -27 -11 -9 -15 -16 -10 -16 6 0 3 -5 -5 -10 -9 -6
-11 -10 -3 -10 7 0 10 -7 7 -15 -4 -8 -10 -12 -15 -9 -8 4 -13 -31 -12 -73 1
-12 -11 -17 -30 -14 -4 1 -4 -11 -1 -25 5 -18 3 -25 -4 -20 -6 4 -8 -1 -5 -13
3 -11 -2 -21 -11 -24 -9 -4 -16 -18 -16 -32 0 -14 -5 -25 -11 -25 -5 0 -7 -4
-4 -10 3 -5 1 -10 -4 -10 -6 0 -11 -11 -11 -23 0 -13 -9 -34 -20 -47 -11 -12
-17 -26 -15 -30 3 -5 0 -10 -5 -12 -6 -2 -13 -17 -16 -33 -3 -17 -11 -40 -19
-51 -10 -16 -11 -24 -2 -33 8 -8 8 -11 -2 -11 -7 0 -9 -4 -6 -10 3 -5 -1 -10
-9 -10 -9 0 -16 -7 -16 -16 0 -9 -5 -12 -12 -8 -8 5 -7 0 2 -11 8 -10 14 -20
13 -22 -7 -8 -2 -24 5 -19 5 3 21 -2 36 -10 25 -12 529 -14 3848 -14 2572 0
3817 3 3813 10 -4 6 -12 7 -18 4 -7 -4 -8 -3 -4 2 8 9 12 10 38 13 6 0 9 7 6
15 -3 7 0 19 6 26 9 10 9 11 0 6 -9 -5 -13 0 -13 15 0 12 -3 19 -7 16 -10 -11
-32 13 -26 29 3 8 -1 14 -8 14 -7 0 -9 3 -6 7 4 3 2 12 -4 20 -6 7 -8 13 -4
13 4 0 2 6 -4 14 -6 8 -11 18 -10 22 5 19 -14 63 -23 58 -6 -4 -9 -1 -6 7 3 8
-2 20 -9 28 -8 8 -12 22 -10 32 3 12 0 19 -9 19 -8 0 -14 10 -14 25 0 14 -5
25 -11 25 -6 0 -9 6 -6 14 3 8 -1 20 -8 26 -8 7 -13 15 -10 19 2 4 -5 22 -15
39 -14 22 -16 32 -7 32 7 1 6 5 -5 13 -9 7 -18 22 -20 32 -1 11 -6 22 -9 25
-13 12 -39 92 -33 103 4 7 4 9 -1 5 -5 -5 -15 2 -23 13 -12 18 -13 23 -1 30
11 7 10 9 -3 9 -10 0 -18 4 -18 9 0 5 -3 17 -7 27 -5 13 -3 15 8 9 12 -8 12
-6 0 8 -7 9 -17 14 -22 11 -5 -3 -9 6 -9 20 0 14 -5 26 -11 26 -5 0 -8 4 -5 9
4 5 0 12 -6 14 -10 4 -10 6 0 6 9 1 6 8 -7 22 -10 11 -18 32 -16 45 1 16 -3
24 -13 24 -8 0 -13 3 -10 6 4 3 -5 30 -18 60 -13 30 -21 54 -18 54 4 0 1 6 -5
14 -7 8 -13 28 -13 45 -1 17 -4 29 -7 27 -9 -6 -26 16 -29 39 -2 11 -9 23 -15
27 -7 4 -8 8 -3 8 5 0 2 7 -5 17 -8 9 -13 18 -11 20 1 2 -5 20 -14 41 -10 20
-16 40 -16 45 1 4 -2 7 -8 7 -6 0 -9 3 -9 8 4 21 -2 43 -10 38 -4 -3 -7 6 -5
20 1 17 -2 24 -10 21 -7 -3 -13 7 -14 26 -2 17 -7 34 -13 38 -9 5 -15 24 -18
52 -1 4 -8 7 -17 7 -13 0 -14 3 -5 14 9 11 8 15 -5 20 -9 3 -14 12 -11 20 3 7
-3 19 -14 26 -14 11 -16 17 -7 27 8 11 7 12 -7 7 -12 -5 -16 -4 -11 4 3 6 2
13 -4 17 -15 9 -12 27 3 20 6 -3 2 2 -10 11 -13 9 -23 23 -23 30 0 8 -5 14
-11 14 -5 0 -7 5 -4 10 3 6 -1 13 -9 16 -9 3 -14 10 -11 14 3 5 1 11 -5 15 -6
4 -8 11 -5 16 4 5 -2 6 -11 2 -12 -5 -16 -2 -12 8 5 14 -57 81 -67 71 -5 -5
-9 15 -6 31 1 5 -3 6 -9 2 -5 -3 -10 -2 -10 3 0 6 -8 9 -17 8 -11 0 -17 6 -17
16 1 13 -2 15 -13 9 -11 -5 -22 -2 -34 10 -11 11 -30 19 -43 19 -13 0 -27 7
-30 16 -4 10 -14 14 -26 11 -11 -3 -20 -2 -20 1 0 4 -14 15 -31 24 -18 11 -27
13 -24 5 4 -6 0 -5 -7 5 -11 12 -18 14 -32 6 -14 -8 -17 -7 -12 1 4 6 0 11 -9
11 -9 0 -14 4 -11 8 3 5 -1 9 -9 9 -8 0 -12 -5 -8 -10 3 -5 -2 -5 -13 1 -11 5
-25 7 -31 5 -7 -3 -13 2 -13 11 0 9 -7 13 -20 11 -11 -2 -20 0 -20 4 0 5 -12
6 -26 3 -21 -4 -25 -2 -19 8 6 10 4 12 -8 7 -9 -3 -19 -2 -22 4 -4 5 -11 6
-17 3 -6 -4 -14 0 -19 7 -7 12 -9 11 -9 -1 0 -13 -1 -13 -10 0 -5 8 -19 15
-32 15 -41 2 -88 16 -82 26 5 9 -24 14 -55 9 -8 -1 -17 4 -21 10 -4 6 -17 12
-28 13 -12 1 -22 6 -22 12 0 5 -4 4 -9 -4 -6 -9 -11 -10 -15 -2 -4 6 -16 11
-27 11 -10 0 -19 5 -19 11 0 5 -4 8 -9 4 -5 -3 -12 -1 -15 4 -3 5 -15 7 -26 4
-12 -3 -29 2 -39 11 -10 9 -20 13 -24 10 -7 -7 -80 17 -89 31 -5 6 -8 5 -8 -2
0 -7 -7 -10 -16 -6 -8 3 -13 12 -10 20 3 8 1 11 -4 8 -14 -9 -81 6 -74 16 3 5
-2 6 -10 3 -9 -3 -16 -1 -16 5 0 6 -7 8 -17 4 -12 -5 -14 -3 -8 8 8 12 6 12
-8 0 -11 -9 -17 -10 -17 -2 0 6 -3 10 -7 10 -21 -3 -33 2 -27 12 4 8 1 8 -12
2 -18 -9 -71 7 -60 18 2 2 -7 5 -21 6 -14 0 -29 6 -33 13 -6 9 -9 9 -13 -1 -4
-10 -6 -10 -6 -1 -1 6 -8 12 -16 12 -8 0 -15 4 -15 8 0 5 -7 9 -15 10 -8 1
-22 3 -30 4 -8 1 -15 5 -15 10 0 4 -8 8 -19 8 -22 0 -44 23 -33 36 4 4 0 3
-10 -4 -11 -9 -18 -10 -23 -2 -3 5 -15 10 -26 10 -11 0 -18 3 -16 8 3 4 -7 8
-21 9 -15 0 -28 6 -30 12 -2 6 -8 8 -13 5 -6 -3 -18 1 -28 10 -10 9 -40 18
-67 20 -27 2 -55 4 -63 5 -8 1 -12 4 -9 7 3 3 -7 19 -23 35 -27 27 -33 41 -30
62 0 4 -4 7 -10 7 -5 0 -7 4 -4 10 3 5 1 10 -6 10 -8 0 -7 5 2 17 8 9 9 14 3
10 -7 -4 -17 5 -24 23 -7 17 -16 30 -20 30 -7 0 -7 22 0 40 1 3 1 10 0 15 -5
16 -7 439 -3 451 4 11 69 12 80 1 3 -4 17 -7 30 -7 14 0 33 -5 43 -10 12 -6
21 -7 25 0 3 5 12 7 20 3 10 -3 15 2 16 16 1 12 2 31 3 44 1 19 7 22 40 22 29
1 40 -4 46 -20 5 -11 9 -17 9 -12 1 4 17 1 36 -8 20 -8 33 -10 30 -5 -3 6 -1
10 4 10 6 0 11 -7 11 -15 0 -8 3 -15 8 -16 40 -4 69 -12 81 -22 8 -7 22 -11
33 -9 11 2 18 -3 18 -12 0 -9 8 -16 18 -16 10 0 24 -6 31 -12 11 -10 12 -10 7
-1 -5 9 -2 11 8 7 9 -3 16 -12 16 -19 0 -7 12 -12 28 -11 20 1 28 7 30 24 2
12 -2 22 -8 22 -6 0 -8 5 -5 10 3 6 -1 10 -10 10 -9 0 -14 4 -11 8 3 5 -4 26
-15 47 -12 21 -23 50 -25 64 -3 14 -10 31 -17 36 -7 6 -13 32 -13 58 l0 48 41
-2 c22 -1 49 -7 60 -13 21 -10 119 -11 136 0 6 3 9 17 6 30 -2 13 -1 24 4 24
5 0 16 8 26 19 10 10 29 17 43 16 28 -3 53 12 44 26 -5 9 2 12 31 12 47 0 63
-5 82 -22 11 -11 31 -21 44 -23 20 -3 23 1 24 32 1 19 -5 44 -14 54 -15 18
-15 19 6 14 13 -4 25 -2 28 2 3 5 18 5 34 0 16 -4 32 -6 35 -3 3 3 8 -2 12
-11 3 -9 10 -14 14 -11 5 3 12 0 16 -6 4 -8 9 -7 15 2 7 11 9 10 9 -3 0 -10 7
-19 15 -19 8 -1 20 -3 25 -4 6 -1 19 -3 31 -4 13 -1 19 -6 16 -14 -7 -18 92
-15 103 4 10 14 2 91 -9 99 -10 7 -25 43 -22 54 1 5 -6 17 -15 27 -11 13 -17
39 -18 91 l-1 73 55 -3 c30 -2 57 -8 61 -14 4 -6 31 -11 60 -12 30 0 57 -4 60
-9 3 -4 5 14 5 40 -1 47 0 48 29 48 17 0 43 -6 58 -13 16 -7 38 -15 50 -18 11
-2 24 -9 29 -16 6 -10 8 -9 8 2 0 10 3 11 8 4 13 -19 64 -8 83 17 10 13 17 29
14 36 -4 11 9 26 25 29 3 0 19 6 35 13 17 7 35 14 40 16 43 13 55 18 55 26 0
5 3 8 8 7 12 -2 46 15 60 31 11 13 12 13 7 1 -3 -8 2 -4 12 9 23 31 29 101 8
101 -8 0 -15 5 -15 11 0 5 -5 7 -10 4 -12 -7 -42 19 -33 29 3 3 1 12 -5 19 -7
8 -9 17 -5 20 3 4 2 7 -4 7 -5 0 -15 18 -22 40 -6 22 -17 39 -23 37 -12 -2
-19 28 -11 50 3 8 12 12 19 9 7 -3 16 -1 19 4 3 4 16 7 30 5 14 -1 25 2 25 7
0 5 4 7 9 4 5 -3 30 6 56 19 25 14 51 23 56 20 5 -4 9 -2 9 3 0 13 70 43 83
36 7 -4 9 -4 5 1 -7 8 81 57 92 50 3 -2 13 5 20 16 8 10 22 19 32 19 10 0 18
4 18 10 0 5 11 12 24 16 14 3 32 14 41 24 14 16 14 19 0 33 -8 9 -15 21 -15
27 0 6 -4 8 -10 5 -5 -3 -10 -2 -10 4 0 5 -11 8 -25 6 -14 -1 -25 2 -25 7 0 5
-4 7 -9 4 -5 -4 -11 -3 -13 1 -1 5 -27 19 -55 32 -29 14 -53 27 -53 30 0 4
-18 17 -40 31 -22 14 -40 28 -40 33 0 4 -4 5 -10 2 -5 -3 -10 -1 -10 4 0 6 -6
11 -14 11 -8 0 -17 7 -20 16 -3 8 -10 12 -16 9 -5 -3 -10 -2 -10 3 0 5 -15 26
-34 46 -40 44 -38 66 8 98 17 12 37 28 44 35 7 7 18 13 23 13 12 0 55 43 52
52 -2 5 3 8 11 8 13 0 27 11 125 103 23 20 45 37 50 37 5 0 8 16 7 36 -1 20 3
38 8 41 5 4 6 1 2 -5 -5 -8 -1 -10 10 -5 13 5 14 7 2 14 -7 4 -20 9 -28 11 -8
2 -18 8 -22 13 -5 6 -8 5 -8 -3 0 -7 -4 -10 -10 -7 -19 11 -50 14 -55 4 -4 -5
-11 -7 -16 -3 -5 3 -26 8 -46 10 -20 3 -43 10 -50 16 -7 6 -13 7 -13 2 0 -4
-5 -3 -11 3 -6 6 -18 9 -27 5 -11 -4 -14 -1 -9 11 4 11 2 14 -8 11 -8 -3 -26
3 -41 15 -14 11 -30 18 -35 15 -5 -3 -9 0 -9 5 0 6 -6 10 -12 8 -7 -1 -12 4
-11 10 2 7 0 13 -5 12 -12 -2 -52 13 -52 20 0 3 -11 18 -24 32 -26 28 -43 84
-28 93 6 3 8 15 5 27 -3 12 0 25 7 29 7 4 14 20 15 34 2 15 9 34 17 43 11 14
11 16 -2 8 -10 -5 -8 -1 4 13 10 12 21 41 23 66 4 34 10 46 27 51 11 3 16 9 9
11 -7 4 -9 14 -3 34 4 16 6 31 2 34 -3 3 0 6 7 6 7 0 9 5 5 11 -3 6 -2 14 4
18 7 4 13 16 15 28 1 12 9 28 16 37 7 8 14 27 15 41 0 14 4 25 9 25 4 0 7 8 7
18 0 10 5 23 12 30 7 7 9 12 6 12 -10 0 21 71 40 89 8 9 24 17 34 17 10 1 25
2 33 3 8 0 15 8 15 17 0 8 4 12 10 9 5 -3 27 3 48 14 22 11 42 17 46 14 3 -4
6 -1 6 5 0 7 4 12 10 12 14 0 62 49 93 95 15 22 27 36 27 32 0 -4 11 3 24 15
13 13 22 26 20 29 -2 4 3 12 11 19 8 7 13 16 10 20 -3 4 2 11 11 14 9 4 14 9
11 13 -4 3 -2 12 4 20 6 7 8 13 3 13 -5 0 -2 5 6 10 12 7 15 36 16 147 0 76 4
158 9 183 5 25 9 56 10 70 1 32 14 53 29 47 10 -4 12 12 11 64 -1 48 2 75 13
91 9 12 17 46 17 76 2 40 7 57 19 64 11 6 15 16 10 30 -4 15 -3 18 6 13 9 -5
10 -2 3 11 -13 28 -10 54 7 64 8 5 11 10 6 10 -6 0 -1 7 10 16 10 8 14 13 8
10 -7 -3 -10 12 -10 44 1 35 5 50 15 50 8 0 11 6 7 15 -3 8 -2 15 2 15 5 0 8
21 8 48 1 58 6 84 20 98 6 7 10 45 9 85 -1 53 3 77 13 85 17 12 26 138 10 128
-6 -4 -2 5 7 20 10 14 22 26 27 26 5 0 6 5 3 10 -3 6 -3 10 2 10 4 0 7 36 6
80 -2 65 0 80 12 80 15 0 19 10 16 45 -1 11 -1 26 -1 33 0 6 1 41 3 77 1 52 5
66 19 71 17 5 23 18 18 39 -1 6 -3 37 -4 69 -1 49 2 60 17 64 19 5 19 -1 19
202 -1 96 3 150 11 159 7 8 7 12 1 8 -7 -4 -10 13 -11 48 0 37 3 52 11 48 7
-5 7 -2 -1 8 -6 8 -10 31 -9 52 2 20 -3 48 -10 61 -6 14 -9 27 -6 31 4 3 -1 3
-11 -1 -12 -4 -17 -1 -17 10 0 9 -4 16 -9 16 -5 0 -12 9 -16 19 -4 13 -12 18
-22 14 -11 -4 -14 -2 -9 5 5 9 1 9 -18 2 -16 -6 -26 -6 -26 0 0 6 -9 6 -22 2
-13 -5 -33 -7 -45 -6 -13 0 -23 -3 -23 -7 0 -5 -11 -9 -24 -9 -14 0 -32 -8
-42 -17 -10 -10 -20 -17 -23 -15 -9 5 -145 -42 -152 -52 -4 -5 -12 -5 -18 -2
-6 4 -14 0 -17 -8 -3 -9 -9 -14 -13 -11 -11 6 -85 -21 -89 -33 -2 -6 -9 -9
-17 -6 -7 3 -24 0 -37 -7 -13 -7 -27 -14 -33 -15 -5 -1 -28 -7 -50 -13 -22 -6
-44 -11 -50 -11 -5 -1 -17 -7 -25 -14 -8 -7 -25 -11 -37 -10 -13 0 -23 -3 -23
-7 0 -5 -18 -12 -40 -15 -22 -4 -40 -11 -40 -17 0 -6 -3 -8 -6 -4 -8 7 -64
-13 -64 -24 0 -4 -7 -6 -15 -3 -8 4 -22 1 -30 -6 -8 -7 -15 -9 -15 -5 0 4 -7
2 -15 -5 -8 -6 -18 -9 -24 -6 -5 3 -12 -1 -15 -10 -4 -9 -9 -14 -13 -11 -3 4
-15 1 -27 -5 -11 -7 -30 -13 -41 -15 -10 -2 -22 -7 -25 -11 -3 -4 -15 -7 -28
-6 -12 1 -25 -3 -28 -8 -3 -4 -10 -6 -15 -3 -5 4 -9 1 -9 -5 0 -6 -4 -9 -9 -5
-5 3 -15 0 -23 -7 -7 -7 -22 -13 -33 -13 -11 1 -23 -3 -26 -8 -3 -5 -12 -9
-20 -10 -8 -2 -20 -6 -27 -11 -7 -4 -28 -10 -45 -13 -18 -3 -40 -9 -49 -14
-10 -5 -18 -6 -18 -2 0 4 -5 1 -10 -7 -6 -10 -10 -11 -10 -3 0 9 -7 10 -25 3
-29 -11 -65 -19 -115 -25 -43 -5 -88 -12 -116 -19 -44 -9 -47 10 -6 50 23 24
38 48 37 61 -1 12 4 24 12 27 7 3 13 13 13 21 0 9 5 13 10 10 8 -5 15 10 8 18
-2 1 6 16 18 32 13 19 20 43 18 68 -1 20 2 37 6 37 5 0 6 9 3 20 -3 11 -9 20
-14 20 -5 0 -9 8 -10 18 0 10 -3 12 -6 4 -2 -6 -9 -10 -14 -6 -5 3 -9 -2 -9
-10 0 -9 -5 -16 -11 -16 -6 0 -8 -7 -5 -16 6 -15 4 -15 -11 -3 -9 8 -14 9 -10
2 8 -14 -50 -46 -66 -36 -6 3 -7 1 -3 -5 4 -7 2 -12 -4 -12 -6 0 -8 -4 -5 -10
9 -14 -8 -12 -24 3 -11 10 -13 10 -7 0 4 -7 2 -13 -3 -13 -6 0 -11 -7 -11 -15
0 -10 -10 -15 -34 -15 -19 0 -36 -5 -38 -10 -2 -6 -17 -11 -33 -13 -17 -1 -36
-10 -43 -19 -8 -11 -26 -18 -46 -18 -17 0 -37 -5 -44 -12 -7 -7 -28 -13 -48
-13 -23 -1 -42 -9 -50 -20 -8 -11 -14 -15 -14 -9 0 5 -5 2 -10 -6 -7 -11 -10
-11 -10 -2 0 7 -5 10 -11 6 -6 -3 -15 0 -20 7 -7 11 -9 11 -9 1 0 -21 -89 -11
-96 11 -3 9 -9 15 -13 12 -5 -2 -7 7 -5 21 1 15 -6 33 -19 46 -12 11 -15 17
-7 13 12 -6 12 -5 3 5 -6 7 -9 19 -6 28 5 11 2 13 -6 7 -10 -6 -11 -3 -2 14 9
17 9 20 -3 15 -16 -6 -33 36 -22 54 6 10 -35 48 -47 44 -5 -1 -6 2 -2 8 4 6
-1 22 -10 37 -9 14 -12 22 -6 19 20 -13 11 5 -14 28 -14 13 -25 29 -25 35 0 7
-4 9 -10 6 -5 -3 -10 3 -10 14 0 12 -3 20 -7 20 -19 -3 -34 2 -29 10 3 4 -2
17 -10 27 -9 10 -13 13 -9 7 12 -24 -10 -12 -35 17 -13 17 -28 30 -32 30 -5 0
-20 11 -33 24 -13 14 -34 27 -45 31 -11 3 -20 11 -20 17 0 5 -7 7 -16 4 -8 -3
-13 -2 -10 3 7 10 -22 23 -34 16 -5 -3 -12 0 -16 6 -4 8 -3 9 4 5 7 -4 12 -4
12 -1 0 7 -82 45 -111 50 -10 2 -26 11 -35 19 -17 18 -28 21 -19 7 3 -6 -4 -9
-15 -8 -11 1 -20 5 -20 9 0 4 -7 4 -17 1 -11 -4 -14 -3 -9 5 5 8 0 12 -13 13
-31 2 -61 6 -63 9 -2 1 -14 3 -28 4 -14 0 -31 5 -37 9 -7 5 -17 6 -22 2 -5 -3
-12 -1 -16 5 -4 6 -12 7 -18 3 -16 -11 -68 -11 -89 -1 -9 4 -19 4 -22 0 -6
-10 -68 -8 -84 2 -7 4 -12 3 -12 -3 0 -10 -18 -10 -36 2 -6 3 -14 3 -18 0 -10
-10 -46 -11 -46 -1 0 5 -6 6 -12 1 -18 -11 -42 -10 -50 2 -5 6 -8 5 -8 -2 0
-9 -7 -10 -26 -3 -16 7 -23 7 -19 0 4 -7 -3 -7 -19 0 -17 6 -26 6 -26 -1 0 -6
-7 -6 -19 1 -14 7 -22 7 -26 0 -5 -7 -11 -8 -19 -1 -7 6 -17 6 -26 1 -8 -5
-21 -5 -30 0 -11 6 -21 5 -28 -2 -9 -9 -12 -9 -12 -1 0 7 -10 10 -22 8 -12 -3
-28 1 -36 7 -8 7 -34 13 -59 14 -29 1 -49 8 -57 20 -8 11 -21 15 -35 11 -12
-3 -21 0 -21 6 0 6 -3 8 -6 4 -4 -3 -13 0 -21 8 -8 8 -23 15 -34 15 -11 0 -17
5 -14 10 6 10 -7 14 -34 11 -7 -2 -11 1 -8 6 5 10 -49 63 -57 55 -3 -3 -6 0
-6 7 0 14 -30 47 -30 34 0 -4 -5 0 -11 10 -7 12 -23 17 -59 17 -28 0 -50 -1
-51 -2z"/>
</g>
</svg>
