<svg width="28" height="16" viewBox="0 0 28 16" fill="none" xmlns="http://www.w3.org/2000/svg">
<path d="M26.9057 15.3882C26.525 15.7799 26.0088 16 25.4706 16C24.9323 16 24.4161 15.7799 24.0355 15.3882L13.9877 5.04411L3.94 15.3882C3.55717 15.7688 3.04443 15.9795 2.51221 15.9747C1.97999 15.9699 1.47088 15.7502 1.09453 15.3627C0.718176 14.9753 0.504702 14.4511 0.500077 13.9032C0.495452 13.3553 0.700049 12.8274 1.0698 12.4333L12.5526 0.611838C12.9333 0.220078 13.4495 0 13.9877 0C14.526 0 15.0422 0.220078 15.4228 0.611838L26.9057 12.4333C27.2862 12.8252 27.5 13.3566 27.5 13.9107C27.5 14.4649 27.2862 14.9963 26.9057 15.3882Z" fill="white"/>
</svg>
