<svg width="200" height="51" viewBox="0 0 200 51" fill="none" xmlns="http://www.w3.org/2000/svg">
<g clip-path="url(#clip0_4_1389)">
<g clip-path="url(#clip1_4_1389)">
<g clip-path="url(#clip2_4_1389)">
<path d="M52.9423 40.6685V9.541C52.9423 9.5328 52.9456 9.52492 52.9517 9.51912C52.9577 9.51332 52.9659 9.51006 52.9744 9.51006C56.3118 9.50098 59.6976 9.50264 63.1316 9.51501C63.8482 9.51749 64.4126 9.31204 64.7084 8.64372C64.8065 8.42343 64.8532 8.06823 64.8482 7.57813C64.8284 5.63588 64.8254 3.71674 64.8395 1.8207C64.8457 0.928373 64.196 0.309562 63.3098 0.310799C57.0417 0.321525 50.6534 0.321525 44.1452 0.310799C43.2232 0.308324 42.5883 0.888769 42.5883 1.8566C42.5866 17.3112 42.5871 32.8562 42.5895 48.4915C42.5895 49.3875 43.2826 49.9482 44.1341 49.9482C51.1217 49.9407 57.5491 49.942 63.4163 49.9519C64.2678 49.9531 64.8445 49.213 64.8395 48.4073C64.8272 46.503 64.8279 44.5134 64.842 42.4383C64.8457 41.7303 64.6254 41.1685 63.9683 40.8727C63.7801 40.7885 63.4881 40.7468 63.092 40.7477C59.5606 40.7584 56.2054 40.76 53.0264 40.7526C52.9702 40.7526 52.9423 40.7245 52.9423 40.6685Z" stroke="#828282" stroke-width="0.247525"/>
<path d="M96.1602 9.59292V40.7228C96.1602 40.7268 96.1595 40.7306 96.1579 40.7342C96.1564 40.7378 96.1543 40.7412 96.1514 40.7439C96.1487 40.7466 96.1455 40.7488 96.1419 40.7503C96.1382 40.7518 96.1344 40.7525 96.1305 40.7525C92.4481 40.7584 89.0034 40.7575 85.7964 40.7501C84.9065 40.7476 84.2605 41.3689 84.2642 42.2686C84.2748 44.281 84.2736 46.3054 84.2605 48.3416C84.2555 49.2253 84.7964 49.9468 85.7345 49.9468C92.5925 49.9477 99.0405 49.9477 105.079 49.9468C105.932 49.9468 106.513 49.2699 106.513 48.4023C106.514 32.7711 106.513 17.2265 106.512 1.76866C106.512 1.00628 105.911 0.314453 105.108 0.314453C98.4993 0.315279 92.0323 0.315691 85.7073 0.315691C84.9684 0.315691 84.2766 0.917177 84.2753 1.68574C84.2695 3.82848 84.2683 5.95431 84.2716 8.06322C84.2728 8.64985 84.6169 9.16842 85.154 9.3949C85.3602 9.48154 85.7667 9.52319 86.3731 9.5199C89.7246 9.5001 92.9605 9.49803 96.081 9.51371C96.1337 9.51371 96.1602 9.54011 96.1602 9.59292Z" stroke="#828282" stroke-width="0.247525"/>
<path d="M8.29126 19.1042V10.0868C8.29114 10.0784 8.28901 10.0702 8.28507 10.0627C8.28114 10.0553 8.27551 10.0489 8.26863 10.0441C8.26173 10.0393 8.25381 10.0361 8.24548 10.0349C8.23715 10.0338 8.22866 10.0346 8.22072 10.0373L6.05735 10.7972C6.00785 10.8146 5.98309 10.8496 5.98309 10.9024V31.9396C5.98309 31.9916 6.00578 32.0308 6.05116 32.0571C7.99259 33.1512 10.045 33.6862 12.2083 33.6623C15.7319 33.624 18.8531 31.598 19.7739 28.1475C20.2467 26.3727 20.1919 24.5766 19.6093 22.7589C18.8296 20.3294 16.8915 18.5745 14.3742 18.0361C12.1052 17.5501 10.1064 17.921 8.3779 19.1487C8.32014 19.1899 8.29126 19.1751 8.29126 19.1042Z" stroke="#828282" stroke-width="0.247525"/>
<path d="M169.91 19.9791C169.898 23.0492 169.894 25.9733 169.9 28.7514C169.901 29.3817 169.979 29.968 170.133 30.5101C170.645 32.3195 172.091 32.7935 173.866 32.6351C174.999 32.5343 176.07 32.2468 177.076 31.7724C177.123 31.7502 177.146 31.713 177.146 31.6611V29.7749C177.146 29.7691 177.145 29.7634 177.143 29.7583C177.14 29.7533 177.135 29.7489 177.132 29.7457C177.127 29.7426 177.12 29.7406 177.116 29.74C177.109 29.7395 177.103 29.7405 177.098 29.7427C176.072 30.1726 175.002 30.4291 173.887 30.5125C173.123 30.5707 172.529 30.3999 172.336 29.541C172.258 29.1945 172.219 28.8195 172.221 28.416C172.224 25.5826 172.226 22.7546 172.222 19.9321C172.222 19.9239 172.226 19.916 172.232 19.9102C172.238 19.9044 172.245 19.9012 172.254 19.9012H177.002C177.056 19.9012 177.083 19.8739 177.083 19.8195V18.0447C177.083 18.025 177.076 18.0061 177.061 17.9922C177.047 17.9783 177.029 17.9705 177.009 17.9705H172.264C172.259 17.9705 172.253 17.9693 172.248 17.9674C172.243 17.9653 172.239 17.9623 172.236 17.9585C172.232 17.9547 172.228 17.9502 172.227 17.9452C172.224 17.9403 172.223 17.9349 172.223 17.9296V14.52C172.223 14.189 172.114 14.1482 171.898 14.3974C170.333 16.1878 168.851 17.8879 167.45 19.4977C167.363 19.5967 167.336 19.7109 167.368 19.8405C167.378 19.8809 167.404 19.9012 167.445 19.9012H169.832C169.885 19.9012 169.911 19.9271 169.91 19.9791Z" stroke="#828282" stroke-width="0.247525"/>
<path d="M61.7962 28.2626C60.4019 28.2601 59.0282 28.2601 57.6749 28.2626C57.2975 28.2626 57.0227 28.5473 57.0227 28.9173C57.0227 30.1129 57.0239 31.2453 57.0264 32.3146C57.0264 32.8047 57.3494 32.9928 57.7876 32.9928C62.3883 32.9879 67.2121 32.9871 72.2591 32.9903C72.343 32.9903 72.4262 32.9738 72.5036 32.9416C72.5811 32.9094 72.6515 32.8622 72.7107 32.8028C72.77 32.7433 72.8168 32.6728 72.8487 32.5952C72.8806 32.5176 72.8968 32.4344 72.8965 32.3505C72.8932 31.3662 72.8945 30.2483 72.9002 28.9965C72.9014 28.6067 72.6885 28.2688 72.2628 28.2663C70.9254 28.2589 69.5616 28.2582 68.1712 28.2639C68.1234 28.2639 68.0994 28.24 68.0994 28.1921V21.6389C68.0994 21.5985 68.1192 21.5782 68.1588 21.5782H72.2801C72.4421 21.5786 72.5976 21.5145 72.7124 21.4001C72.8273 21.2858 72.8921 21.1303 72.8928 20.9681C72.897 19.7841 72.8973 18.6364 72.894 17.525C72.8928 17.1129 72.6143 16.8579 72.2269 16.8579C67.3301 16.8596 62.4691 16.8604 57.644 16.8604C57.2975 16.8604 57.0227 17.1426 57.0239 17.4928C57.0239 18.6546 57.0239 19.8101 57.0239 20.9594C57.0239 21.1235 57.0892 21.2809 57.2053 21.397C57.3213 21.513 57.4786 21.5782 57.6428 21.5782L61.842 21.5794C61.8496 21.5794 61.8569 21.5823 61.8622 21.5875C61.8675 21.5926 61.8705 21.5995 61.8705 21.6067V28.1884C61.8705 28.2379 61.8457 28.2626 61.7962 28.2626Z" stroke="#828282" stroke-width="0.247525"/>
<path d="M86.1316 24.1522C86.1316 24.2191 86.1118 24.2258 86.0722 24.1721C84.4129 21.8907 82.7764 19.6308 81.1626 17.3923C80.9621 17.1139 80.6564 16.8701 80.3024 16.8676C79.0045 16.857 77.7245 16.8548 76.4621 16.8614C76.2964 16.8621 76.1377 16.9282 76.0209 17.0453C75.9039 17.1625 75.8383 17.3211 75.8383 17.4864V32.3441C75.8383 32.5149 75.9061 32.6787 76.0271 32.7996C76.148 32.9206 76.312 32.9886 76.4831 32.9889C77.9591 32.9914 79.3733 32.9906 80.7257 32.9864C81.1391 32.9852 81.3804 32.6906 81.3792 32.3107C81.3733 30.2926 81.3733 28.2542 81.3792 26.1956C81.3792 26.1296 81.3993 26.1225 81.4398 26.1745C83.0413 28.2216 84.71 30.3462 86.446 32.5483C86.6811 32.8462 86.9905 32.9943 87.3742 32.9926C88.5235 32.9869 89.7207 32.9873 90.9658 32.9938C91.3532 32.9963 91.6688 32.7488 91.6688 32.3416C91.6695 27.3053 91.6695 22.3524 91.6688 17.4827C91.6688 17.3178 91.6032 17.1597 91.4865 17.043C91.3698 16.9263 91.2115 16.8605 91.0462 16.8602C89.731 16.8594 88.394 16.8586 87.0351 16.8577C86.9732 16.8577 86.9117 16.8565 86.8507 16.854C86.3792 16.8367 86.1217 17.1386 86.1242 17.5966C86.1366 19.9242 86.1391 22.1094 86.1316 24.1522Z" stroke="#828282" stroke-width="0.247525"/>
<path d="M113.611 26.1177C113.031 22.3195 115.81 19.265 119.687 19.5138C120.926 19.593 122.121 19.8529 123.274 20.2935C123.328 20.3141 123.354 20.2959 123.354 20.239V18.1685C123.354 18.1181 123.33 18.0852 123.283 18.0695C121.764 17.5571 120.195 17.3488 118.576 17.4445C114.059 17.7118 110.946 21.0051 111.163 25.536C111.317 28.7753 112.8 31.0159 115.612 32.2576C117.947 33.2898 120.875 33.1053 123.281 32.3492C123.33 32.3334 123.354 32.3005 123.354 32.2502V30.1697C123.354 30.1612 123.352 30.1527 123.348 30.1452C123.344 30.1376 123.338 30.1311 123.331 30.1263C123.324 30.1214 123.316 30.1183 123.308 30.1172C123.299 30.1162 123.291 30.1172 123.283 30.1202C122.107 30.5716 120.901 30.8327 119.664 30.9036C116.599 31.0806 114.081 29.2031 113.611 26.1177Z" stroke="#828282" stroke-width="0.247525"/>
<path d="M154.18 19.6115L154.179 18.0398C154.179 17.9936 154.155 17.9705 154.109 17.9705H151.965C151.914 17.9705 151.889 17.9961 151.889 18.0472V38.3034C151.889 38.3587 151.916 38.3863 151.972 38.3863L154.112 38.3826C154.158 38.3826 154.18 38.3603 154.18 38.3158L154.179 31.8764C154.179 31.8062 154.208 31.7906 154.267 31.8294C155.332 32.5385 156.546 32.8356 157.924 32.9432C159.663 33.0802 161.216 32.6533 162.582 31.6623C164.327 30.3974 165.363 28.6317 165.69 26.3653C165.993 24.2613 165.632 21.8343 164.363 20.0757C162.984 18.1635 160.695 17.1338 158.352 17.4903C156.759 17.732 155.38 18.4441 154.215 19.6264C154.212 19.6294 154.208 19.6312 154.205 19.6321C154.201 19.6328 154.197 19.6325 154.193 19.6309C154.19 19.6292 154.186 19.6265 154.184 19.6232C154.181 19.6197 154.18 19.6156 154.18 19.6115Z" stroke="#828282" stroke-width="0.247525"/>
<path d="M182.957 32.093C183.781 32.5147 184.693 32.7832 185.692 32.8987C190.026 33.4024 193.89 30.9593 194.489 26.4618C194.861 23.6784 194.067 20.8554 191.835 19.0819C189.896 17.5435 187.242 17.1153 184.858 17.6277C181.722 18.2997 179.495 20.6561 179.071 23.8442C178.618 27.2527 179.809 30.4816 182.957 32.093Z" stroke="#828282" stroke-width="0.247525"/>
<path d="M128.739 21.5112L128.74 18.0372C128.74 17.9926 128.718 17.9704 128.674 17.9704H126.495C126.489 17.9704 126.483 17.9716 126.478 17.9739C126.472 17.9763 126.467 17.9798 126.463 17.9841C126.459 17.9885 126.455 17.9937 126.453 17.9994C126.451 18.0051 126.45 18.0112 126.45 18.0174V32.3701C126.45 32.3822 126.454 32.3939 126.463 32.4025C126.472 32.4111 126.483 32.4159 126.495 32.4159H128.658C128.714 32.4159 128.742 32.3878 128.742 32.3317C128.739 30.3895 128.739 28.4155 128.74 26.4097C128.742 25.6127 128.834 24.7562 129.041 24.0211C129.77 21.4246 131.56 20.1003 134.41 20.0483C134.447 20.0475 134.466 20.0285 134.466 19.9914V17.557C134.466 17.5091 134.442 17.488 134.395 17.4939C133.593 17.5854 132.851 17.7509 132.168 17.9902C130.447 18.5916 129.514 19.9072 128.784 21.5199C128.754 21.5858 128.739 21.583 128.739 21.5112Z" stroke="#828282" stroke-width="0.247525"/>
<path d="M24.6539 25.8132H36.941C36.9863 25.8132 37.0091 25.7906 37.0091 25.7452C37.0425 21.5756 34.4423 17.7971 29.9707 17.8392C26.3569 17.8726 23.3371 19.7761 22.4472 23.3974C22.1345 24.6681 22.0858 25.9985 22.3012 27.3887C22.6824 29.8516 24.0499 31.8145 26.2603 32.8578C29.1118 34.2043 32.8457 33.7464 35.6972 32.5187C35.7459 32.4973 35.7702 32.4601 35.7702 32.4073L35.7715 30.2724C35.7715 30.2188 35.7475 30.2048 35.6997 30.2303C34.2285 31.0372 32.5791 31.4914 30.7517 31.5929C27.0537 31.7996 24.5648 29.6622 24.571 25.8949C24.571 25.8405 24.5986 25.8132 24.6539 25.8132Z" stroke="#828282" stroke-width="0.247525"/>
<path d="M142.455 29.3653C142.452 29.3722 142.447 29.3782 142.441 29.3822C142.434 29.3863 142.427 29.3885 142.419 29.3885C142.411 29.3885 142.404 29.3863 142.398 29.3822C142.392 29.3782 142.387 29.3722 142.384 29.3653L137.63 17.994C137.628 17.9869 137.623 17.981 137.616 17.9768C137.609 17.9726 137.602 17.9704 137.594 17.9705H135.172C135.166 17.9705 135.16 17.972 135.154 17.9748C135.149 17.9778 135.144 17.9821 135.14 17.9874C135.137 17.9928 135.134 17.9988 135.134 18.0051C135.133 18.0114 135.134 18.0179 135.137 18.0237L141.203 32.2143C141.206 32.219 141.206 32.2241 141.206 32.2291C141.206 32.2342 141.206 32.2393 141.203 32.244L138.571 38.3306C138.568 38.3364 138.567 38.3428 138.568 38.3489C138.568 38.3551 138.571 38.3612 138.575 38.3664C138.577 38.3717 138.582 38.376 138.587 38.379C138.593 38.3821 138.599 38.3837 138.606 38.3838L140.816 38.3826C140.823 38.3825 140.831 38.3803 140.837 38.376C140.843 38.3718 140.848 38.366 140.851 38.3591L149.546 18.0225C149.549 18.0166 149.55 18.0102 149.549 18.0039C149.549 17.9976 149.546 17.9914 149.542 17.9862C149.539 17.9809 149.534 17.9765 149.529 17.9736C149.523 17.9707 149.517 17.9692 149.51 17.9692L147.304 17.9717C147.296 17.9716 147.289 17.9738 147.283 17.978C147.275 17.9822 147.27 17.9882 147.268 17.9952L142.455 29.3653Z" stroke="#828282" stroke-width="0.247525"/>
<path d="M8.34083 30.8368C10.1354 31.5521 12.102 31.8182 13.9671 31.3033C16.5537 30.5905 17.6874 28.5323 17.7183 25.9469C17.7492 23.4246 16.7319 21.0484 14.1799 20.2241C13.5636 20.0245 12.8841 19.9494 12.1416 19.9989C10.7096 20.0954 9.39033 20.4704 8.33835 21.4358C8.32352 21.4494 8.31168 21.466 8.30359 21.4843C8.29549 21.5026 8.29132 21.5223 8.29132 21.5422V30.7637C8.2914 30.7794 8.29615 30.7948 8.30497 30.8078C8.31378 30.8208 8.32626 30.8309 8.34083 30.8368Z" stroke="#828282" stroke-width="0.247525"/>
<path d="M163.408 24.3245C163.213 21.593 161.571 19.6599 158.728 19.5955C156.992 19.5559 155.378 20.442 154.236 21.7589C154.197 21.8026 154.179 21.8529 154.179 21.9099V29.6252C154.179 29.6501 154.185 29.6746 154.196 29.6965C154.207 29.7185 154.223 29.7373 154.243 29.7515C155.323 30.525 156.52 30.8628 157.842 30.9841C159.043 31.093 160.13 30.831 161.106 30.1982C163.024 28.9532 163.566 26.5596 163.408 24.3245Z" stroke="#828282" stroke-width="0.247525"/>
<path d="M190.165 20.4767C188.811 19.4421 186.958 19.1413 185.295 19.5671C183.026 20.1487 181.608 21.9235 181.323 24.2713C180.948 27.3579 182.431 30.3047 185.671 30.9012C186.799 31.1091 187.863 31.0163 188.867 30.6228C191.562 29.5646 192.592 26.8975 192.21 24.1463C191.992 22.5736 191.31 21.3505 190.165 20.4767Z" stroke="#828282" stroke-width="0.247525"/>
<path d="M31.9868 20.1896C31.7285 20.0782 31.472 19.9957 31.217 19.9421C29.7227 19.6286 28.3197 19.8459 27.0079 20.5943C25.7561 21.3088 24.9769 22.4375 24.67 23.9804C24.6576 24.0415 24.6827 24.072 24.7455 24.072H34.5363C34.599 24.072 34.627 24.0415 34.6205 23.9804C34.4472 22.2639 33.5834 20.8765 31.9868 20.1896Z" stroke="#828282" stroke-width="0.247525"/>
<path d="M53.0264 40.7526C56.2054 40.76 59.5606 40.7584 63.092 40.7477C63.4881 40.7468 63.7801 40.7885 63.9683 40.8727C64.6254 41.1685 64.8457 41.7303 64.842 42.4383C64.8279 44.5134 64.8272 46.503 64.8395 48.4073C64.8445 49.213 64.2678 49.9531 63.4163 49.9519C57.5491 49.942 51.1217 49.9407 44.1341 49.9482C43.2826 49.9482 42.5895 49.3875 42.5895 48.4915C42.5871 32.8562 42.5866 17.3112 42.5883 1.8566C42.5883 0.888769 43.2232 0.308324 44.1452 0.310799C50.6534 0.321525 57.0416 0.321525 63.3098 0.310799C64.196 0.309562 64.8457 0.928373 64.8395 1.8207C64.8254 3.71674 64.8284 5.63588 64.8482 7.57813C64.8532 8.06823 64.8065 8.42343 64.7084 8.64372C64.4126 9.31204 63.8482 9.51749 63.1316 9.51501C59.6976 9.50264 56.3118 9.50098 52.9744 9.51006C52.9659 9.51006 52.9577 9.51332 52.9517 9.51912C52.9456 9.52492 52.9423 9.5328 52.9423 9.541V40.6685C52.9423 40.7245 52.9702 40.7526 53.0264 40.7526Z" fill="white"/>
<path d="M96.081 9.51371C92.9605 9.49803 89.7246 9.5001 86.3731 9.5199C85.7667 9.52319 85.3602 9.48154 85.154 9.3949C84.6169 9.16842 84.2728 8.64985 84.2716 8.06322C84.2683 5.95431 84.2695 3.82848 84.2753 1.68574C84.2766 0.917177 84.9684 0.315691 85.7073 0.315691C92.0323 0.315691 98.4993 0.315279 105.108 0.314453C105.911 0.314453 106.512 1.00628 106.512 1.76866C106.513 17.2265 106.514 32.7711 106.513 48.4023C106.513 49.2699 105.932 49.9468 105.079 49.9468C99.0405 49.9477 92.5925 49.9477 85.7345 49.9468C84.7964 49.9468 84.2555 49.2253 84.2605 48.3416C84.2736 46.3054 84.2748 44.281 84.2642 42.2686C84.2605 41.3689 84.9065 40.7476 85.7964 40.7501C89.0034 40.7575 92.4481 40.7584 96.1305 40.7525C96.1344 40.7525 96.1382 40.7518 96.1419 40.7503C96.1455 40.7488 96.1487 40.7466 96.1514 40.7439C96.1543 40.7412 96.1564 40.7378 96.1579 40.7342C96.1595 40.7306 96.1602 40.7268 96.1602 40.7228V9.59292C96.1602 9.54011 96.1337 9.51371 96.081 9.51371Z" fill="white"/>
<path d="M8.3779 19.1487C10.1064 17.9209 12.1052 17.5502 14.3742 18.036C16.8915 18.5744 18.8296 20.3294 19.6093 22.7588C20.1919 24.5765 20.2467 26.3727 19.7739 28.1474C18.8531 31.5979 15.7319 33.6239 12.2083 33.6623C10.045 33.6863 7.99259 33.1511 6.05116 32.0571C6.00578 32.0307 5.98309 31.9915 5.98309 31.9395V10.9024C5.98309 10.8496 6.00785 10.8146 6.05735 10.7972L8.22072 10.0373C8.22866 10.0346 8.23715 10.0338 8.24548 10.0349C8.25381 10.0361 8.26173 10.0393 8.26863 10.0441C8.27551 10.0489 8.28114 10.0553 8.28507 10.0627C8.28901 10.0702 8.29114 10.0784 8.29126 10.0868V19.1041C8.29126 19.1752 8.32014 19.19 8.3779 19.1487ZM8.34077 30.8368C10.1353 31.5521 12.1019 31.8182 13.967 31.3034C16.5536 30.5905 17.6873 28.5323 17.7182 25.9469C17.7492 23.4247 16.7319 21.0484 14.1799 20.2242C13.5635 20.0245 12.8841 19.9494 12.1415 19.9989C10.7096 20.0955 9.39027 20.4705 8.33829 21.4358C8.32346 21.4495 8.31163 21.466 8.30353 21.4843C8.29543 21.5026 8.29126 21.5224 8.29126 21.5422V30.7638C8.29135 30.7795 8.29609 30.7948 8.30491 30.8078C8.31372 30.8208 8.3262 30.831 8.34077 30.8368Z" fill="white"/>
<path d="M169.832 19.9011H167.445C167.404 19.9011 167.378 19.8809 167.368 19.8404C167.336 19.711 167.363 19.5966 167.45 19.4976C168.851 17.8879 170.333 16.1878 171.898 14.3973C172.114 14.1482 172.223 14.1891 172.223 14.5199V17.9295C172.223 17.935 172.224 17.9403 172.227 17.9452C172.228 17.9502 172.232 17.9547 172.236 17.9585C172.239 17.9622 172.243 17.9653 172.248 17.9673C172.253 17.9694 172.259 17.9704 172.264 17.9704H177.009C177.029 17.9704 177.047 17.9783 177.061 17.9922C177.076 18.0061 177.083 18.0249 177.083 18.0446V19.8194C177.083 19.8738 177.056 19.9011 177.002 19.9011H172.254C172.245 19.9011 172.238 19.9044 172.232 19.9102C172.226 19.9159 172.222 19.9238 172.222 19.932C172.226 22.7547 172.224 25.5826 172.221 28.4159C172.219 28.8194 172.258 29.1944 172.336 29.5409C172.529 30.3998 173.123 30.5706 173.887 30.5124C175.002 30.4292 176.072 30.1726 177.098 29.7426C177.103 29.7404 177.109 29.7396 177.116 29.74C177.12 29.7405 177.127 29.7425 177.132 29.7457C177.135 29.749 177.14 29.7533 177.143 29.7584C177.145 29.7634 177.146 29.7691 177.146 29.7748V31.661C177.146 31.7129 177.123 31.7501 177.076 31.7724C176.07 32.2469 174.999 32.5344 173.866 32.635C172.091 32.7934 170.645 32.3194 170.133 30.51C169.979 29.9679 169.901 29.3818 169.9 28.7513C169.894 25.9733 169.898 23.0492 169.91 19.979C169.911 19.9271 169.885 19.9011 169.832 19.9011Z" fill="white"/>
<path d="M61.8705 28.1884V21.6067C61.8705 21.5995 61.8675 21.5926 61.8622 21.5875C61.8569 21.5823 61.8496 21.5794 61.842 21.5794L57.6428 21.5782C57.4786 21.5782 57.3213 21.513 57.2053 21.397C57.0892 21.2809 57.0239 21.1235 57.0239 20.9594C57.0239 19.8101 57.0239 18.6546 57.0239 17.4928C57.0227 17.1426 57.2975 16.8604 57.644 16.8604C62.4691 16.8604 67.3301 16.8596 72.2269 16.8579C72.6143 16.8579 72.8928 17.1129 72.894 17.525C72.8973 18.6364 72.897 19.7841 72.8928 20.9681C72.8921 21.1303 72.8273 21.2858 72.7124 21.4001C72.5976 21.5145 72.4421 21.5786 72.2801 21.5782H68.1588C68.1192 21.5782 68.0994 21.5985 68.0994 21.6389V28.1921C68.0994 28.24 68.1234 28.2639 68.1712 28.2639C69.5616 28.2582 70.9254 28.2589 72.2628 28.2663C72.6885 28.2688 72.9014 28.6067 72.9002 28.9965C72.8945 30.2483 72.8932 31.3662 72.8965 32.3505C72.8968 32.4344 72.8806 32.5176 72.8487 32.5952C72.8168 32.6728 72.77 32.7433 72.7107 32.8028C72.6515 32.8622 72.5811 32.9094 72.5036 32.9416C72.4262 32.9738 72.343 32.9903 72.2591 32.9903C67.2121 32.9871 62.3883 32.9879 57.7876 32.9928C57.3494 32.9928 57.0264 32.8047 57.0264 32.3146C57.0239 31.2453 57.0227 30.1129 57.0227 28.9173C57.0227 28.5473 57.2975 28.2626 57.6749 28.2626C59.0282 28.2601 60.4019 28.2601 61.7962 28.2626C61.8457 28.2626 61.8705 28.2379 61.8705 28.1884Z" fill="white"/>
<path d="M86.1316 24.1522C86.1391 22.1094 86.1366 19.9242 86.1242 17.5966C86.1217 17.1386 86.3792 16.8367 86.8507 16.854C86.9117 16.8565 86.9732 16.8577 87.0351 16.8577C88.394 16.8586 89.731 16.8594 91.0462 16.8602C91.2115 16.8605 91.3698 16.9263 91.4865 17.043C91.6032 17.1597 91.6688 17.3178 91.6688 17.4827C91.6695 22.3524 91.6695 27.3053 91.6688 32.3416C91.6688 32.7488 91.3532 32.9963 90.9658 32.9938C89.7207 32.9873 88.5235 32.9869 87.3742 32.9926C86.9905 32.9943 86.6811 32.8462 86.446 32.5483C84.71 30.3462 83.0413 28.2216 81.4398 26.1745C81.3993 26.1225 81.3792 26.1296 81.3792 26.1956C81.3733 28.2542 81.3733 30.2926 81.3792 32.3107C81.3804 32.6906 81.1391 32.9852 80.7257 32.9864C79.3733 32.9906 77.9591 32.9914 76.4831 32.9889C76.312 32.9886 76.148 32.9206 76.0271 32.7996C75.9061 32.6787 75.8383 32.5149 75.8383 32.3441V17.4864C75.8383 17.3211 75.9039 17.1625 76.0209 17.0453C76.1377 16.9282 76.2964 16.8621 76.4621 16.8614C77.7245 16.8548 79.0045 16.857 80.3024 16.8676C80.6564 16.8701 80.9621 17.1139 81.1626 17.3923C82.7764 19.6308 84.4129 21.8907 86.0722 24.172C86.1118 24.2258 86.1316 24.2191 86.1316 24.1522Z" fill="white"/>
<path d="M119.687 19.5138C115.81 19.265 113.031 22.3195 113.611 26.1177C114.081 29.2031 116.599 31.0806 119.664 30.9036C120.901 30.8327 122.107 30.5716 123.283 30.1202C123.291 30.1172 123.299 30.1162 123.308 30.1174C123.316 30.1183 123.324 30.1214 123.331 30.1263C123.338 30.1312 123.344 30.1376 123.348 30.1452C123.352 30.1527 123.354 30.1612 123.354 30.1697V32.2502C123.354 32.3005 123.33 32.3336 123.281 32.3492C120.875 33.1053 117.947 33.2898 115.612 32.2576C112.8 31.0159 111.317 28.7754 111.163 25.536C110.946 21.0051 114.059 17.7118 118.576 17.4445C120.195 17.3488 121.764 17.5571 123.283 18.0695C123.33 18.0852 123.354 18.1182 123.354 18.1685V20.239C123.354 20.2959 123.328 20.3141 123.274 20.2935C122.121 19.8529 120.926 19.593 119.687 19.5138Z" fill="white"/>
<path d="M154.18 19.6115C154.18 19.6158 154.181 19.6197 154.184 19.6232C154.186 19.6266 154.19 19.6294 154.193 19.6309C154.197 19.6325 154.201 19.633 154.205 19.6321C154.208 19.6314 154.212 19.6294 154.215 19.6265C155.38 18.4441 156.759 17.7321 158.352 17.4903C160.695 17.1338 162.984 18.1635 164.363 20.0757C165.632 21.8343 165.993 24.2614 165.69 26.3654C165.363 28.6318 164.327 30.3974 162.582 31.6623C161.216 32.6533 159.663 33.0802 157.924 32.9432C156.546 32.8356 155.332 32.5385 154.267 31.8294C154.208 31.7906 154.179 31.8063 154.179 31.8764L154.18 38.3158C154.18 38.3603 154.158 38.3826 154.112 38.3826L151.972 38.3863C151.916 38.3863 151.889 38.3587 151.889 38.3034V18.0472C151.889 17.9961 151.914 17.9705 151.965 17.9705H154.109C154.155 17.9705 154.179 17.9936 154.179 18.0398L154.18 19.6115ZM163.408 24.3244C163.213 21.593 161.571 19.6599 158.728 19.5956C156.992 19.556 155.378 20.442 154.236 21.7588C154.197 21.8026 154.179 21.8529 154.179 21.9098V29.6252C154.179 29.6502 154.185 29.6745 154.196 29.6966C154.207 29.7185 154.223 29.7373 154.243 29.7514C155.323 30.5249 156.52 30.8629 157.842 30.9842C159.043 31.0931 160.13 30.8311 161.106 30.1983C163.024 28.9533 163.566 26.5596 163.408 24.3244Z" fill="white"/>
<path d="M182.957 32.093C179.809 30.4816 178.618 27.2527 179.071 23.8442C179.495 20.6561 181.722 18.2997 184.858 17.6277C187.242 17.1153 189.896 17.5435 191.835 19.0819C194.067 20.8554 194.861 23.6784 194.489 26.4618C193.89 30.9593 190.026 33.4024 185.692 32.8987C184.693 32.7832 183.781 32.5147 182.957 32.093ZM190.165 20.4767C188.811 19.442 186.958 19.1413 185.295 19.567C183.026 20.1487 181.608 21.9235 181.323 24.2712C180.948 27.3579 182.431 30.3046 185.671 30.9012C186.799 31.1091 187.863 31.0163 188.867 30.6227C191.562 29.5645 192.592 26.8975 192.21 24.1462C191.992 22.5736 191.31 21.3504 190.165 20.4767Z" fill="white"/>
<path d="M128.739 21.5112C128.739 21.583 128.754 21.5858 128.784 21.5199C129.514 19.9072 130.447 18.5916 132.168 17.9902C132.851 17.7509 133.593 17.5854 134.395 17.4939C134.442 17.488 134.466 17.5091 134.466 17.557V19.9914C134.466 20.0285 134.447 20.0475 134.41 20.0483C131.56 20.1003 129.77 21.4246 129.041 24.0211C128.835 24.7562 128.742 25.6127 128.741 26.4097C128.739 28.4155 128.739 30.3895 128.742 32.3317C128.742 32.3878 128.714 32.4159 128.658 32.4159H126.496C126.483 32.4159 126.472 32.4111 126.463 32.4025C126.455 32.3939 126.45 32.3822 126.45 32.3701V18.0174C126.45 18.0112 126.451 18.0051 126.453 17.9994C126.456 17.9937 126.459 17.9885 126.463 17.9841C126.468 17.9798 126.473 17.9763 126.478 17.9739C126.484 17.9716 126.49 17.9704 126.496 17.9704H128.674C128.718 17.9704 128.741 17.9926 128.741 18.0372L128.739 21.5112Z" fill="white"/>
<path d="M24.571 25.8949C24.5648 29.6622 27.0537 31.7996 30.7517 31.5929C32.5791 31.4914 34.2285 31.0372 35.6997 30.2303C35.7475 30.2048 35.7715 30.2188 35.7715 30.2724L35.7702 32.4073C35.7702 32.4601 35.7459 32.4973 35.6972 32.5187C32.8457 33.7464 29.1118 34.2043 26.2603 32.8578C24.0499 31.8145 22.6824 29.8516 22.3012 27.3887C22.0858 25.9985 22.1345 24.6681 22.4472 23.3974C23.3371 19.7761 26.3569 17.8726 29.9707 17.8392C34.4423 17.7971 37.0425 21.5756 37.0091 25.7452C37.0091 25.7906 36.9863 25.8132 36.941 25.8132H24.6539C24.5986 25.8132 24.571 25.8405 24.571 25.8949ZM31.9868 20.1895C31.7285 20.0781 31.472 19.9956 31.217 19.9419C29.7227 19.6284 28.3197 19.8459 27.0079 20.5942C25.7561 21.3088 24.9769 22.4375 24.67 23.9803C24.6576 24.0414 24.6827 24.0719 24.7455 24.0719H34.5363C34.599 24.0719 34.627 24.0414 34.6205 23.9803C34.4472 22.2637 33.5834 20.8763 31.9868 20.1895Z" fill="white"/>
<path d="M142.455 29.3653L147.268 17.9952C147.27 17.9882 147.275 17.9822 147.283 17.978C147.289 17.9738 147.296 17.9716 147.304 17.9717L149.51 17.9692C149.517 17.9692 149.523 17.9707 149.529 17.9736C149.534 17.9765 149.539 17.9809 149.542 17.9862C149.546 17.9914 149.549 17.9976 149.549 18.0039C149.55 18.0102 149.549 18.0166 149.546 18.0225L140.851 38.3591C140.848 38.366 140.843 38.3718 140.837 38.376C140.831 38.3803 140.823 38.3825 140.816 38.3826L138.606 38.3838C138.599 38.3837 138.593 38.3821 138.587 38.379C138.582 38.376 138.577 38.3717 138.575 38.3664C138.571 38.3612 138.568 38.3551 138.568 38.3489C138.567 38.3428 138.568 38.3364 138.571 38.3306L141.203 32.244C141.206 32.2393 141.206 32.2342 141.206 32.2291C141.206 32.2241 141.206 32.219 141.203 32.2143L135.137 18.0237C135.134 18.0179 135.133 18.0114 135.134 18.0051C135.134 17.9988 135.137 17.9928 135.14 17.9874C135.144 17.9821 135.149 17.9778 135.154 17.9748C135.16 17.972 135.166 17.9705 135.172 17.9705H137.594C137.602 17.9704 137.609 17.9726 137.616 17.9768C137.623 17.981 137.628 17.9869 137.63 17.994L142.384 29.3653C142.387 29.3722 142.392 29.3782 142.398 29.3822C142.404 29.3863 142.411 29.3885 142.419 29.3885C142.427 29.3885 142.434 29.3863 142.441 29.3822C142.447 29.3782 142.452 29.3722 142.455 29.3653Z" fill="white"/>
</g>
</g>
</g>
<defs>
<clipPath id="clip0_4_1389">
<rect width="199" height="50" fill="white" transform="translate(0.790039 0.187012)"/>
</clipPath>
<clipPath id="clip1_4_1389">
<rect width="199" height="50" fill="white" transform="translate(0.790039 0.187012)"/>
</clipPath>
<clipPath id="clip2_4_1389">
<rect width="188.861" height="50" fill="white" transform="translate(5.85934 0.187012)"/>
</clipPath>
</defs>
</svg>
