<svg width="200" height="38" viewBox="0 0 200 38" fill="none" xmlns="http://www.w3.org/2000/svg">
<g clip-path="url(#clip0_4_1319)">
<path d="M17.9173 17.4549C17.9437 16.925 17.9261 16.3928 17.9261 15.8601C17.9261 15.7639 17.9232 15.6672 17.9261 15.5708C17.9905 13.3122 17.5984 13.7889 19.898 13.8066C20.4396 13.8094 20.9952 13.9617 21.5102 14.143C22.4232 14.4649 22.6396 15.0644 22.5401 16.1326C22.4555 17.0335 21.7148 17.7502 20.8433 17.8175C20.0209 17.8848 19.1959 17.8642 18.3738 17.9053C18.0256 17.9231 17.8998 17.8086 17.9173 17.4549Z" fill="#FEFEFE"/>
<path d="M22.7449 23.7915C22.3005 24.0812 21.7387 24.2803 21.2088 24.3386C20.2962 24.4438 19.3628 24.3999 18.4412 24.4354C18.1164 24.447 17.9467 24.3826 17.9642 24.0051C17.9907 23.3761 17.9702 22.7471 17.9702 22.115H17.8882C17.9262 21.4188 17.7068 20.4506 18.0755 20.1081C18.4588 19.7512 19.4125 19.9414 20.1117 19.9969C20.8958 20.0558 21.6916 20.167 22.4524 20.3688C24.0323 20.7898 23.7981 23.113 22.7449 23.7915Z" fill="#FEFEFE"/>
<path d="M18.8799 5.99829C11.5887 6.17113 5.96538 12.344 6.02389 18.9235C5.84832 26.6822 12.4928 32.7174 19.819 32.3547C26.6041 32.0211 32.4527 26.4014 32.4733 19.2833C32.4939 11.5656 26.0658 5.82867 18.8799 5.99829ZM27.5667 22.241C27.5111 23.9731 26.9199 25.4679 25.1849 26.1262C24.2138 26.4949 23.1368 26.615 22.0983 26.7668C21.604 26.837 21.3638 26.9365 21.3989 27.4897C21.446 28.2387 21.3904 28.9933 21.4195 29.7452C21.4311 30.105 21.3054 30.1782 20.9661 30.19C19.3656 30.2455 19.3656 30.2572 19.3656 28.6391C19.3656 28.2503 19.3598 27.8611 19.3656 27.4748C19.3714 27.1061 19.4475 26.7318 18.8477 26.7729C18.3767 26.8051 17.8939 26.6967 17.9261 27.4308C17.9582 28.2065 17.9495 28.9844 17.9085 29.7596C17.8998 29.9059 17.6716 30.1488 17.5282 30.1633C15.8809 30.3245 15.8809 30.3156 15.8809 28.648C15.8809 28.2354 15.8254 27.82 15.8693 27.4135C15.9307 26.8547 15.644 26.7697 15.1875 26.7785C14.2396 26.8019 13.2916 26.7991 12.3407 26.808C12.2442 26.808 12.0657 26.8196 12.0657 26.8136C12.0131 26.2112 11.9516 25.6057 11.9545 24.9997C11.9574 24.8973 12.2208 24.725 12.3787 24.7072C14.1664 24.5053 14.2396 24.5142 14.2922 22.7414C14.3771 20.0263 14.3566 17.3115 14.3654 14.5939C14.3654 13.9472 14.0026 13.6547 13.3472 13.643C11.7029 13.6079 11.7234 13.5959 11.7497 11.9842C11.7584 11.5451 11.9165 11.4605 12.3027 11.481C12.8118 11.51 13.3267 11.4894 13.8358 11.4894V11.4488C14.4911 11.4488 15.4391 11.7063 15.7229 11.3815C16.0681 10.9895 15.8693 10.1087 15.8781 9.43869C15.8897 8.18687 15.8838 8.22756 17.1508 8.16915C17.8003 8.14295 17.9962 8.32144 17.9407 8.96206C17.8793 9.6611 17.9319 10.369 17.9232 11.0713C17.9144 11.8114 18.4732 11.4105 18.7717 11.4721C19.0525 11.5334 19.4066 11.6068 19.3773 11.0596C19.3305 10.261 19.3889 9.45643 19.3539 8.65786C19.3393 8.25697 19.4856 8.18687 19.8483 8.178C21.4105 8.14295 21.4049 8.13127 21.4138 9.69616C21.4138 10.2784 21.2409 10.9923 21.5161 11.3989C21.747 11.7413 22.5166 11.7091 23.0433 11.8642C23.4793 11.996 23.9153 12.1389 24.3395 12.3118C26.9144 13.3678 27.3588 16.2933 25.2083 18.0665C24.9129 18.309 24.79 18.4175 25.2671 18.6104C26.891 19.2659 27.6251 20.4155 27.5667 22.241Z" fill="#FEFEFE"/>
<path d="M19.2603 0.796876C9.14871 0.744216 0.640465 9.18439 0.792575 19.1459C0.622896 29.1044 8.99072 37.5505 19.1316 37.5771C29.2286 37.6033 37.3007 29.4819 37.6376 20.1027C38.0441 8.88584 29.208 0.846594 19.2603 0.796876ZM18.9209 36.0175C10.1376 35.8245 2.2438 28.5021 2.34034 19.0145C2.43105 10.1381 10.0937 1.94371 20.0037 2.38545C28.5411 2.76579 36.1922 9.91889 36.0515 19.2046C36.2913 28.581 27.8945 36.2165 18.9209 36.0175Z" fill="#FEFEFE"/>
<path d="M17.9173 17.4549C17.9437 16.925 17.9261 16.3928 17.9261 15.8601C17.9261 15.7639 17.9232 15.6672 17.9261 15.5708C17.9905 13.3122 17.5984 13.7889 19.898 13.8066C20.4396 13.8094 20.9952 13.9617 21.5102 14.143C22.4232 14.4649 22.6396 15.0644 22.5401 16.1326C22.4555 17.0335 21.7148 17.7502 20.8433 17.8175C20.0209 17.8848 19.1959 17.8642 18.3738 17.9053C18.0256 17.9231 17.8998 17.8086 17.9173 17.4549Z" fill="white"/>
<path d="M22.7449 23.7915C22.3005 24.0812 21.7387 24.2803 21.2088 24.3386C20.2962 24.4438 19.3628 24.3999 18.4412 24.4354C18.1164 24.447 17.9467 24.3826 17.9642 24.0051C17.9907 23.3761 17.9702 22.7471 17.9702 22.115H17.8882C17.9262 21.4188 17.7068 20.4506 18.0755 20.1081C18.4588 19.7512 19.4125 19.9414 20.1117 19.9969C20.8958 20.0558 21.6916 20.167 22.4524 20.3688C24.0323 20.7898 23.7981 23.113 22.7449 23.7915Z" fill="white"/>
<path d="M18.8799 5.99829C11.5887 6.17113 5.96538 12.344 6.02389 18.9235C5.84832 26.6822 12.4928 32.7174 19.819 32.3547C26.6041 32.0211 32.4527 26.4014 32.4733 19.2833C32.4939 11.5656 26.0658 5.82867 18.8799 5.99829ZM27.5667 22.241C27.5111 23.9731 26.9199 25.4679 25.1849 26.1262C24.2138 26.4949 23.1368 26.615 22.0983 26.7668C21.604 26.837 21.3638 26.9365 21.3989 27.4897C21.446 28.2387 21.3904 28.9933 21.4195 29.7452C21.4311 30.105 21.3054 30.1782 20.9661 30.19C19.3656 30.2455 19.3656 30.2572 19.3656 28.6391C19.3656 28.2503 19.3598 27.8611 19.3656 27.4748C19.3714 27.1061 19.4475 26.7318 18.8477 26.7729C18.3767 26.8051 17.8939 26.6967 17.9261 27.4308C17.9582 28.2065 17.9495 28.9844 17.9085 29.7596C17.8998 29.9059 17.6716 30.1488 17.5282 30.1633C15.8809 30.3245 15.8809 30.3156 15.8809 28.648C15.8809 28.2354 15.8254 27.82 15.8693 27.4135C15.9307 26.8547 15.644 26.7697 15.1875 26.7785C14.2396 26.8019 13.2916 26.7991 12.3407 26.808C12.2442 26.808 12.0657 26.8196 12.0657 26.8136C12.0131 26.2112 11.9516 25.6057 11.9545 24.9997C11.9574 24.8973 12.2208 24.725 12.3787 24.7072C14.1664 24.5053 14.2396 24.5142 14.2922 22.7414C14.3771 20.0263 14.3566 17.3115 14.3654 14.5939C14.3654 13.9472 14.0026 13.6547 13.3472 13.643C11.7029 13.6079 11.7234 13.5959 11.7497 11.9842C11.7584 11.5451 11.9165 11.4605 12.3027 11.481C12.8118 11.51 13.3267 11.4894 13.8358 11.4894V11.4488C14.4911 11.4488 15.4391 11.7063 15.7229 11.3815C16.0681 10.9895 15.8693 10.1087 15.8781 9.43869C15.8897 8.18687 15.8838 8.22756 17.1508 8.16915C17.8003 8.14295 17.9962 8.32144 17.9407 8.96206C17.8793 9.6611 17.9319 10.369 17.9232 11.0713C17.9144 11.8114 18.4732 11.4105 18.7717 11.4721C19.0525 11.5334 19.4066 11.6068 19.3773 11.0596C19.3305 10.261 19.3889 9.45643 19.3539 8.65786C19.3393 8.25697 19.4856 8.18687 19.8483 8.178C21.4105 8.14295 21.4049 8.13127 21.4138 9.69616C21.4138 10.2784 21.2409 10.9923 21.5161 11.3989C21.747 11.7413 22.5166 11.7091 23.0433 11.8642C23.4793 11.996 23.9153 12.1389 24.3395 12.3118C26.9144 13.3678 27.3588 16.2933 25.2083 18.0665C24.9129 18.309 24.79 18.4175 25.2671 18.6104C26.891 19.2659 27.6251 20.4155 27.5667 22.241Z" fill="white"/>
<path d="M19.2603 0.796876C9.14871 0.744216 0.640465 9.18439 0.792575 19.1459C0.622896 29.1044 8.99072 37.5505 19.1316 37.5771C29.2286 37.6033 37.3007 29.4819 37.6376 20.1027C38.0441 8.88584 29.208 0.846594 19.2603 0.796876ZM18.9209 36.0175C10.1376 35.8245 2.2438 28.5021 2.34034 19.0145C2.43105 10.1381 10.0937 1.94371 20.0037 2.38545C28.5411 2.76579 36.1922 9.91889 36.0515 19.2046C36.2913 28.581 27.8945 36.2165 18.9209 36.0175Z" fill="white"/>
<path d="M58.6388 19.5089C58.5747 19.4766 58.5102 19.4443 58.4457 19.4121C58.5042 19.377 58.5626 19.3448 58.6214 19.3098C60.3504 18.2945 60.9181 16.9782 60.4527 15.0503C60.1164 13.649 58.8756 12.6276 57.0121 12.5019C54.733 12.344 52.4419 12.3674 50.1568 12.2883C49.6684 12.271 49.7475 12.5664 49.7475 12.85V19.8392C49.7475 22.1474 49.762 24.4529 49.7357 26.7583C49.7298 27.241 49.8671 27.3667 50.3414 27.355C51.655 27.3228 52.9714 27.3784 54.2854 27.3317C55.3999 27.2938 56.5321 27.2616 57.6177 27.042C59.4289 26.6733 60.7075 25.3042 60.8916 23.7538C61.1607 21.4835 60.6663 20.5531 58.6388 19.5089ZM53.0008 16.7058C53.0008 14.9358 53.0008 14.9274 54.7564 14.9713C55.1658 14.983 55.5812 15.0297 55.9821 15.1176C56.7957 15.2928 57.2023 15.7699 57.2256 16.5012C57.2518 17.2852 56.8747 17.8383 56.0757 18.037C55.5406 18.1688 54.9788 18.1865 54.4284 18.2538C53.4767 18.2244 53.0008 17.7329 53.0008 16.7791V16.7058ZM56.0494 24.5146C55.1425 24.643 54.212 24.6108 53.2905 24.6137C53.1938 24.6137 53.0242 24.3827 53.0153 24.2539C52.9831 23.7216 53.0036 23.1889 53.0036 22.6567C52.992 22.6567 52.9802 22.6567 52.9686 22.6534C53.0036 22.0568 52.8167 21.2349 53.1326 20.9275C53.4541 20.6205 54.2737 20.8046 54.8733 20.8106C55.2597 20.8162 55.6485 20.8634 56.0261 20.9392C57.0415 21.141 57.5476 21.7348 57.5448 22.6712C57.5415 23.666 57.0443 24.3711 56.0494 24.5146Z" fill="#FEFEFE"/>
<path d="M66.8695 16.2754C66.855 19.8186 66.855 23.3585 66.8668 26.9012C66.8695 27.2582 66.7466 27.3577 66.4041 27.3489C65.6494 27.3283 64.8947 27.3166 64.1429 27.3545C63.6952 27.375 63.6335 27.1966 63.6363 26.8106C63.6569 25.064 63.6452 23.3174 63.6452 21.5708C63.6452 19.8243 63.6569 18.0776 63.6363 16.331C63.6307 15.9217 63.7448 15.7871 64.1602 15.8077C64.8887 15.8399 65.62 15.8282 66.3485 15.8105C66.6966 15.8016 66.8723 15.8601 66.8695 16.2754Z" fill="#FEFEFE"/>
<path d="M66.9981 12.8735C67.0041 13.8683 66.3662 14.4534 65.2573 14.4622C64.1223 14.4739 63.5195 13.9356 63.5167 12.9058C63.5106 11.8587 64.0901 11.3232 65.2312 11.3172C66.3517 11.3115 66.9924 11.876 66.9981 12.8735Z" fill="#FEFEFE"/>
<path d="M76.9687 25.7193C76.9687 27.1705 76.9747 27.2346 75.5205 27.4131C74.6163 27.5242 73.6715 27.4953 72.7672 27.3691C71.4798 27.1939 70.7397 26.3075 70.5644 25.0786C70.3947 23.8848 70.4004 22.6653 70.3303 21.4537C70.3536 21.4537 70.3742 21.4537 70.3976 21.4509C70.3976 20.6024 70.3681 19.751 70.4064 18.9029C70.4326 18.3908 70.3391 18.1394 69.748 18.2095C69.4816 18.2418 68.9522 18.0689 68.955 18.0222C68.9989 17.5189 68.5981 16.8521 69.3499 16.5653C70.462 16.1382 70.9798 15.2546 71.2256 14.1781C71.3746 13.5286 71.6906 13.3005 72.384 13.3412C73.613 13.4118 73.6158 13.3618 73.6158 14.6168C73.6158 15.8719 73.6158 15.8163 74.8419 15.8163H74.9883C75.5878 15.8428 76.4247 15.641 76.7229 15.9537C77.0303 16.2784 76.799 17.0979 76.8402 17.6975C76.8695 18.1011 76.7466 18.2534 76.3224 18.2357C75.5939 18.2035 74.8593 18.2502 74.1308 18.2151C73.7008 18.1978 73.6042 18.3497 73.607 18.7534C73.6303 20.3538 73.6013 21.9569 73.6219 23.56C73.6364 24.5548 74.1747 25.0231 75.1607 24.9529C75.4271 24.9352 75.6934 24.9002 75.9565 24.8506C76.9687 24.6572 76.9687 24.6543 76.9687 25.7193Z" fill="#FEFEFE"/>
<path d="M81.8201 20.9682C81.7851 21.6615 81.8261 22.3815 81.9635 23.0628C82.2211 24.3445 83.0725 25.0202 84.3659 24.88C85.2141 24.7889 86.0743 24.5375 86.8556 24.1922C87.4552 23.9292 87.4903 24.0754 87.4585 24.5903C87.4318 25.0025 87.3996 25.4239 87.4641 25.8277C87.5841 26.5795 87.2127 26.9424 86.5631 27.1443C84.8398 27.6826 83.1019 27.7322 81.4107 27.1032C79.5177 26.401 78.827 24.8038 78.5845 22.9489C78.5289 22.5189 78.5317 22.077 78.5112 21.6615C78.5667 19.2688 79.0934 17.1269 81.5509 16.0858C83.1543 15.4069 84.8337 15.4681 86.4926 15.8895C87.8739 16.2405 87.8678 16.2638 87.3734 17.56C87.0418 18.4279 86.4322 18.7196 85.5449 18.4347C83.3388 17.7328 81.9374 18.666 81.8201 20.9682Z" fill="#FEFEFE"/>
<path d="M100.492 20.6962C100.308 18.581 99.4069 16.8227 97.318 16.0419C95.1881 15.2461 93.0522 15.3425 91.1885 16.826C89.7166 17.9988 89.3745 19.6753 89.3479 20.9098C89.1694 25.0231 91.3638 27.4775 94.7723 27.5246C96.6653 27.5509 98.3246 27.0449 99.4742 25.4212C100.487 23.9904 100.639 22.355 100.492 20.6962ZM96.9727 23.4755C96.6891 24.4469 95.9662 24.9385 94.9569 24.9473C93.9446 24.9558 93.2246 24.4847 92.9059 23.5194C92.4755 22.2176 92.4699 20.8925 92.903 19.5903C93.2129 18.66 93.9181 18.1979 94.9012 18.189C95.8989 18.1806 96.6773 18.6717 96.9611 19.6109C97.1541 20.2547 97.2125 20.9364 97.3265 21.577C97.2069 22.2439 97.1484 22.876 96.9727 23.4755Z" fill="#FEFEFE"/>
<path d="M106.288 26.7548C106.294 27.2286 106.169 27.3837 105.684 27.3547C104.981 27.3109 104.273 27.3253 103.568 27.3515C103.205 27.3632 103.053 27.2814 103.056 26.8777C103.07 23.3377 103.067 19.8006 103.056 16.2608C103.056 15.9098 103.167 15.7986 103.515 15.8075C104.27 15.8309 105.025 15.8425 105.777 15.8046C106.228 15.7813 106.288 15.9742 106.283 16.3546C106.268 18.1012 106.277 19.8478 106.277 21.5911C106.277 23.3349 106.262 25.0348 106.288 26.7548Z" fill="#FEFEFE"/>
<path d="M106.411 12.8472C106.429 13.8915 105.82 14.4504 104.641 14.4682C103.568 14.4827 102.965 13.9298 102.956 12.9291C102.95 11.838 103.509 11.3259 104.715 11.317C105.805 11.3086 106.391 11.838 106.411 12.8472Z" fill="#FEFEFE"/>
<path d="M120.073 18.9614C120.175 21.6266 120.131 24.3007 120.119 26.9715C120.116 27.0944 119.851 27.3197 119.695 27.3257C118.943 27.3635 118.185 27.3168 117.431 27.3519C116.991 27.3724 116.913 27.1996 116.915 26.8076C116.932 24.9384 116.924 23.069 116.921 21.1995C116.918 20.787 116.915 20.3716 116.878 19.9618C116.79 18.9703 116.318 18.3764 115.517 18.2068C114.578 18.0077 113.516 18.4142 113.182 19.2773C112.898 20.0057 112.735 20.8164 112.699 21.5972C112.626 23.2943 112.64 24.9969 112.682 26.6936C112.696 27.264 112.521 27.3958 111.991 27.3547C111.386 27.308 110.771 27.308 110.165 27.3547C109.616 27.3958 109.416 27.2552 109.431 26.6557C109.478 24.9558 109.449 23.256 109.449 21.5565C109.449 19.8566 109.464 18.1072 109.437 16.384C109.431 15.9509 109.528 15.7434 109.996 15.8107C110.186 15.8397 110.385 15.8164 110.578 15.8164C111.816 15.8164 111.822 15.8135 112.254 16.9456C112.357 17.2092 112.422 17.3083 112.659 17.0335C114.083 15.3893 115.926 15.3425 117.808 15.8808C119.273 16.299 120.017 17.5074 120.073 18.9614Z" fill="#FEFEFE"/>
<path d="M132.313 26.8691C132.313 27.2639 132.185 27.3634 131.811 27.3518C131.082 27.3228 130.348 27.3106 129.619 27.3546C129.137 27.3812 129.013 27.2233 129.019 26.749C129.043 24.4203 129.029 22.0919 129.029 19.763C129.029 17.4343 129.046 15.2021 129.016 12.923C129.01 12.408 129.157 12.2562 129.666 12.2851C130.394 12.3263 131.126 12.3118 131.854 12.288C132.209 12.2795 132.311 12.408 132.311 12.7505C132.302 17.4576 132.302 22.1648 132.313 26.8691Z" fill="#FEFEFE"/>
<path d="M146.431 26.8724C146.434 27.2584 146.316 27.3668 145.939 27.3519C145.211 27.3229 144.476 27.3112 143.751 27.3551C143.286 27.3813 143.187 27.2262 143.189 26.7846C143.215 24.7951 143.204 22.8059 143.198 20.8163C143.198 20.4538 143.192 20.085 143.122 19.7309C142.931 18.7567 142.458 18.2829 141.635 18.1861C140.693 18.075 139.76 18.4703 139.444 19.2833C139.186 19.9445 139.017 20.679 138.991 21.3897C138.923 23.1568 138.944 24.9296 138.969 26.7024C138.975 27.1823 138.896 27.3958 138.352 27.3551C137.673 27.3023 136.986 27.3052 136.308 27.3551C135.795 27.3929 135.723 27.1855 135.728 26.7434C135.751 25.0202 135.74 23.297 135.74 21.5742C135.74 19.851 135.751 18.0811 135.728 16.3344C135.725 15.9279 135.827 15.7667 136.249 15.8107C136.562 15.8429 136.89 15.8634 137.197 15.8079C137.996 15.6644 138.414 15.9746 138.51 16.7732C138.529 16.9283 138.637 17.0718 138.704 17.2208C138.823 17.1068 138.952 16.9984 139.064 16.8755C140.679 15.0734 144.368 15.1321 145.644 17.0718C146.085 17.7417 146.346 18.6427 146.378 19.4502C146.471 21.9191 146.411 24.3974 146.431 26.8724Z" fill="#FEFEFE"/>
<path d="M157.637 24.5931C157.414 26.0033 156.367 27.0392 154.796 27.3317C154.082 27.463 153.347 27.5013 152.341 27.6124C151.524 27.4573 150.453 27.2644 149.389 27.0448C149.219 27.0098 148.939 26.8724 148.936 26.7696C148.892 25.9976 148.903 25.2192 148.926 24.444C148.926 24.4235 149.26 24.3707 149.424 24.4058C150.509 24.6459 151.589 24.915 152.674 25.1492C152.905 25.1987 153.201 25.222 153.395 25.1225C153.775 24.9268 154.255 24.7103 154.421 24.3707C154.671 23.8618 154.187 23.5282 153.769 23.3175C152.754 22.8026 151.712 22.3405 150.694 21.8284C149.307 21.1354 148.778 19.971 148.912 18.467C149.041 17.0334 150.08 16.0474 151.879 15.7345C153.669 15.4185 155.413 15.6354 157.11 16.2965C157.461 16.4339 157.616 16.5685 157.405 16.9721C157.115 17.5282 157.046 18.3763 156.607 18.6221C156.238 18.8356 155.486 18.3473 154.895 18.2211C154.375 18.1132 153.831 17.9903 153.313 18.0399C152.905 18.0809 152.303 18.2829 152.18 18.5753C151.952 19.1224 152.532 19.3945 152.964 19.614C153.395 19.8365 153.851 20.0089 154.293 20.2079C154.778 20.4271 155.275 20.6289 155.747 20.8747C157.301 21.6853 157.906 22.8964 157.637 24.5931Z" fill="#FEFEFE"/>
<path d="M163.254 16.2991C163.24 19.8185 163.24 23.3379 163.254 26.8573C163.254 27.223 163.178 27.3694 162.776 27.3516C162.048 27.3194 161.314 27.3166 160.586 27.3516C160.135 27.375 160.009 27.2376 160.018 26.7871C160.045 25.0405 160.027 23.2912 160.027 21.5446C160.027 19.7979 160.045 18.0981 160.018 16.3749C160.009 15.9273 160.129 15.7842 160.583 15.8076C161.311 15.8427 162.046 15.8398 162.774 15.8076C163.173 15.7899 163.254 15.9273 163.254 16.2991Z" fill="#FEFEFE"/>
<path d="M163.386 12.8295C163.407 13.8915 162.821 14.4386 161.63 14.4649C160.572 14.491 159.933 13.9265 159.91 12.9463C159.89 11.8875 160.487 11.3343 161.674 11.3169C162.768 11.3025 163.368 11.829 163.386 12.8295Z" fill="#FEFEFE"/>
<path d="M176.59 19.3388C176.59 16.8638 176.581 14.3915 176.599 11.9168C176.605 11.4661 176.517 11.2702 176.008 11.3053C175.28 11.352 174.548 11.3315 173.82 11.3109C173.471 11.2992 173.346 11.4076 173.358 11.7617C173.407 13.3589 173.439 14.9592 173.48 16.5595C173.483 16.703 173.498 16.8432 173.51 16.9866C173.381 16.8988 173.234 16.8287 173.126 16.7235C171.306 14.9213 168.052 15.2929 166.756 17.4959C165.527 19.5874 165.527 21.8755 166.099 24.1193C167.023 27.741 170.577 28.689 173.24 26.1028C173.53 25.8191 173.6 25.977 173.641 26.2257C173.825 27.3111 174.545 27.4952 175.481 27.3461C175.622 27.3227 175.774 27.3227 175.917 27.3461C176.455 27.4368 176.613 27.2438 176.605 26.6877C176.573 24.2393 176.59 21.7876 176.59 19.3388ZM173.302 23.6333C173.026 24.5085 172.36 24.8972 171.49 24.9589C170.616 25.0201 169.861 24.7276 169.519 23.8908C169.235 23.1889 169.115 22.4194 168.91 21.6382C169.112 20.8484 169.235 20.0584 169.519 19.3271C169.832 18.5285 170.528 18.1772 171.394 18.2272C172.295 18.28 173 18.672 173.284 19.5612C173.708 20.9097 173.727 22.276 173.302 23.6333Z" fill="#FEFEFE"/>
<path d="M189.308 18.5113C188.618 16.4456 186.882 15.6644 184.799 15.6088C182.228 15.5358 180.223 16.5891 179.437 19.1575C178.96 20.714 178.948 22.3055 179.402 23.8825C179.881 25.544 180.981 26.6677 182.609 27.1738C184.436 27.7411 186.295 27.6214 188.144 27.1326C188.91 26.9308 189.238 26.5593 189.109 25.7692C189.054 25.4389 189.077 25.0907 189.109 24.7515C189.144 24.295 189.03 24.2773 188.589 24.3945C187.448 24.6987 186.289 25.0235 185.121 25.1081C183.682 25.2076 182.672 24.3039 182.409 22.9755C182.333 22.5923 182.342 22.3554 182.874 22.3788C183.919 22.4255 184.966 22.3933 186.014 22.3933C187.061 22.3933 188.205 22.405 189.3 22.3788C189.449 22.3788 189.724 22.1797 189.717 22.0891C189.618 20.8897 189.686 19.6286 189.311 18.5113H189.308ZM186.33 20.2257C185.748 20.2108 185.163 20.2196 184.58 20.2196C183.998 20.2196 183.413 20.2108 182.83 20.2257C182.526 20.2314 182.415 20.1757 182.471 19.8188C182.652 18.6692 183.468 17.8997 184.574 17.8969C185.698 17.8969 186.514 18.6515 186.684 19.8014C186.733 20.1318 186.654 20.2341 186.33 20.2257Z" fill="#FEFEFE"/>
<path d="M199.772 16.1968C199.742 16.3402 199.747 16.4893 199.736 16.6327C199.687 17.2383 199.836 17.9958 199.523 18.3966C199.276 18.7097 198.455 18.5517 197.895 18.6453C196.398 18.8971 195.564 19.7572 195.497 21.2987C195.418 23.1126 195.444 24.9353 195.461 26.7549C195.468 27.2259 195.342 27.3899 194.856 27.3549C194.251 27.3109 193.636 27.3021 193.031 27.3549C192.416 27.4104 192.194 27.2581 192.217 26.5853C192.275 24.912 192.237 23.2355 192.237 21.5623C192.237 19.8886 192.264 18.1658 192.223 16.4687C192.208 15.8982 192.392 15.7257 192.919 15.8136C193.016 15.8281 193.115 15.8164 193.212 15.8164C194.172 15.8164 194.779 16.2749 195.035 17.1916C195.075 17.3378 195.154 17.4752 195.216 17.6158C195.33 17.5014 195.458 17.3962 195.555 17.2673C196.488 16.0155 197.723 15.4594 199.292 15.6117C199.707 15.6496 199.845 15.8076 199.772 16.1968Z" fill="#FEFEFE"/>
<path d="M58.6388 19.5089C58.5747 19.4766 58.5102 19.4443 58.4457 19.4121C58.5042 19.377 58.5626 19.3448 58.6214 19.3098C60.3504 18.2945 60.9181 16.9782 60.4527 15.0503C60.1164 13.649 58.8756 12.6276 57.0121 12.5019C54.733 12.344 52.4419 12.3674 50.1568 12.2883C49.6684 12.271 49.7475 12.5664 49.7475 12.85V19.8392C49.7475 22.1474 49.762 24.4529 49.7357 26.7583C49.7298 27.241 49.8671 27.3667 50.3414 27.355C51.655 27.3228 52.9714 27.3784 54.2854 27.3317C55.3999 27.2938 56.5321 27.2616 57.6177 27.042C59.4289 26.6733 60.7075 25.3042 60.8916 23.7538C61.1607 21.4835 60.6663 20.5531 58.6388 19.5089ZM53.0008 16.7058C53.0008 14.9358 53.0008 14.9274 54.7564 14.9713C55.1658 14.983 55.5812 15.0297 55.9821 15.1176C56.7957 15.2928 57.2023 15.7699 57.2256 16.5012C57.2518 17.2852 56.8747 17.8383 56.0757 18.037C55.5406 18.1688 54.9788 18.1865 54.4284 18.2538C53.4767 18.2244 53.0008 17.7329 53.0008 16.7791V16.7058ZM56.0494 24.5146C55.1425 24.643 54.212 24.6108 53.2905 24.6137C53.1938 24.6137 53.0242 24.3827 53.0153 24.2539C52.9831 23.7216 53.0036 23.1889 53.0036 22.6567C52.992 22.6567 52.9802 22.6567 52.9686 22.6534C53.0036 22.0568 52.8167 21.2349 53.1326 20.9275C53.4541 20.6205 54.2737 20.8046 54.8733 20.8106C55.2597 20.8162 55.6485 20.8634 56.0261 20.9392C57.0415 21.141 57.5476 21.7348 57.5448 22.6712C57.5415 23.666 57.0443 24.3711 56.0494 24.5146Z" fill="white"/>
<path d="M176.59 19.3388C176.59 16.8638 176.581 14.3915 176.599 11.9168C176.605 11.4661 176.517 11.2702 176.008 11.3053C175.28 11.352 174.548 11.3315 173.82 11.3109C173.471 11.2992 173.346 11.4076 173.358 11.7617C173.407 13.3589 173.439 14.9592 173.48 16.5595C173.483 16.703 173.498 16.8432 173.51 16.9866C173.381 16.8988 173.234 16.8287 173.126 16.7235C171.306 14.9213 168.052 15.2929 166.756 17.4959C165.527 19.5874 165.527 21.8755 166.099 24.1193C167.023 27.741 170.577 28.689 173.24 26.1028C173.53 25.8191 173.6 25.977 173.641 26.2257C173.825 27.3111 174.545 27.4952 175.481 27.3461C175.622 27.3227 175.774 27.3227 175.917 27.3461C176.455 27.4368 176.613 27.2438 176.605 26.6877C176.573 24.2393 176.59 21.7876 176.59 19.3388ZM173.302 23.6333C173.026 24.5085 172.36 24.8972 171.49 24.9589C170.616 25.0201 169.861 24.7276 169.519 23.8908C169.235 23.1889 169.115 22.4194 168.91 21.6382C169.112 20.8484 169.235 20.0584 169.519 19.3271C169.832 18.5285 170.528 18.1772 171.394 18.2272C172.295 18.28 173 18.672 173.284 19.5612C173.708 20.9097 173.727 22.276 173.302 23.6333Z" fill="white"/>
<path d="M120.119 26.9715C120.116 27.0944 119.851 27.3197 119.695 27.3257C118.943 27.3635 118.185 27.3168 117.431 27.3519C116.991 27.3724 116.913 27.1996 116.915 26.8076C116.932 24.9384 116.924 23.069 116.921 21.1995C116.918 20.787 116.915 20.3716 116.878 19.9618C116.79 18.9703 116.318 18.3764 115.517 18.2068C114.578 18.0077 113.516 18.4142 113.182 19.2773C112.898 20.0057 112.735 20.8164 112.699 21.5972C112.626 23.2943 112.64 24.9969 112.682 26.6936C112.696 27.264 112.521 27.3958 111.991 27.3547C111.386 27.308 110.771 27.308 110.165 27.3547C109.616 27.3958 109.416 27.2552 109.431 26.6557C109.478 24.9558 109.449 23.256 109.449 21.5565C109.449 19.8566 109.464 18.1072 109.437 16.384C109.431 15.9509 109.528 15.7434 109.996 15.8107C110.186 15.8397 110.385 15.8164 110.578 15.8164C111.816 15.8164 111.822 15.8135 112.254 16.9456C112.357 17.2092 112.422 17.3083 112.659 17.0335C114.083 15.3893 115.926 15.3425 117.808 15.8808C119.273 16.299 120.017 17.5074 120.073 18.9614C120.175 21.6266 120.131 24.3007 120.119 26.9715Z" fill="white"/>
<path d="M100.492 20.6962C100.308 18.581 99.4069 16.8227 97.318 16.0419C95.1881 15.2461 93.0522 15.3425 91.1885 16.826C89.7166 17.9988 89.3745 19.6753 89.3479 20.9098C89.1694 25.0231 91.3638 27.4775 94.7723 27.5246C96.6653 27.5509 98.3246 27.0449 99.4742 25.4212C100.487 23.9904 100.639 22.355 100.492 20.6962ZM96.9727 23.4755C96.6891 24.4469 95.9662 24.9385 94.9569 24.9473C93.9446 24.9558 93.2246 24.4847 92.9059 23.5194C92.4755 22.2176 92.4699 20.8925 92.903 19.5903C93.2129 18.66 93.9181 18.1979 94.9012 18.189C95.8989 18.1806 96.6773 18.6717 96.9611 19.6109C97.1541 20.2547 97.2125 20.9364 97.3265 21.577C97.2069 22.2439 97.1484 22.876 96.9727 23.4755Z" fill="white"/>
<path d="M146.431 26.8724C146.434 27.2584 146.316 27.3668 145.939 27.3519C145.211 27.3229 144.476 27.3112 143.751 27.3551C143.286 27.3813 143.187 27.2262 143.189 26.7846C143.215 24.7951 143.204 22.8059 143.198 20.8163C143.198 20.4538 143.192 20.085 143.122 19.7309C142.931 18.7567 142.458 18.2829 141.635 18.1861C140.693 18.075 139.76 18.4703 139.444 19.2833C139.186 19.9445 139.017 20.679 138.991 21.3897C138.923 23.1568 138.944 24.9296 138.969 26.7024C138.975 27.1823 138.896 27.3958 138.352 27.3551C137.673 27.3023 136.986 27.3052 136.308 27.3551C135.795 27.3929 135.723 27.1855 135.728 26.7434C135.751 25.0202 135.74 23.297 135.74 21.5742C135.74 19.851 135.751 18.0811 135.728 16.3344C135.725 15.9279 135.827 15.7667 136.249 15.8107C136.562 15.8429 136.89 15.8634 137.197 15.8079C137.996 15.6644 138.414 15.9746 138.51 16.7732C138.529 16.9283 138.637 17.0718 138.704 17.2208C138.823 17.1068 138.952 16.9984 139.064 16.8755C140.679 15.0734 144.368 15.1321 145.644 17.0718C146.085 17.7417 146.346 18.6427 146.378 19.4502C146.471 21.9191 146.411 24.3974 146.431 26.8724Z" fill="white"/>
<path d="M189.308 18.5113C188.618 16.4456 186.882 15.6644 184.799 15.6088C182.228 15.5358 180.223 16.5891 179.437 19.1575C178.96 20.714 178.948 22.3055 179.402 23.8825C179.881 25.544 180.981 26.6677 182.609 27.1738C184.436 27.7411 186.295 27.6214 188.144 27.1326C188.91 26.9308 189.238 26.5593 189.109 25.7692C189.054 25.4389 189.077 25.0907 189.109 24.7515C189.144 24.295 189.03 24.2773 188.589 24.3945C187.448 24.6987 186.289 25.0235 185.121 25.1081C183.682 25.2076 182.672 24.3039 182.409 22.9755C182.333 22.5923 182.342 22.3554 182.874 22.3788C183.919 22.4255 184.966 22.3933 186.014 22.3933C187.061 22.3933 188.205 22.405 189.3 22.3788C189.449 22.3788 189.724 22.1797 189.717 22.0891C189.618 20.8897 189.686 19.6286 189.311 18.5113H189.308ZM186.33 20.2257C185.748 20.2108 185.163 20.2196 184.58 20.2196C183.998 20.2196 183.413 20.2108 182.83 20.2257C182.526 20.2314 182.415 20.1757 182.471 19.8188C182.652 18.6692 183.468 17.8997 184.574 17.8969C185.698 17.8969 186.514 18.6515 186.684 19.8014C186.733 20.1318 186.654 20.2341 186.33 20.2257Z" fill="white"/>
<path d="M157.637 24.5931C157.414 26.0033 156.367 27.0392 154.796 27.3317C154.082 27.463 153.347 27.5013 152.341 27.6124C151.524 27.4573 150.453 27.2644 149.389 27.0448C149.219 27.0098 148.939 26.8724 148.936 26.7696C148.892 25.9976 148.903 25.2192 148.926 24.444C148.926 24.4235 149.26 24.3707 149.424 24.4058C150.509 24.6459 151.589 24.915 152.674 25.1492C152.905 25.1987 153.201 25.222 153.395 25.1225C153.775 24.9268 154.255 24.7103 154.421 24.3707C154.671 23.8618 154.187 23.5282 153.769 23.3175C152.754 22.8026 151.712 22.3405 150.694 21.8284C149.307 21.1354 148.778 19.971 148.912 18.467C149.041 17.0334 150.08 16.0474 151.879 15.7345C153.669 15.4185 155.413 15.6354 157.11 16.2965C157.461 16.4339 157.616 16.5685 157.405 16.9721C157.115 17.5282 157.046 18.3763 156.607 18.6221C156.238 18.8356 155.486 18.3473 154.895 18.2211C154.375 18.1132 153.831 17.9903 153.313 18.0399C152.905 18.0809 152.303 18.2829 152.18 18.5753C151.952 19.1224 152.532 19.3945 152.964 19.614C153.395 19.8365 153.851 20.0089 154.293 20.2079C154.778 20.4271 155.275 20.6289 155.747 20.8747C157.301 21.6853 157.906 22.8964 157.637 24.5931Z" fill="white"/>
<path d="M87.4641 25.8277C87.5841 26.5795 87.2127 26.9424 86.5631 27.1443C84.8398 27.6826 83.1019 27.7322 81.4107 27.1032C79.5177 26.401 78.827 24.8038 78.5845 22.9489C78.5289 22.5189 78.5317 22.077 78.5112 21.6615C78.5667 19.2688 79.0934 17.1269 81.5509 16.0858C83.1543 15.4069 84.8337 15.4681 86.4926 15.8895C87.8739 16.2405 87.8678 16.2638 87.3734 17.56C87.0418 18.4279 86.4322 18.7196 85.5449 18.4347C83.3388 17.7328 81.9374 18.666 81.8201 20.9682C81.7851 21.6615 81.8261 22.3815 81.9635 23.0628C82.2211 24.3445 83.0725 25.0202 84.3659 24.88C85.2141 24.7889 86.0743 24.5375 86.8556 24.1922C87.4552 23.9292 87.4903 24.0754 87.4585 24.5903C87.4318 25.0025 87.3996 25.4239 87.4641 25.8277Z" fill="white"/>
<path d="M76.9687 25.7193C76.9687 27.1705 76.9747 27.2346 75.5205 27.4131C74.6163 27.5242 73.6715 27.4953 72.7672 27.3691C71.4798 27.1939 70.7397 26.3075 70.5644 25.0786C70.3947 23.8848 70.4004 22.6653 70.3303 21.4537C70.3536 21.4537 70.3742 21.4537 70.3976 21.4509C70.3976 20.6024 70.3681 19.751 70.4064 18.9029C70.4326 18.3908 70.3391 18.1394 69.748 18.2095C69.4816 18.2418 68.9522 18.0689 68.955 18.0222C68.9989 17.5189 68.5981 16.8521 69.3499 16.5653C70.462 16.1382 70.9798 15.2546 71.2256 14.1781C71.3746 13.5286 71.6906 13.3005 72.384 13.3412C73.613 13.4118 73.6158 13.3618 73.6158 14.6168C73.6158 15.8719 73.6158 15.8163 74.8419 15.8163H74.9883C75.5878 15.8428 76.4247 15.641 76.7229 15.9537C77.0303 16.2784 76.799 17.0979 76.8402 17.6975C76.8695 18.1011 76.7466 18.2534 76.3224 18.2357C75.5939 18.2035 74.8593 18.2502 74.1308 18.2151C73.7008 18.1978 73.6042 18.3497 73.607 18.7534C73.6303 20.3538 73.6013 21.9569 73.6219 23.56C73.6364 24.5548 74.1747 25.0231 75.1607 24.9529C75.4271 24.9352 75.6934 24.9002 75.9565 24.8506C76.9687 24.6572 76.9687 24.6543 76.9687 25.7193Z" fill="white"/>
<path d="M132.313 26.8691C132.313 27.2639 132.185 27.3634 131.811 27.3518C131.082 27.3228 130.348 27.3106 129.619 27.3546C129.137 27.3812 129.013 27.2233 129.019 26.749C129.043 24.4203 129.029 22.0919 129.029 19.763C129.029 17.4343 129.046 15.2021 129.016 12.923C129.01 12.408 129.157 12.2562 129.666 12.2851C130.394 12.3263 131.126 12.3118 131.854 12.288C132.209 12.2795 132.311 12.408 132.311 12.7505C132.302 17.4576 132.302 22.1648 132.313 26.8691Z" fill="white"/>
<path d="M199.772 16.1968C199.742 16.3402 199.747 16.4893 199.736 16.6327C199.687 17.2383 199.836 17.9958 199.523 18.3966C199.276 18.7097 198.455 18.5517 197.895 18.6453C196.398 18.8971 195.564 19.7572 195.497 21.2987C195.418 23.1126 195.444 24.9353 195.461 26.7549C195.468 27.2259 195.342 27.3899 194.856 27.3549C194.251 27.3109 193.636 27.3021 193.031 27.3549C192.416 27.4104 192.194 27.2581 192.217 26.5853C192.275 24.912 192.237 23.2355 192.237 21.5623C192.237 19.8886 192.264 18.1658 192.223 16.4687C192.208 15.8982 192.392 15.7257 192.919 15.8136C193.016 15.8281 193.115 15.8164 193.212 15.8164C194.172 15.8164 194.779 16.2749 195.035 17.1916C195.075 17.3378 195.154 17.4752 195.216 17.6158C195.33 17.5014 195.458 17.3962 195.555 17.2673C196.488 16.0155 197.723 15.4594 199.292 15.6117C199.707 15.6496 199.845 15.8076 199.772 16.1968Z" fill="white"/>
<path d="M106.288 26.7548C106.294 27.2286 106.169 27.3837 105.684 27.3547C104.981 27.3109 104.273 27.3253 103.568 27.3515C103.205 27.3632 103.053 27.2814 103.056 26.8777C103.07 23.3377 103.067 19.8006 103.056 16.2608C103.056 15.9098 103.167 15.7986 103.515 15.8075C104.27 15.8309 105.025 15.8425 105.777 15.8046C106.228 15.7813 106.288 15.9742 106.283 16.3546C106.268 18.1012 106.277 19.8478 106.277 21.5911C106.277 23.3349 106.262 25.0348 106.288 26.7548Z" fill="white"/>
<path d="M66.8668 26.9012C66.8695 27.2582 66.7466 27.3577 66.4041 27.3489C65.6494 27.3283 64.8947 27.3166 64.1429 27.3545C63.6952 27.375 63.6335 27.1966 63.6363 26.8106C63.6569 25.064 63.6452 23.3174 63.6452 21.5708C63.6452 19.8243 63.6569 18.0776 63.6363 16.331C63.6307 15.9217 63.7448 15.7871 64.1602 15.8077C64.8887 15.8399 65.62 15.8282 66.3485 15.8105C66.6966 15.8016 66.8723 15.8601 66.8695 16.2754C66.855 19.8186 66.855 23.3585 66.8668 26.9012Z" fill="white"/>
<path d="M163.254 26.8573C163.254 27.223 163.178 27.3694 162.776 27.3516C162.048 27.3194 161.314 27.3166 160.586 27.3516C160.135 27.375 160.009 27.2376 160.018 26.7871C160.045 25.0405 160.027 23.2912 160.027 21.5446C160.027 19.7979 160.045 18.0981 160.018 16.3749C160.009 15.9273 160.129 15.7842 160.583 15.8076C161.311 15.8427 162.046 15.8398 162.774 15.8076C163.173 15.7899 163.254 15.9273 163.254 16.2991C163.24 19.8185 163.24 23.3379 163.254 26.8573Z" fill="white"/>
<path d="M66.9981 12.8735C67.0041 13.8683 66.3662 14.4534 65.2573 14.4622C64.1223 14.4739 63.5195 13.9356 63.5167 12.9058C63.5106 11.8587 64.0901 11.3232 65.2312 11.3172C66.3517 11.3115 66.9924 11.876 66.9981 12.8735Z" fill="white"/>
<path d="M163.386 12.8295C163.407 13.8915 162.821 14.4386 161.63 14.4649C160.572 14.491 159.933 13.9265 159.91 12.9463C159.89 11.8875 160.487 11.3343 161.674 11.3169C162.768 11.3025 163.368 11.829 163.386 12.8295Z" fill="white"/>
<path d="M106.411 12.8472C106.429 13.8915 105.82 14.4504 104.641 14.4682C103.568 14.4827 102.965 13.9298 102.956 12.9291C102.95 11.838 103.509 11.3259 104.715 11.317C105.805 11.3086 106.391 11.838 106.411 12.8472Z" fill="white"/>
<path d="M17.9173 17.4549C17.9437 16.925 17.9261 16.3928 17.9261 15.8601C17.9261 15.7639 17.9232 15.6672 17.9261 15.5708C17.9905 13.3122 17.5984 13.7889 19.898 13.8066C20.4396 13.8094 20.9952 13.9617 21.5102 14.143C22.4232 14.4649 22.6396 15.0644 22.5401 16.1326C22.4555 17.0335 21.7148 17.7502 20.8433 17.8175C20.0209 17.8848 19.1959 17.8642 18.3738 17.9053C18.0256 17.9231 17.8998 17.8086 17.9173 17.4549Z" fill="#FDFDFD"/>
<path d="M22.7449 23.7915C22.3005 24.0812 21.7387 24.2803 21.2088 24.3386C20.2962 24.4438 19.3628 24.3999 18.4412 24.4354C18.1164 24.447 17.9467 24.3826 17.9642 24.0051C17.9907 23.3761 17.9702 22.7471 17.9702 22.115H17.8882C17.9262 21.4188 17.7068 20.4506 18.0755 20.1081C18.4588 19.7512 19.4125 19.9414 20.1117 19.9969C20.8958 20.0558 21.6916 20.167 22.4524 20.3688C24.0323 20.7898 23.7981 23.113 22.7449 23.7915Z" fill="#FDFDFD"/>
<path d="M18.8799 5.99829C11.5887 6.17113 5.96538 12.344 6.02389 18.9235C5.84832 26.6822 12.4928 32.7174 19.819 32.3547C26.6041 32.0211 32.4527 26.4014 32.4733 19.2833C32.4939 11.5656 26.0658 5.82867 18.8799 5.99829ZM27.5667 22.241C27.5111 23.9731 26.9199 25.4679 25.1849 26.1262C24.2138 26.4949 23.1368 26.615 22.0983 26.7668C21.604 26.837 21.3638 26.9365 21.3989 27.4897C21.446 28.2387 21.3904 28.9933 21.4195 29.7452C21.4311 30.105 21.3054 30.1782 20.9661 30.19C19.3656 30.2455 19.3656 30.2572 19.3656 28.6391C19.3656 28.2503 19.3598 27.8611 19.3656 27.4748C19.3714 27.1061 19.4475 26.7318 18.8477 26.7729C18.3767 26.8051 17.8939 26.6967 17.9261 27.4308C17.9582 28.2065 17.9495 28.9844 17.9085 29.7596C17.8998 29.9059 17.6716 30.1488 17.5282 30.1633C15.8809 30.3245 15.8809 30.3156 15.8809 28.648C15.8809 28.2354 15.8254 27.82 15.8693 27.4135C15.9307 26.8547 15.644 26.7697 15.1875 26.7785C14.2396 26.8019 13.2916 26.7991 12.3407 26.808C12.2442 26.808 12.0657 26.8196 12.0657 26.8136C12.0131 26.2112 11.9516 25.6057 11.9545 24.9997C11.9574 24.8973 12.2208 24.725 12.3787 24.7072C14.1664 24.5053 14.2396 24.5142 14.2922 22.7414C14.3771 20.0263 14.3566 17.3115 14.3654 14.5939C14.3654 13.9472 14.0026 13.6547 13.3472 13.643C11.7029 13.6079 11.7234 13.5959 11.7497 11.9842C11.7584 11.5451 11.9165 11.4605 12.3027 11.481C12.8118 11.51 13.3267 11.4894 13.8358 11.4894V11.4488C14.4911 11.4488 15.4391 11.7063 15.7229 11.3815C16.0681 10.9895 15.8693 10.1087 15.8781 9.43869C15.8897 8.18687 15.8838 8.22756 17.1508 8.16915C17.8003 8.14295 17.9962 8.32144 17.9407 8.96206C17.8793 9.6611 17.9319 10.369 17.9232 11.0713C17.9144 11.8114 18.4732 11.4105 18.7717 11.4721C19.0525 11.5334 19.4066 11.6068 19.3773 11.0596C19.3305 10.261 19.3889 9.45643 19.3539 8.65786C19.3393 8.25697 19.4856 8.18687 19.8483 8.178C21.4105 8.14295 21.4049 8.13127 21.4138 9.69616C21.4138 10.2784 21.2409 10.9923 21.5161 11.3989C21.747 11.7413 22.5166 11.7091 23.0433 11.8642C23.4793 11.996 23.9153 12.1389 24.3395 12.3118C26.9144 13.3678 27.3588 16.2933 25.2083 18.0665C24.9129 18.309 24.79 18.4175 25.2671 18.6104C26.891 19.2659 27.6251 20.4155 27.5667 22.241Z" fill="#FDFDFD"/>
<path d="M17.9173 17.4549C17.9437 16.925 17.9261 16.3928 17.9261 15.8601C17.9261 15.7639 17.9232 15.6672 17.9261 15.5708C17.9905 13.3122 17.5984 13.7889 19.898 13.8066C20.4396 13.8094 20.9952 13.9617 21.5102 14.143C22.4232 14.4649 22.6396 15.0644 22.5401 16.1326C22.4555 17.0335 21.7148 17.7502 20.8433 17.8175C20.0209 17.8848 19.1959 17.8642 18.3738 17.9053C18.0256 17.9231 17.8998 17.8086 17.9173 17.4549Z" fill="white"/>
<path d="M22.7449 23.7915C22.3005 24.0812 21.7387 24.2803 21.2088 24.3386C20.2962 24.4438 19.3628 24.3999 18.4412 24.4354C18.1164 24.447 17.9467 24.3826 17.9642 24.0051C17.9907 23.3761 17.9702 22.7471 17.9702 22.115H17.8882C17.9262 21.4188 17.7068 20.4506 18.0755 20.1081C18.4588 19.7512 19.4125 19.9414 20.1117 19.9969C20.8958 20.0558 21.6916 20.167 22.4524 20.3688C24.0323 20.7898 23.7981 23.113 22.7449 23.7915Z" fill="white"/>
<path d="M18.8799 5.99829C11.5887 6.17113 5.96538 12.344 6.02389 18.9235C5.84832 26.6822 12.4928 32.7174 19.819 32.3547C26.6041 32.0211 32.4527 26.4014 32.4733 19.2833C32.4939 11.5656 26.0658 5.82867 18.8799 5.99829ZM27.5667 22.241C27.5111 23.9731 26.9199 25.4679 25.1849 26.1262C24.2138 26.4949 23.1368 26.615 22.0983 26.7668C21.604 26.837 21.3638 26.9365 21.3989 27.4897C21.446 28.2387 21.3904 28.9933 21.4195 29.7452C21.4311 30.105 21.3054 30.1782 20.9661 30.19C19.3656 30.2455 19.3656 30.2572 19.3656 28.6391C19.3656 28.2503 19.3598 27.8611 19.3656 27.4748C19.3714 27.1061 19.4475 26.7318 18.8477 26.7729C18.3767 26.8051 17.8939 26.6967 17.9261 27.4308C17.9582 28.2065 17.9495 28.9844 17.9085 29.7596C17.8998 29.9059 17.6716 30.1488 17.5282 30.1633C15.8809 30.3245 15.8809 30.3156 15.8809 28.648C15.8809 28.2354 15.8254 27.82 15.8693 27.4135C15.9307 26.8547 15.644 26.7697 15.1875 26.7785C14.2396 26.8019 13.2916 26.7991 12.3407 26.808C12.2442 26.808 12.0657 26.8196 12.0657 26.8136C12.0131 26.2112 11.9516 25.6057 11.9545 24.9997C11.9574 24.8973 12.2208 24.725 12.3787 24.7072C14.1664 24.5053 14.2396 24.5142 14.2922 22.7414C14.3771 20.0263 14.3566 17.3115 14.3654 14.5939C14.3654 13.9472 14.0026 13.6547 13.3472 13.643C11.7029 13.6079 11.7234 13.5959 11.7497 11.9842C11.7584 11.5451 11.9165 11.4605 12.3027 11.481C12.8118 11.51 13.3267 11.4894 13.8358 11.4894V11.4488C14.4911 11.4488 15.4391 11.7063 15.7229 11.3815C16.0681 10.9895 15.8693 10.1087 15.8781 9.43869C15.8897 8.18687 15.8838 8.22756 17.1508 8.16915C17.8003 8.14295 17.9962 8.32144 17.9407 8.96206C17.8793 9.6611 17.9319 10.369 17.9232 11.0713C17.9144 11.8114 18.4732 11.4105 18.7717 11.4721C19.0525 11.5334 19.4066 11.6068 19.3773 11.0596C19.3305 10.261 19.3889 9.45643 19.3539 8.65786C19.3393 8.25697 19.4856 8.18687 19.8483 8.178C21.4105 8.14295 21.4049 8.13127 21.4138 9.69616C21.4138 10.2784 21.2409 10.9923 21.5161 11.3989C21.747 11.7413 22.5166 11.7091 23.0433 11.8642C23.4793 11.996 23.9153 12.1389 24.3395 12.3118C26.9144 13.3678 27.3588 16.2933 25.2083 18.0665C24.9129 18.309 24.79 18.4175 25.2671 18.6104C26.891 19.2659 27.6251 20.4155 27.5667 22.241Z" fill="white"/>
<path d="M17.9173 17.4549C17.9437 16.925 17.9261 16.3928 17.9261 15.8601C17.9261 15.7639 17.9232 15.6672 17.9261 15.5708C17.9905 13.3122 17.5984 13.7889 19.898 13.8066C20.4396 13.8094 20.9952 13.9617 21.5102 14.143C22.4232 14.4649 22.6396 15.0644 22.5401 16.1326C22.4555 17.0335 21.7148 17.7502 20.8433 17.8175C20.0209 17.8848 19.1959 17.8642 18.3738 17.9053C18.0256 17.9231 17.8998 17.8086 17.9173 17.4549Z" fill="#FDFDFD"/>
<path d="M22.7449 23.7915C22.3005 24.0812 21.7387 24.2803 21.2088 24.3386C20.2962 24.4438 19.3628 24.3999 18.4412 24.4354C18.1164 24.447 17.9467 24.3826 17.9642 24.0051C17.9907 23.3761 17.9702 22.7471 17.9702 22.115H17.8882C17.9262 21.4188 17.7068 20.4506 18.0755 20.1081C18.4588 19.7512 19.4125 19.9414 20.1117 19.9969C20.8958 20.0558 21.6916 20.167 22.4524 20.3688C24.0323 20.7898 23.7981 23.113 22.7449 23.7915Z" fill="#FDFDFD"/>
<path d="M22.7449 23.7915C22.3005 24.0812 21.7387 24.2803 21.2088 24.3386C20.2962 24.4438 19.3628 24.3999 18.4412 24.4354C18.1164 24.447 17.9467 24.3826 17.9642 24.0051C17.9907 23.3761 17.9702 22.7471 17.9702 22.115H17.8882C17.9262 21.4188 17.7068 20.4506 18.0755 20.1081C18.4588 19.7512 19.4125 19.9414 20.1117 19.9969C20.8958 20.0558 21.6916 20.167 22.4524 20.3688C24.0323 20.7898 23.7981 23.113 22.7449 23.7915Z" fill="white"/>
<path d="M22.5401 16.1326C22.4555 17.0335 21.7148 17.7502 20.8433 17.8175C20.0209 17.8848 19.1959 17.8642 18.3738 17.9053C18.0256 17.9231 17.8998 17.8086 17.9173 17.4549C17.9437 16.925 17.9261 16.3928 17.9261 15.8601C17.9261 15.7639 17.9232 15.6672 17.9261 15.5708C17.9905 13.3122 17.5984 13.7889 19.898 13.8066C20.4396 13.8094 20.9952 13.9617 21.5102 14.143C22.4232 14.4649 22.6396 15.0644 22.5401 16.1326Z" fill="white"/>
</g>
<defs>
<clipPath id="clip0_4_1319">
<rect width="199" height="36.7805" fill="white" transform="translate(0.790039 0.796631)"/>
</clipPath>
</defs>
</svg>
