<svg width="26" height="26" viewBox="0 0 26 26" fill="none" xmlns="http://www.w3.org/2000/svg">
<mask id="mask0_4_1182" style="mask-type:luminance" maskUnits="userSpaceOnUse" x="0" y="0" width="26" height="26">
<path d="M25.4042 0.860352H0.537369V25.7272H25.4042V0.860352Z" fill="white"/>
</mask>
<g mask="url(#mask0_4_1182)">
<path d="M12.9708 25.7272C19.8375 25.7272 25.4042 20.1605 25.4042 13.2938C25.4042 6.42702 19.8375 0.860352 12.9708 0.860352C6.10404 0.860352 0.537369 6.42702 0.537369 13.2938C0.537369 20.1605 6.10404 25.7272 12.9708 25.7272Z" fill="#F3BA2F"/>
<path d="M9.95252 12.0533L12.9708 9.0353L15.9905 12.0551L17.7467 10.2986L12.9708 5.52271L8.19635 10.2971L9.95252 12.0533ZM5.19984 13.2936L6.95601 11.5375L8.71243 13.2936L6.95601 15.0498L5.19984 13.2936ZM9.95252 14.534L12.9708 17.552L15.9905 14.5322L17.7467 16.2877L12.9708 21.0646L8.19635 16.2902L8.1941 16.2877L9.95252 14.534ZM17.2291 13.2936L18.9855 11.5375L20.7417 13.2936L18.9855 15.0498L17.2291 13.2936ZM14.7519 13.2921H14.7534V13.2936L12.9708 15.0763L11.1904 13.2966L11.1874 13.2936L11.1904 13.2914L11.502 12.979L11.6537 12.8273L12.9708 11.511L14.7527 13.2929L14.7519 13.2921Z" fill="white"/>
</g>
</svg>
