<svg width="26" height="26" viewBox="0 0 26 26" fill="none" xmlns="http://www.w3.org/2000/svg">
<path d="M25.4187 12.7965C25.4187 16.0947 24.1084 19.2579 21.7764 21.5901C19.4442 23.9221 16.281 25.2324 12.9828 25.2324C9.68464 25.2324 6.52143 23.9221 4.1892 21.5901C1.85722 19.2579 0.546898 16.0947 0.546898 12.7965C0.546898 9.49834 1.85722 6.33513 4.1892 4.0029C6.52143 1.67092 9.68464 0.360596 12.9828 0.360596C16.281 0.360596 19.4442 1.67092 21.7764 4.0029C24.1084 6.33513 25.4187 9.49834 25.4187 12.7965ZM13.9425 7.11838C13.7943 7.08339 13.7393 6.99267 13.7775 6.84597L14.2674 4.9066C14.2956 4.78839 14.2506 4.71491 14.1324 4.68667L13.0828 4.44175C13.0195 4.42701 12.9531 4.438 12.8976 4.47274C12.8424 4.50748 12.8029 4.56272 12.7879 4.62669L12.368 6.4236C12.3163 6.64853 12.1788 6.73175 11.9556 6.67352L9.52145 6.04372C9.41823 6.01698 9.35225 6.05447 9.32401 6.15619L8.97413 7.43577C8.94239 7.55073 8.98487 7.61996 9.10158 7.6432L10.2637 7.86563C10.3402 7.88012 10.4132 7.90987 10.4776 7.95335C10.5421 7.99684 10.5973 8.05306 10.6393 8.11854C10.6816 8.18402 10.7098 8.2575 10.7226 8.33447C10.7353 8.4112 10.7323 8.48967 10.7136 8.56539C10.1855 10.6847 9.6589 12.7933 9.13407 14.8908C9.07584 15.1225 8.96913 15.3389 8.81418 15.5406C8.75595 15.6173 8.68097 15.6431 8.58925 15.6181L7.66206 15.3832C7.57434 15.3604 7.48162 15.3692 7.3999 15.4074C7.31817 15.4459 7.25269 15.5114 7.2147 15.5931L6.72487 16.6552C6.6299 16.8602 6.69238 16.9894 6.9123 17.0426L9.26403 17.6274C9.31502 17.6402 9.3625 17.6634 9.40373 17.6961C9.44497 17.7286 9.47871 17.7699 9.5027 17.8166C9.52695 17.8633 9.54069 17.9148 9.54369 17.9676C9.54644 18.0203 9.53794 18.073 9.51895 18.1223C9.28902 18.7171 9.10158 19.3319 8.95663 19.9667C8.94963 19.9956 8.94889 20.0256 8.95389 20.0549C8.95913 20.0844 8.97038 20.1121 8.98662 20.1371C9.00312 20.1618 9.02436 20.1831 9.04935 20.1993C9.07434 20.2156 9.10234 20.2266 9.13158 20.2316L10.1412 20.404C10.2462 20.4223 10.3179 20.3815 10.3562 20.2815C10.6093 19.6535 10.7903 19.0212 10.8985 18.3847C10.9367 18.153 11.0659 18.078 11.2859 18.1597L11.9481 18.4047C12.0981 18.4596 12.1506 18.5639 12.1056 18.7171L11.5808 20.5415C11.5308 20.7132 11.5915 20.8231 11.7632 20.8714L12.6979 21.1288C12.7349 21.139 12.7736 21.1418 12.8119 21.137C12.8501 21.1323 12.8868 21.12 12.9203 21.101C12.9538 21.082 12.9831 21.0565 13.0068 21.026C13.0303 20.9958 13.0475 20.9611 13.0578 20.9238L13.5776 18.9695C13.5914 18.9187 13.6241 18.8753 13.6691 18.8488C13.7138 18.822 13.7673 18.8143 13.8175 18.827C15.8094 19.3044 18.0936 18.877 18.8184 16.7277C19.2607 15.4081 18.7959 14.2085 17.7213 13.3513C17.643 13.2881 17.6463 13.2289 17.7312 13.1739C17.9712 13.0164 18.2311 12.9365 18.456 12.7465C19.4207 11.9468 19.6281 10.9589 19.0783 9.7825C18.5785 8.70785 17.6788 8.27049 16.6216 7.87312C16.5346 7.84038 16.4634 7.77616 16.4217 7.69269C16.3799 7.60946 16.3709 7.51325 16.3967 7.42328L16.9115 5.66385C16.9548 5.51565 16.9023 5.42068 16.7541 5.37894L15.7194 5.09654C15.5645 5.0533 15.467 5.10979 15.427 5.26648L14.9597 7.12087C14.9214 7.27257 14.8272 7.33005 14.6772 7.29331L13.9425 7.11838Z" fill="#F8931A"/>
<path d="M13.9425 7.11802L14.6772 7.29296C14.8272 7.3297 14.9212 7.27222 14.9597 7.12052L15.427 5.26613C15.467 5.10968 15.5645 5.05295 15.7194 5.09618L16.7541 5.37859C16.9023 5.42033 16.9547 5.51529 16.9115 5.66349L16.3967 7.42292C16.3709 7.51289 16.3799 7.60911 16.4217 7.69233C16.4632 7.7758 16.5346 7.84028 16.6216 7.87277C17.6788 8.27014 18.5785 8.7075 19.0783 9.78214C19.6281 10.9585 19.4207 11.9464 18.456 12.7462C18.2311 12.9361 17.9712 13.0161 17.7312 13.1735C17.6463 13.2285 17.6428 13.2877 17.7212 13.351C18.7959 14.2082 19.2607 15.4078 18.8184 16.7274C18.0936 18.8767 15.8094 19.304 13.8175 18.8267C13.7673 18.8139 13.7138 18.8217 13.6688 18.8484C13.6241 18.8752 13.5911 18.9184 13.5776 18.9691L13.0578 20.9235C13.0475 20.9607 13.0303 20.9955 13.0065 21.0259C12.9831 21.0562 12.9538 21.0817 12.9203 21.1007C12.8868 21.1197 12.8501 21.1319 12.8119 21.1367C12.7736 21.1417 12.7349 21.1387 12.6979 21.1284L11.7632 20.871C11.5915 20.8228 11.5308 20.7128 11.5808 20.5411L12.1056 18.7167C12.1506 18.5635 12.0981 18.4593 11.9481 18.4043L11.2859 18.1594C11.0659 18.0779 10.9367 18.1529 10.8985 18.3843C10.79 19.0209 10.6093 19.6531 10.3562 20.2812C10.3177 20.3812 10.2462 20.4221 10.1412 20.4037L9.13157 20.2312C9.10208 20.2262 9.07409 20.2152 9.04935 20.199C9.02435 20.1827 9.00311 20.1615 8.98662 20.1367C8.97012 20.112 8.95913 20.084 8.95388 20.0548C8.94863 20.0253 8.94963 19.9953 8.95663 19.9663C9.10158 19.3315 9.28902 18.7167 9.51894 18.1219C9.53794 18.0727 9.54643 18.0199 9.54344 17.9672C9.54069 17.9145 9.52694 17.863 9.5027 17.8163C9.47871 17.7695 9.44497 17.7285 9.40373 17.6958C9.36249 17.6633 9.31501 17.6398 9.26403 17.6271L6.9123 17.0423C6.69237 16.989 6.62989 16.8598 6.72486 16.6549L7.2147 15.5927C7.25269 15.5113 7.31817 15.4455 7.39989 15.407C7.48161 15.3688 7.57433 15.3603 7.66205 15.3828L8.58925 15.6177C8.68072 15.6427 8.75569 15.617 8.81418 15.5403C8.96912 15.3388 9.07559 15.1221 9.13407 14.8905C9.6589 12.7929 10.1852 10.6843 10.7135 8.56504C10.7323 8.48957 10.7353 8.41084 10.7225 8.33412C10.7098 8.25714 10.6813 8.18391 10.6393 8.11844C10.5971 8.05271 10.5421 7.99648 10.4776 7.95299C10.4129 7.90951 10.3402 7.87976 10.2637 7.86527L9.10158 7.64285C8.98487 7.6196 8.94238 7.55037 8.97412 7.43541L9.32401 6.15583C9.35225 6.05437 9.41798 6.01688 9.52144 6.04337L11.9556 6.67316C12.1788 6.73164 12.3163 6.64817 12.368 6.42325L12.7879 4.62634C12.8029 4.56261 12.8424 4.50713 12.8976 4.47239C12.9528 4.4379 13.0195 4.42665 13.0828 4.4414L14.1324 4.68632C14.2506 4.71481 14.2956 4.78803 14.2674 4.90624L13.7775 6.84561C13.7391 6.99231 13.794 7.08303 13.9425 7.11802ZM13.3102 9.02739L12.6929 11.4291C12.6839 11.4641 12.6819 11.5001 12.6869 11.5358C12.6919 11.5713 12.7039 11.6055 12.7224 11.6365C12.7406 11.6673 12.7651 11.6943 12.7939 11.7158C12.8226 11.7372 12.8553 11.7527 12.8903 11.7615L13.5151 11.9214C14.1674 12.0891 14.8274 12.1166 15.3498 11.9979C15.8724 11.8795 16.2147 11.6245 16.3017 11.2891L16.4042 10.8918C16.4472 10.7256 16.4259 10.5444 16.342 10.3589C16.2577 10.1735 16.1123 9.98732 15.9138 9.81088C15.7154 9.63444 15.4677 9.4715 15.1853 9.33104C14.9027 9.19059 14.5908 9.07562 14.2674 8.9924L13.6426 8.83245C13.6078 8.82345 13.5719 8.82146 13.5364 8.8262C13.5009 8.8312 13.4669 8.84295 13.4359 8.8612C13.4052 8.87919 13.3782 8.90318 13.3564 8.93167C13.3349 8.96041 13.3192 8.9929 13.3102 9.02739ZM12.1831 13.3935L11.5208 16.135C11.5058 16.1988 11.5165 16.2658 11.5505 16.3215C11.5848 16.3772 11.6397 16.4172 11.7032 16.4325L12.8628 16.7149C13.2115 16.7993 13.5664 16.8438 13.9068 16.8461C14.2471 16.8481 14.5668 16.8078 14.8472 16.7276C15.1276 16.6474 15.3633 16.5284 15.5407 16.378C15.7182 16.2275 15.8341 16.0481 15.8819 15.8501L15.9343 15.6427C15.9823 15.445 15.9611 15.2323 15.8719 15.0172C15.7826 14.8022 15.6272 14.5886 15.4145 14.3891C15.2016 14.1894 14.9354 14.0075 14.6315 13.8541C14.3274 13.7004 13.9915 13.5779 13.6426 13.4934L12.483 13.2135C12.4192 13.1978 12.352 13.2078 12.2958 13.2415C12.2395 13.2752 12.1991 13.33 12.1831 13.3935Z" fill="white"/>
<path d="M13.3102 9.02758C13.3192 8.99284 13.3349 8.96035 13.3567 8.93186C13.3782 8.90337 13.4052 8.87913 13.4362 8.86114C13.4669 8.84314 13.5011 8.83115 13.5364 8.8264C13.5719 8.8214 13.6081 8.8234 13.6426 8.83264L14.2674 8.99259C14.591 9.07557 14.9029 9.19053 15.1853 9.33098C15.468 9.47144 15.7154 9.63438 15.9139 9.81082C16.1123 9.98726 16.2577 10.1735 16.342 10.3589C16.4262 10.5446 16.4472 10.7255 16.4042 10.892L16.3017 11.2893C16.2147 11.6245 15.8724 11.8794 15.35 11.9981C14.8275 12.1166 14.1677 12.0891 13.5151 11.9216L12.8903 11.7617C12.8556 11.7529 12.8226 11.7372 12.7939 11.7157C12.7651 11.6945 12.7409 11.6675 12.7224 11.6365C12.7042 11.6055 12.6922 11.5712 12.6869 11.5358C12.6819 11.5003 12.6839 11.464 12.6929 11.4293L13.3102 9.02758Z" fill="#F8931A"/>
<path d="M12.1831 13.3937C12.1991 13.33 12.2396 13.2752 12.2958 13.2415C12.352 13.2077 12.4192 13.1978 12.483 13.2137L13.6426 13.4937C13.9915 13.5779 14.3276 13.7003 14.6315 13.854C14.9357 14.0077 15.2016 14.1897 15.4145 14.3891C15.6272 14.5888 15.7826 14.8022 15.8719 15.0174C15.9611 15.2326 15.9823 15.445 15.9343 15.6429L15.8819 15.8504C15.8341 16.0483 15.7182 16.2275 15.5407 16.3782C15.3633 16.5287 15.1276 16.6474 14.8472 16.7278C14.5668 16.8081 14.2474 16.8483 13.9068 16.8461C13.5664 16.8438 13.2115 16.7993 12.8628 16.7151L11.7032 16.4327C11.6397 16.4172 11.5848 16.3772 11.5505 16.3215C11.5165 16.2657 11.5058 16.1988 11.5208 16.1353L12.1831 13.3937Z" fill="#F8931A"/>
</svg>
