<svg width="25" height="26" viewBox="0 0 25 26" fill="none" xmlns="http://www.w3.org/2000/svg">
<path d="M15.5003 11.9474L17.5404 8.86416L23.0391 16.4921L23.0416 17.9562L23.0236 7.88248C23.0106 7.63606 22.8639 7.41088 22.6297 7.27792L12.73 2.20609C12.4985 2.10463 12.2049 2.10588 11.9737 2.20934C11.9425 2.22334 11.9132 2.23834 11.8852 2.25483L11.8508 2.27432L2.24142 7.23394L2.20418 7.24919C2.1562 7.26868 2.10797 7.29392 2.06223 7.32292C1.88004 7.43913 1.75907 7.61132 1.71983 7.80426C1.71408 7.8335 1.7096 7.86323 1.7076 7.89347L1.72283 16.1025L6.84439 9.03185C7.48918 8.09441 8.89423 7.79226 10.1985 7.80876L11.729 7.84474L2.71001 20.728L3.77315 21.2731L12.9004 7.85774L16.9346 7.84474L7.83107 21.5985L11.6246 23.5423L12.0779 23.7743C12.2699 23.8437 12.4958 23.8472 12.689 23.785L22.7277 18.6032L20.8083 19.5939L15.5003 11.9474ZM16.2785 21.9321L12.4471 16.5754L14.786 13.04L19.8184 20.105L16.2785 21.9321Z" fill="#2D374B"/>
<path d="M12.4463 16.5754L16.278 21.9319L19.8174 20.1047L14.7853 13.0398L12.4463 16.5754Z" fill="#28A0F0"/>
<path d="M23.0411 17.956L23.0386 16.492L17.5401 8.86377L15.5 11.947L20.8083 19.5937L22.7274 18.6031C22.9156 18.4669 23.0298 18.2669 23.0418 18.0515L23.0411 17.956Z" fill="#28A0F0"/>
<path d="M-0.000610352 19.3362L2.70974 20.7272L11.7288 7.84398L10.1983 7.80799C8.89397 7.79175 7.48918 8.09365 6.84414 9.03109L1.72258 16.1018L-0.000610352 18.46V19.3362Z" fill="white"/>
<path d="M16.9343 7.84424L12.8999 7.85748L3.7729 21.2728L6.96311 22.9088L7.83057 21.5982L16.9343 7.84424Z" fill="white"/>
<path d="M24.7413 7.82579C24.7075 7.07429 24.2507 6.38651 23.5352 5.9859L13.5059 0.848586C12.7982 0.53119 11.914 0.53069 11.2047 0.848586C11.121 0.886073 1.45166 5.88118 1.45166 5.88118C1.3177 5.93841 1.18875 6.00639 1.06754 6.08361C0.428995 6.49148 0.0396264 7.12527 -0.000610352 7.82129V18.4603L1.72258 16.1023L1.70732 7.89302C1.70957 7.86303 1.71382 7.83354 1.71957 7.8043C1.75856 7.61111 1.87977 7.43892 2.06196 7.32245C2.10744 7.29346 11.942 2.22288 11.9732 2.20889C12.2046 2.10567 12.4983 2.10442 12.7297 2.20589L22.6292 7.27747C22.8634 7.41043 23.0101 7.63586 23.0231 7.88202V18.0512C23.0111 18.2669 22.9153 18.4665 22.7272 18.6027L20.8081 19.5934L19.8176 20.1045L16.278 21.9316L12.6885 23.7845C12.4953 23.8468 12.2691 23.8433 12.0774 23.7738L7.83057 21.598L6.9631 22.9086L10.7796 24.8659C10.9058 24.9299 11.0183 24.9864 11.1107 25.0326C11.2534 25.1041 11.3509 25.1518 11.3854 25.1666C11.6566 25.284 12.0467 25.3523 12.3986 25.3523C12.721 25.3523 13.0353 25.2995 13.333 25.1958L23.7591 19.8178C24.3576 19.4047 24.7095 18.7819 24.7413 18.1074V7.82579Z" fill="#96BEDC"/>
</svg>
