<svg width="24" height="23" viewBox="0 0 24 23" fill="none" xmlns="http://www.w3.org/2000/svg">
<g clip-path="url(#clip0_4_673)">
<path d="M11.4783 19.1113C13.4259 19.1113 15.2937 18.3377 16.6708 16.9605C18.048 15.5834 18.8216 13.7156 18.8216 11.768C18.8216 9.82043 18.048 7.95262 16.6708 6.57547C15.2937 5.19833 13.4259 4.42467 11.4783 4.42467C9.53073 4.42467 7.66292 5.19833 6.28579 6.57547C4.90864 7.95262 4.13497 9.82043 4.13497 11.768C4.13497 13.7156 4.90864 15.5834 6.28579 16.9605C7.66292 18.3377 9.53073 19.1113 11.4783 19.1113ZM11.4783 2.58883C12.6837 2.58883 13.8773 2.82626 14.991 3.28755C16.1047 3.74885 17.1166 4.42498 17.969 5.27735C18.8213 6.12971 19.4975 7.14162 19.9588 8.25528C20.4201 9.36895 20.6575 10.5625 20.6575 11.768C20.6575 14.2025 19.6904 16.5372 17.969 18.2587C16.2476 19.9801 13.9128 20.9472 11.4783 20.9472C6.40222 20.9472 2.29913 16.8166 2.29913 11.768C2.29913 9.33353 3.26622 6.99878 4.98766 5.27735C6.70908 3.55592 9.04384 2.58883 11.4783 2.58883ZM11.9373 7.17842V11.9975L16.0679 14.4484L15.3795 15.5773L10.5604 12.686V7.17842H11.9373Z" fill="white"/>
</g>
<defs>
<clipPath id="clip0_4_673">
<rect width="23" height="22.03" fill="white" transform="translate(0.209961 0.752686)"/>
</clipPath>
</defs>
</svg>
