<svg width="200" height="51" viewBox="0 0 200 51" fill="none" xmlns="http://www.w3.org/2000/svg">
<g clip-path="url(#clip0_4_1313)">
<g clip-path="url(#clip1_4_1313)">
<g clip-path="url(#clip2_4_1313)">
<path d="M30.1002 28.5357C29.5033 28.9004 28.807 28.9668 28.2765 28.6684C27.6134 28.2705 27.2155 27.3753 27.2155 26.1485V22.4019C27.2155 20.6114 26.5192 19.3183 25.3256 18.9868C23.3032 18.3899 21.7779 20.8767 21.2142 21.805L17.6334 27.541V20.4788C17.6002 18.8541 17.0697 17.8926 16.0751 17.5942C15.412 17.3953 14.4172 17.4947 13.4557 18.9536L5.46506 31.7519C4.40407 29.7294 3.84041 27.4748 3.84041 25.187C3.84041 17.4616 10.0406 11.1951 17.6334 11.1951C25.2261 11.1951 31.4264 17.4616 31.4264 25.187V25.2202V25.2533C31.4926 26.7453 31.0285 27.9389 30.1002 28.5357ZM34.4767 25.187V25.1538V25.1206C34.4436 15.7374 26.884 8.07837 17.6334 8.07837C8.34965 8.07837 0.790039 15.7375 0.790039 25.187C0.790039 34.6034 8.34965 42.2956 17.6334 42.2956C21.9105 42.2956 25.9556 40.6709 29.0722 37.72C29.7023 37.1232 29.7353 36.1617 29.1386 35.5317C28.5749 34.9017 27.6134 34.8686 26.9834 35.4322C26.9834 35.4322 26.9834 35.4322 26.9502 35.4654C24.4304 37.8526 21.0484 39.212 17.567 39.212C13.4889 39.212 9.84168 37.4215 7.32181 34.5702L14.5167 23.0318V28.3699C14.5167 30.923 15.5114 31.7519 16.3403 31.984C17.1691 32.216 18.4291 32.0503 19.7886 29.8952L23.7341 23.496C23.8667 23.297 23.9663 23.0982 24.0989 22.9655V26.2148C24.0989 28.602 25.0603 30.5251 26.7182 31.4535C28.2102 32.3156 30.1002 32.216 31.6584 31.2546C33.5816 29.9946 34.6094 27.8063 34.4767 25.187ZM57.9513 19.3515C58.3491 19.5836 58.714 20.1472 58.714 20.6446C58.714 21.4403 58.0508 22.1034 57.2882 22.1034C57.0893 22.1034 56.9235 22.0372 56.7577 22.004C55.8625 21.3409 54.7351 20.9098 53.5415 20.9098C50.7232 20.9098 48.8002 23.1976 48.8002 26.0491C48.8002 28.9004 50.7564 31.155 53.5415 31.155C54.9341 31.155 56.194 30.5915 57.1225 29.6962C57.3545 29.5305 57.653 29.4309 57.9513 29.4309C58.714 29.4309 59.3107 30.0278 59.3107 30.7904C59.3107 31.2877 59.0123 31.7187 58.6476 31.9508C57.2882 33.1113 55.4646 33.8739 53.5747 33.8739C49.2644 33.8739 45.7499 30.3262 45.7499 25.9495C45.7499 21.5729 49.2644 18.0252 53.5747 18.0252C55.1662 17.9921 56.6914 18.4894 57.9513 19.3515ZM65.8425 22.6671C68.7934 22.6671 71.247 25.1538 71.247 28.2373C71.247 31.2877 68.7602 33.9071 65.8425 33.9071C62.7589 33.9071 60.2059 31.3208 60.2059 28.2373C60.2059 25.1538 62.7589 22.6671 65.8425 22.6671ZM65.8094 31.155C67.1024 31.155 68.1966 29.9282 68.1966 28.2705C68.1966 26.6126 67.1024 25.5516 65.8094 25.5516C64.4168 25.5516 63.2564 26.5796 63.2564 28.2705C63.2564 29.8952 64.4168 31.155 65.8094 31.155ZM73.1037 32.183V24.358C73.1037 23.496 73.7668 22.7997 74.6289 22.7997C75.4577 22.7997 76.154 23.496 76.154 24.358V32.183C76.154 33.045 75.4577 33.7413 74.6289 33.7413C73.8 33.7413 73.1037 33.0118 73.1037 32.183ZM72.8716 19.8488C72.8716 18.821 73.6674 18.0252 74.6289 18.0252C75.6236 18.0252 76.4193 18.8541 76.4193 19.8488C76.4193 20.8435 75.6236 21.6393 74.6289 21.6393C73.6342 21.6061 72.8716 20.8103 72.8716 19.8488ZM81.9895 27.9389V32.183C81.9895 33.045 81.2933 33.7413 80.4644 33.7413C79.6355 33.7413 78.9391 33.045 78.9391 32.183V23.9934C78.9391 23.3302 79.4696 22.7997 80.1328 22.7997C80.7959 22.7997 81.2933 23.3634 81.2933 23.9934C82.52 22.8329 83.6142 22.6671 84.6421 22.6671C87.6924 22.6671 89.0519 24.9549 89.0519 27.5742V32.183C89.0519 33.045 88.3556 33.7413 87.5266 33.7413C86.6977 33.7413 86.0014 33.045 86.0014 32.183V27.9389C86.0014 26.6126 85.8357 25.4854 83.9126 25.4854C82.5532 25.4854 81.9895 26.6126 81.9895 27.9389ZM98.9324 29.5635C98.5676 29.5635 98.3355 29.3977 98.1367 29.1657L94.5889 25.3196V32.183C94.5889 33.045 93.8926 33.7413 93.0638 33.7413C92.2348 33.7413 91.5385 33.045 91.5385 32.183V18.5889C91.638 18.3568 91.8702 18.191 92.1022 18.191C92.3675 18.191 92.5995 18.4231 92.7653 18.5889L98.435 24.9549C98.6008 25.1538 98.7998 25.2533 98.9324 25.2533C99.0318 25.2533 99.2639 25.1538 99.4297 24.9549L105.099 18.5889C105.265 18.4231 105.464 18.191 105.763 18.191C106.028 18.191 106.26 18.3568 106.326 18.5889V32.183C106.326 33.045 105.663 33.7413 104.801 33.7413C103.972 33.7413 103.276 33.045 103.276 32.183V25.3196L99.7282 29.1657C99.4629 29.3977 99.2307 29.5635 98.9324 29.5635ZM113.587 31.155C114.947 31.155 116.107 29.9282 116.107 28.2705C116.107 26.6126 114.914 25.5186 113.587 25.5186C112.261 25.5186 111.167 26.6458 111.167 28.2705C111.167 29.862 112.228 31.155 113.587 31.155ZM116.837 32.5476L116.77 32.183C116.174 33.3434 114.284 33.8739 113.09 33.8739C110.239 33.8739 108.117 31.2877 108.117 28.2041C108.117 25.1538 110.272 22.6339 113.256 22.6339C113.753 22.6339 115.477 22.7665 116.804 24.3248L116.87 23.9602C116.87 23.297 117.367 22.7665 118.03 22.7665C118.693 22.7665 119.224 23.3302 119.224 23.9602V32.5145C119.224 33.1776 118.693 33.7081 118.03 33.7081C117.334 33.7413 116.837 33.1776 116.837 32.5476ZM127.612 25.4854H127.281C125.358 25.5848 124.993 26.679 124.993 27.9389V32.183C124.993 33.045 124.297 33.7413 123.468 33.7413C122.639 33.7413 121.943 33.045 121.943 32.183V23.9934C121.943 23.3302 122.473 22.7997 123.136 22.7997C123.8 22.7997 124.297 23.3634 124.297 23.9934C125.424 22.9324 126.353 22.7003 127.281 22.6671H127.579C128.309 22.6671 128.972 23.297 128.972 24.0928C129.005 24.8223 128.342 25.4854 127.612 25.4854ZM139.383 31.4535C139.515 31.6855 139.615 31.9177 139.615 32.183C139.615 32.9787 138.886 33.7081 138.09 33.7081C137.56 33.7081 137.095 33.3102 136.73 32.8461L133.216 28.7678V32.1498C133.216 33.0118 132.52 33.7081 131.69 33.7081C130.862 33.7081 130.166 33.0118 130.166 32.1498V19.7162C130.166 18.8541 130.828 18.1579 131.69 18.1579C132.553 18.1579 133.216 18.8541 133.216 19.7162V27.4748L136.73 23.5955C137.095 23.1976 137.526 22.7665 138.056 22.7665C138.819 22.7665 139.515 23.4629 139.515 24.2586C139.515 24.4907 139.449 24.7559 139.317 24.9549L136.532 28.0053L139.383 31.4535ZM145.351 25.5186C144.522 25.5186 143.163 25.9495 143.163 27.2427H147.573C147.539 25.9495 146.146 25.5186 145.351 25.5186ZM149.33 29.1989H143.163C143.163 31.0224 144.92 31.3208 145.683 31.3208C146.247 31.3208 147.042 31.2214 147.672 30.923C147.871 30.7904 148.17 30.6909 148.468 30.6909C149.131 30.6909 149.694 31.2546 149.694 31.9508C149.694 32.415 149.396 32.8129 149.032 33.045C148.103 33.7413 146.876 33.9071 145.715 33.9071C142.632 33.9071 140.08 32.2492 140.08 28.3699C140.08 25.3196 141.638 22.6671 145.284 22.6671C148.235 22.6671 150.457 24.5901 150.524 28.0053C150.524 28.6352 149.992 29.1989 149.33 29.1989ZM157.817 33.8739H156.989C154.668 33.8739 153.309 32.8461 153.309 29.2321V25.4854H152.512C151.783 25.4854 151.153 24.8223 151.153 24.0928C151.153 23.297 151.816 22.6671 152.512 22.6671H153.309V19.7825C153.309 18.9204 153.971 18.2242 154.834 18.2242C155.663 18.2242 156.359 18.9204 156.359 19.7825V22.6671H157.619C158.349 22.6671 158.978 23.297 158.978 24.0928C158.978 24.8223 158.315 25.4854 157.619 25.4854H156.359V28.6352C156.359 30.7241 156.459 31.155 157.386 31.155H157.817C158.547 31.155 159.177 31.7519 159.177 32.5145C159.177 33.244 158.547 33.8739 157.817 33.8739ZM172.572 19.3515C172.971 19.5836 173.335 20.1472 173.335 20.6446C173.335 21.4403 172.672 22.1034 171.909 22.1034C171.71 22.1034 171.544 22.0372 171.378 22.004C170.483 21.3409 169.356 20.9098 168.162 20.9098C165.344 20.9098 163.421 23.1976 163.421 26.0491C163.421 28.9004 165.377 31.155 168.162 31.155C169.555 31.155 170.815 30.5915 171.743 29.6962C171.975 29.5305 172.273 29.4309 172.572 29.4309C173.335 29.4309 173.932 30.0278 173.932 30.7904C173.932 31.2877 173.633 31.7187 173.269 31.9508C171.909 33.1113 170.085 33.8739 168.196 33.8739C163.885 33.8739 160.371 30.3262 160.371 25.9495C160.371 21.5729 163.885 18.0252 168.196 18.0252C169.787 17.9921 171.346 18.4894 172.572 19.3515ZM180.298 31.155C181.657 31.155 182.818 29.9282 182.818 28.2705C182.818 26.6126 181.624 25.5186 180.298 25.5186C178.938 25.5186 177.877 26.6458 177.877 28.2705C177.877 29.862 178.972 31.155 180.298 31.155ZM183.547 32.5476L183.48 32.183C182.883 33.3434 180.994 33.8739 179.8 33.8739C176.949 33.8739 174.827 31.2877 174.827 28.2041C174.827 25.1538 176.982 22.6339 179.966 22.6339C180.464 22.6339 182.187 22.7665 183.514 24.3248L183.581 23.9602C183.581 23.297 184.077 22.7665 184.741 22.7665C185.403 22.7665 185.935 23.3302 185.935 23.9602V32.5145C185.935 33.1776 185.403 33.7081 184.741 33.7081C184.044 33.7413 183.547 33.1776 183.547 32.5476ZM194.256 31.155C195.616 31.155 196.677 29.862 196.677 28.2705C196.677 26.6126 195.582 25.5186 194.256 25.5186C192.896 25.5186 191.736 26.6126 191.736 28.2705C191.736 29.9282 192.896 31.155 194.256 31.155ZM191.736 32.9787V36.858C191.736 37.72 191.04 38.4163 190.212 38.4163C189.382 38.4163 188.686 37.72 188.686 36.858V23.9934C188.686 23.3302 189.216 22.7997 189.88 22.7997C190.542 22.7997 191.04 23.3634 191.04 24.126C192.167 22.9655 193.56 22.6671 194.621 22.6671C197.572 22.6671 199.76 25.1538 199.76 28.2373C199.76 31.2877 197.671 33.9071 194.787 33.9071C193.892 33.8739 192.566 33.6086 191.736 32.9787Z" fill="white"/>
</g>
</g>
</g>
<defs>
<clipPath id="clip0_4_1313">
<rect width="199" height="50" fill="white" transform="translate(0.790039 0.187012)"/>
</clipPath>
<clipPath id="clip1_4_1313">
<rect width="199" height="50" fill="white" transform="translate(0.790039 0.187012)"/>
</clipPath>
<clipPath id="clip2_4_1313">
<rect width="199" height="34.2172" fill="white" transform="translate(0.790039 8.07837)"/>
</clipPath>
</defs>
</svg>
