<svg width="200" height="51" viewBox="0 0 200 51" fill="none" xmlns="http://www.w3.org/2000/svg">
<g clip-path="url(#clip0_4_1372)">
<g clip-path="url(#clip1_4_1372)">
<g clip-path="url(#clip2_4_1372)">
<path d="M27.8152 21.0463C28.5993 19.2585 28.448 17.5756 27.3613 15.9974C25.5404 13.3415 21.5427 13.0012 19.3763 15.4508C17.2975 17.8025 17.6638 21.0463 20.1088 23.0061C20.1748 23.0598 20.226 23.1297 20.2576 23.209C20.2893 23.2884 20.3002 23.3748 20.2893 23.46L20.016 25.6105C19.9849 25.8306 19.8681 25.9819 19.6651 26.0644C14.9092 28.0069 9.78025 29.0434 4.27811 29.1742C3.93079 29.1811 3.69522 29.0229 3.57143 28.6996C1.14017 22.3701 0.302815 15.4663 1.05936 7.98836C1.07999 7.78206 1.18659 7.63938 1.37917 7.56031L6.46521 5.4046C6.65778 5.32209 6.85551 5.31177 7.0584 5.37365C12.729 7.08928 17.4334 5.76732 21.1713 1.40776C21.2952 1.26336 21.4534 1.19116 21.646 1.19116L24.7513 1.19632C24.93 1.19632 25.0762 1.26508 25.1897 1.40261C28.4874 5.38053 32.786 6.82454 38.0852 5.73466C38.3053 5.68997 38.393 5.77764 38.3484 5.99768C37.0072 12.6762 33.118 17.7304 27.7327 21.7116C27.5264 21.8629 27.4541 21.8131 27.516 21.5621C27.5573 21.3867 27.7327 21.2423 27.8152 21.0463Z" fill="white"/>
<path d="M26.314 24.9969C33.4169 20.8608 39.055 14.0945 40.3084 5.97709C40.3428 5.75017 40.4632 5.68141 40.6695 5.7708L44.8838 7.56551C45.0763 7.64802 45.1829 7.79415 45.2036 8.00387C46.4261 20.0046 43.5477 31.6342 35.2945 40.2673C31.7525 43.9703 27.779 46.9201 23.3739 49.1171C23.1984 49.2065 23.0214 49.2048 22.8426 49.1119C15.131 45.0429 8.74508 39.2256 4.81449 31.4228C4.71477 31.2234 4.77666 31.1202 5.00018 31.1133C10.0965 30.9517 14.8644 30.0371 19.3041 28.3697C19.5413 28.2803 19.6428 28.3611 19.6083 28.6121C19.4743 29.5954 19.3366 30.5856 19.1957 31.5826C19.0203 32.8254 19.9591 33.4391 21.0578 33.4391C22.6053 33.4426 24.0772 33.4324 25.4734 33.4082C25.6812 33.4048 25.886 33.3576 26.0742 33.2699C26.2626 33.1821 26.4301 33.0557 26.566 32.8989C26.7018 32.7421 26.8029 32.5585 26.8626 32.3601C26.9223 32.1617 26.9393 31.953 26.9124 31.7477L26.1077 25.4095C26.0837 25.2272 26.1524 25.0897 26.314 24.9969Z" fill="white"/>
<path d="M64.9443 16.2245C60.5081 14.9662 58.2591 18.2152 58.0167 22.2017C57.8053 25.6932 58.8112 30.3243 63.2627 30.1748C65.6355 30.0991 67.0952 28.8648 67.642 26.4718C67.666 26.3756 67.7263 26.3274 67.8226 26.3274L71.8048 26.3327C71.8195 26.3323 71.8343 26.3353 71.8477 26.3415C71.8612 26.3477 71.873 26.3568 71.8826 26.3683C71.8919 26.3796 71.8987 26.3929 71.9021 26.4074C71.9057 26.4218 71.9059 26.4368 71.9027 26.4513C70.9674 30.4567 68.8061 32.8358 65.4188 33.5888C63.1388 34.0977 61.0017 33.9188 59.0071 33.0525C53.689 30.7369 52.7605 23.5478 54.3183 18.6741C55.5116 14.9507 58.0477 12.8517 61.9268 12.3772C66.7342 11.7893 71.1445 14.2957 71.9027 19.324C71.9199 19.4375 71.8718 19.4941 71.7583 19.4941L67.8587 19.4839C67.8027 19.4842 67.7481 19.4655 67.7041 19.4308C67.6601 19.3962 67.6291 19.3475 67.6163 19.2931C67.1795 17.6255 66.2889 16.6028 64.9443 16.2245Z" fill="white"/>
<path d="M176.71 12.5854L173.099 12.5918C172.993 12.5919 172.909 12.6775 172.909 12.7829L172.915 16.1042C172.915 16.2095 173 16.2948 173.106 16.2946L176.717 16.2883C176.822 16.2881 176.907 16.2025 176.907 16.0971L176.902 12.7759C176.902 12.6706 176.816 12.5853 176.71 12.5854Z" fill="white"/>
<path d="M139.651 12.9858C139.651 12.9092 139.682 12.8358 139.736 12.7816C139.789 12.7274 139.864 12.697 139.94 12.697L148.756 12.7125C149.841 12.7143 150.916 12.9497 151.918 13.405C152.921 13.8604 153.832 14.5268 154.598 15.3663C155.365 16.2059 155.971 17.202 156.385 18.2978C156.799 19.3936 157.011 20.5678 157.008 21.7531V24.3213C157.004 26.7147 156.129 29.0085 154.576 30.698C153.022 32.3876 150.917 33.3348 148.724 33.3309L139.909 33.3155C139.832 33.3155 139.759 33.2852 139.705 33.231C139.65 33.1768 139.62 33.1033 139.62 33.0267L139.651 12.9858ZM143.783 16.5391L143.804 29.4941C143.804 29.5665 143.833 29.636 143.884 29.6873C143.935 29.7386 144.004 29.7674 144.077 29.7674L148.09 29.7622C149.301 29.7598 150.459 29.1849 151.314 28.1637C152.168 27.1424 152.646 25.7586 152.645 24.3162V21.6964C152.644 20.9815 152.525 20.2739 152.295 19.6137C152.063 18.9536 151.727 18.3541 151.302 17.8492C150.877 17.3445 150.372 16.9443 149.818 16.6718C149.264 16.3991 148.669 16.2594 148.069 16.2607L144.056 16.2658C143.983 16.2658 143.914 16.2946 143.863 16.3459C143.812 16.3972 143.783 16.4667 143.783 16.5391Z" fill="white"/>
<path d="M183.187 12.8052H179.525C179.428 12.8052 179.349 12.8837 179.349 12.9805V33.1451C179.349 33.2421 179.428 33.3205 179.525 33.3205H183.187C183.284 33.3205 183.363 33.2421 183.363 33.1451V12.9805C183.363 12.8837 183.284 12.8052 183.187 12.8052Z" fill="white"/>
<path d="M115.16 20.933H113.721C113.671 20.933 113.623 20.9232 113.577 20.9043C113.532 20.8853 113.491 20.8576 113.456 20.8225C113.422 20.7875 113.394 20.7459 113.376 20.7002C113.358 20.6546 113.349 20.6058 113.349 20.5565L113.36 18.5453C113.36 18.2565 113.502 18.1121 113.788 18.1121H115.186C115.395 18.1087 115.499 18.0021 115.495 17.7923L115.454 14.1926C115.454 14.1502 115.47 14.1095 115.499 14.0795C115.528 14.0496 115.568 14.0327 115.608 14.0327L119.24 14.0379C119.357 14.0379 119.414 14.0963 119.41 14.2132L119.395 17.849C119.391 18.021 119.477 18.1069 119.653 18.1069L121.401 18.1121C121.707 18.1154 121.862 18.2685 121.865 18.5711L121.886 20.4586C121.89 20.7748 121.733 20.933 121.417 20.933L119.653 20.9382C119.481 20.9382 119.395 21.0224 119.395 21.1909L119.4 29.7312C119.4 29.9719 119.51 30.1404 119.73 30.2366C120.325 30.5049 121.013 30.5719 121.793 30.4377C121.852 30.4275 121.881 30.4515 121.881 30.51L121.86 33.2898C121.86 33.3688 121.821 33.4118 121.742 33.4186C119.441 33.6301 115.438 33.924 115.469 30.4687C115.497 27.2747 115.497 24.1993 115.469 21.2425C115.466 21.0362 115.363 20.933 115.16 20.933Z" fill="white"/>
<path d="M76.9321 20.3348C76.9699 20.854 77.0938 20.8763 77.3035 20.4018C78.1803 18.4214 79.6884 17.5464 81.8273 17.7767C81.8625 17.7793 81.8953 17.7957 81.9193 17.8225C81.9433 17.8494 81.9564 17.8846 81.9562 17.9212L81.9717 21.6756C81.9717 21.7684 81.9236 21.8097 81.8273 21.7993C76.9579 21.2682 76.9681 24.2284 77.0869 27.89C77.1419 29.702 77.1401 31.4725 77.0816 33.2019C77.0816 33.2776 77.0439 33.3154 76.9681 33.3154H73.3368C73.2984 33.3154 73.2618 33.3002 73.2347 33.2732C73.2076 33.246 73.1924 33.2093 73.1924 33.171L73.1975 18.7618C73.1975 18.3252 73.4159 18.1069 73.8525 18.1069L76.4678 18.112C76.8668 18.112 77.0388 18.3097 76.9837 18.7051C76.9115 19.2552 76.8942 19.7984 76.9321 20.3348Z" fill="white"/>
<path d="M102.491 20.1182C103.774 18.1001 105.73 17.3763 108.361 17.947C114.706 19.3189 114.639 30.9794 109.3 33.2123C107.536 33.9481 105.839 33.9103 104.209 33.0988C103.605 32.7997 103.115 32.1809 102.682 31.6601C102.503 31.4469 102.414 31.4795 102.414 31.758L102.455 39.1432C102.458 39.2188 102.421 39.2565 102.342 39.2565L98.5811 39.2514C98.5261 39.2514 98.4986 39.2222 98.4986 39.1637V18.6278C98.4986 18.2942 98.6671 18.1275 99.0041 18.1275H101.815C102.115 18.1275 102.261 18.2788 102.254 18.5814L102.212 20.0305C102.202 20.395 102.295 20.4242 102.491 20.1182ZM105.691 30.5409C106.624 30.5426 107.52 30.0448 108.181 29.157C108.842 28.2695 109.215 27.0646 109.217 25.8076C109.219 25.1852 109.129 24.5687 108.953 23.9934C108.777 23.418 108.519 22.8951 108.193 22.4545C107.867 22.0137 107.48 21.664 107.053 21.4251C106.627 21.1862 106.17 21.0627 105.708 21.062C104.775 21.0604 103.879 21.5581 103.218 22.4458C102.557 23.3335 102.184 24.5384 102.182 25.7953C102.18 26.4177 102.27 27.0342 102.446 27.6095C102.622 28.1848 102.88 28.7077 103.206 29.1485C103.532 29.5891 103.919 29.9388 104.346 30.1778C104.772 30.4167 105.229 30.5401 105.691 30.5409Z" fill="white"/>
<path d="M137.663 26.6152C137.67 28.4699 136.939 30.2512 135.632 31.5673C134.325 32.8833 132.548 33.6262 130.693 33.6327L129.342 33.6376C127.487 33.644 125.705 32.9134 124.389 31.6065C123.072 30.2996 122.329 28.5234 122.323 26.6688L122.316 24.8431C122.31 22.9885 123.041 21.2072 124.348 19.8911C125.655 18.5751 127.432 17.8322 129.287 17.8257L130.638 17.8208C132.493 17.8144 134.275 18.545 135.591 19.8518C136.907 21.1587 137.65 22.9349 137.657 24.7896L137.663 26.6152ZM133.623 24.4794C133.627 23.5972 133.281 22.7494 132.661 22.1223C132.04 21.4952 131.195 21.1403 130.313 21.1357L129.746 21.1327C129.309 21.1303 128.876 21.2142 128.471 21.3793C128.067 21.5443 127.699 21.7873 127.388 22.0946C127.078 22.4018 126.831 22.7673 126.661 23.17C126.492 23.5727 126.404 24.0049 126.401 24.4416L126.388 26.9686C126.383 27.8508 126.729 28.6987 127.35 29.3257C127.971 29.9529 128.815 30.3078 129.698 30.3123L130.265 30.3154C130.702 30.3177 131.135 30.2339 131.54 30.0688C131.944 29.9039 132.312 29.6607 132.623 29.3535C132.933 29.0462 133.18 28.6808 133.35 28.2781C133.519 27.8754 133.607 27.4433 133.609 27.0064L133.623 24.4794Z" fill="white"/>
<path d="M166.738 31.691C164.272 34.481 158.804 34.6925 157.618 30.6183C156.869 28.0552 158.179 25.2908 160.862 24.6205C161.495 24.4623 162.972 24.2164 165.293 23.8829C165.884 23.797 166.292 23.6561 166.516 23.4601C167.438 22.6556 166.629 21.2992 165.586 21.0414C164.22 20.7061 162.028 20.8196 161.857 22.6298C161.834 22.8739 161.697 22.9976 161.45 23.001H158.309C158.026 23.001 157.905 22.8619 157.942 22.5833C158.283 20.077 159.711 18.3389 162.296 17.9109C164.952 17.4674 169.223 17.586 170.431 20.4224C170.712 21.0791 170.842 21.9267 170.817 22.965C170.748 25.9526 170.755 28.7857 170.838 31.4641C170.852 31.9178 171.069 32.3099 171.493 32.6399C172.078 33.0903 172 33.3155 171.261 33.3155H167.691C167.571 33.3141 167.456 33.2696 167.365 33.19C167.276 33.1104 167.218 33.0012 167.201 32.8823L167.062 31.789C167.027 31.5208 166.92 31.4881 166.738 31.691ZM163.327 30.8503C164.534 30.9071 165.85 30.2418 166.495 29.2259C167.073 28.3233 166.747 27.3228 166.938 26.3224C166.99 26.0679 166.894 25.9853 166.65 26.0748C165.607 26.4495 164.518 26.7194 163.38 26.8845C160.831 27.2557 160.553 30.7317 163.327 30.8503Z" fill="white"/>
<path d="M90.5035 28.7823L93.423 18.2409C93.4436 18.1619 93.4969 18.1223 93.5829 18.1223L97.5238 18.1378C97.6064 18.1378 97.6338 18.1773 97.6064 18.2564C95.8766 23.087 94.0747 28.2683 92.2005 33.8001C91.6777 35.337 91.1173 36.6504 90.5189 37.7403C89.4253 39.7206 86.8462 39.5401 84.8912 39.3442C84.8053 39.334 84.7622 39.2857 84.7622 39.1998V36.3478C84.7625 36.327 84.7675 36.3066 84.7766 36.288C84.7858 36.2694 84.7991 36.253 84.8153 36.2401C84.8316 36.2273 84.8507 36.2182 84.8709 36.2137C84.8912 36.2091 84.9123 36.2091 84.9326 36.2138C86.4078 36.5473 87.4119 36.1261 87.9449 34.9503C88.1822 34.4311 88.1513 33.7642 87.8521 32.9493C86.0364 27.9708 84.293 23.0646 82.6217 18.2306C82.6185 18.2193 82.6179 18.2074 82.6201 18.196C82.6222 18.1844 82.6269 18.1735 82.6339 18.1641C82.6408 18.1546 82.6498 18.1469 82.6603 18.1415C82.6706 18.136 82.6821 18.1329 82.6938 18.1327L86.872 18.1223C86.9339 18.1223 86.9735 18.1515 86.9907 18.21L90.0649 28.7874C90.2163 29.2997 90.3624 29.298 90.5035 28.7823Z" fill="white"/>
<path d="M176.713 18.1169H173.102C172.997 18.1169 172.912 18.2024 172.912 18.3078V33.1297C172.912 33.235 172.997 33.3204 173.102 33.3204H176.713C176.819 33.3204 176.904 33.235 176.904 33.1297V18.3078C176.904 18.2024 176.819 18.1169 176.713 18.1169Z" fill="white"/>
<path d="M192.631 28.7978L195.571 18.2203C195.592 18.1447 195.642 18.1069 195.722 18.1069L199.703 18.1275C199.717 18.1278 199.731 18.1311 199.743 18.1374C199.754 18.1436 199.765 18.1526 199.773 18.1636C199.782 18.1746 199.787 18.1873 199.789 18.2007C199.791 18.2142 199.79 18.228 199.786 18.241C197.767 23.9448 195.807 29.5576 193.906 35.0793C192.606 38.8544 191.336 39.7981 187.221 39.3855C186.984 39.3615 186.865 39.2307 186.865 38.9935V36.5439C186.865 36.3136 186.98 36.2155 187.21 36.2499C189.211 36.5439 190.847 35.2958 190.068 33.1762C188.308 28.38 186.534 23.3965 184.75 18.2255C184.746 18.2139 184.744 18.2014 184.746 18.1893C184.749 18.1771 184.753 18.1654 184.76 18.1553C184.766 18.1453 184.776 18.137 184.787 18.1312C184.798 18.1256 184.809 18.1225 184.822 18.1224L189.021 18.112C189.099 18.1086 189.151 18.1447 189.171 18.2203L192.24 28.7978C192.373 29.262 192.504 29.262 192.631 28.7978Z" fill="white"/>
</g>
</g>
</g>
<defs>
<clipPath id="clip0_4_1372">
<rect width="199" height="50" fill="white" transform="translate(0.790039 0.187012)"/>
</clipPath>
<clipPath id="clip1_4_1372">
<rect width="199" height="50" fill="white" transform="translate(0.790039 0.187012)"/>
</clipPath>
<clipPath id="clip2_4_1372">
<rect width="199" height="47.9917" fill="white" transform="translate(0.790039 1.19116)"/>
</clipPath>
</defs>
</svg>
