<svg width="25" height="12" viewBox="0 0 25 12" fill="none" xmlns="http://www.w3.org/2000/svg">
<path d="M10.9933 2.32636C11.2398 2.59634 11.4487 2.89622 11.62 3.2259C11.6542 3.29291 11.6919 3.35764 11.7318 3.42031C11.8232 3.56392 11.8574 3.73995 11.9328 3.89874C11.9727 3.98515 12.007 4.07693 12.0355 4.17408C12.3072 5.09417 12.3346 6.02545 12.12 6.9678C12.1086 7.02259 12.088 7.07408 12.0606 7.12225C12.0218 7.18926 12.0458 7.2702 12.0161 7.35227C11.5515 8.69211 10.6907 9.71118 9.43618 10.4095C9.35741 10.4538 9.33001 10.5111 9.23412 10.524C9.19759 10.529 9.16221 10.5395 9.12911 10.5554C8.55605 10.831 8.01494 10.9974 7.50581 11.0542C7.02065 11.1082 6.44645 11.1125 5.78435 11.0672C5.54463 11.051 5.35284 10.9775 5.12225 10.9375C5.03777 10.9225 4.95216 10.8976 4.86654 10.8631C4.6622 10.7799 4.44417 10.7346 4.24897 10.6385C4.01609 10.5254 3.80148 10.4109 3.60627 10.2951C2.35513 9.55638 1.53207 8.48264 1.13824 7.07362C0.964723 6.45878 0.921342 5.77271 1.0081 5.0154C1.01837 4.92967 1.03664 4.84657 1.06289 4.76586C1.08116 4.71118 1.09029 4.65353 1.08915 4.59314C1.08915 4.53766 1.09713 4.48184 1.11426 4.42568C1.54462 2.94771 2.43389 1.82168 3.78092 1.04771C3.84827 1.0081 3.92133 0.976132 3.99668 0.951589C4.10398 0.917114 4.16335 0.840402 4.27522 0.796109C5.15536 0.446223 6.05718 0.29394 6.97955 0.339373C7.22841 0.351246 7.5138 0.419283 7.7775 0.444055C7.85855 0.451246 7.94075 0.474647 8.02522 0.514259C8.11654 0.55741 8.27522 0.55958 8.38595 0.596338C9.29577 0.89942 10.0857 1.38104 10.7535 2.04132C10.8449 2.13093 10.9065 2.23024 10.9933 2.32636ZM9.07317 6.75182C9.08002 6.72956 9.09143 6.7097 9.10627 6.69246C9.13823 6.65787 9.15649 6.61723 9.16106 6.57043C9.19074 6.22807 9.28663 5.89874 9.26037 5.55205C9.19645 4.72122 8.86084 4.04885 8.25239 3.53481C8.15764 3.45433 8.05491 3.3831 7.94532 3.32202C7.28093 2.95273 6.60513 2.86883 5.91906 3.07043C5.596 3.1654 5.30947 3.32099 5.05947 3.53698C4.76723 3.78743 4.54348 4.03835 4.38595 4.2896C4.2638 4.48469 4.17134 4.70581 4.10628 4.95273C4.04121 5.19965 3.99896 5.421 3.98069 5.61689C3.96357 5.80113 3.99211 6.04668 4.06517 6.3533C4.09713 6.48835 4.1622 6.56072 4.15535 6.71083C4.15307 6.75467 4.16449 6.79508 4.18961 6.83173C4.33687 7.04554 4.41792 7.26266 4.58801 7.47533C5.10056 8.11906 5.73755 8.45775 6.50239 8.49154C7.07203 8.51677 7.59143 8.37853 8.05719 8.07693C8.53664 7.76586 8.87454 7.32419 9.07317 6.75182Z" fill="white"/>
<path d="M24.7056 5.41153V10.8543L21.8745 10.8522C21.8346 10.8522 21.8152 10.8328 21.8152 10.7938C21.8186 9.12078 21.8174 7.47489 21.8129 5.85651C21.8117 5.51165 21.7535 5.16359 21.6382 4.81222C21.4898 4.36518 21.2604 3.9879 20.9487 3.68048C20.6371 3.37238 20.2615 3.17512 19.8243 3.0887C19.1816 2.9613 18.5971 3.07614 18.0709 3.43322C17.5663 3.77592 17.2124 4.30719 17.0092 5.02717C16.9807 5.13014 16.9647 5.23984 16.9613 5.35651C16.9579 5.51952 16.9008 5.66108 16.9008 5.82523C16.8985 7.48756 16.8973 9.14521 16.8996 10.7982C16.8996 10.8128 16.8939 10.8268 16.8836 10.8371C16.8734 10.8475 16.8597 10.8533 16.8448 10.8533H13.9613C13.9544 10.8533 13.9476 10.8519 13.9419 10.8494C13.935 10.8468 13.9293 10.8432 13.9248 10.8384C13.9202 10.8337 13.9168 10.8281 13.9145 10.8219C13.911 10.8158 13.9099 10.8091 13.9099 10.8025V0.671807C13.9099 0.665528 13.9122 0.659477 13.9168 0.655025C13.9213 0.650573 13.927 0.648061 13.9339 0.648061H16.2718C16.2946 0.648176 16.3174 0.654683 16.338 0.666783C16.3574 0.678998 16.3734 0.696463 16.3836 0.71724L16.7706 1.48071C16.7741 1.48904 16.7809 1.49635 16.7878 1.50206C16.7958 1.50776 16.8037 1.51176 16.8129 1.51359C16.822 1.51541 16.8323 1.51519 16.8414 1.5129C16.8494 1.51062 16.8585 1.50617 16.8654 1.50012C17.3266 1.10206 17.8277 0.803542 18.3688 0.604912C19.0343 0.360848 19.7044 0.297833 20.3825 0.41587C20.475 0.431738 20.5674 0.439613 20.6565 0.439613C20.6964 0.439613 20.7318 0.449432 20.7649 0.468839C20.9225 0.562788 21.0903 0.546578 21.2626 0.624318C21.3951 0.683336 21.5241 0.732994 21.6508 0.773405C21.7992 0.818724 21.8631 0.928884 22.0035 0.971008C22.056 0.986875 22.1063 1.01028 22.1553 1.04121C23.0891 1.6395 23.7809 2.44898 24.2295 3.46987C24.5012 4.08756 24.6599 4.73482 24.7056 5.41153Z" fill="white"/>
</svg>
