<svg width="200" height="51" viewBox="0 0 200 51" fill="none" xmlns="http://www.w3.org/2000/svg">
<g clip-path="url(#clip0_4_1276)">
<g clip-path="url(#clip1_4_1276)">
<g clip-path="url(#clip2_4_1276)">
<path d="M79.3601 14.1301C79.351 13.7621 79.4763 13.5032 79.7993 13.3242C86.4126 9.6538 93.105 5.93432 99.8763 2.16589C100.189 1.99279 100.479 2.05097 100.774 2.21535C107.484 5.94596 114.164 9.65913 120.814 13.3548C120.93 13.4194 121.027 13.5125 121.094 13.6249C121.162 13.7373 121.197 13.8649 121.197 13.9948L121.199 15.5237C121.199 15.5741 121.225 15.5993 121.277 15.5993H122.967C122.985 15.5993 123.002 15.5924 123.015 15.5799C123.029 15.5674 123.036 15.5504 123.037 15.5324C123.072 14.839 123.065 14.2257 123.014 13.6923C122.933 12.8137 122.384 12.1577 121.606 11.7257C114.845 7.97466 108.239 4.30466 101.787 0.715632C101.097 0.331613 100.452 0.193909 99.8536 0.30252C99.5266 0.361675 99.0249 0.579382 98.3487 0.955644C92.0554 4.45158 85.7067 7.98 79.3027 11.5409C78.7331 11.8571 78.3532 12.1208 78.163 12.3322C77.348 13.2385 77.4928 14.3498 77.514 15.5062C77.515 15.5663 77.5467 15.5964 77.6091 15.5964L79.274 15.5993C79.3364 15.6002 79.3681 15.5702 79.3691 15.5091C79.3751 15.0757 79.3721 14.616 79.3601 14.1301Z" stroke="#7B7B7B" stroke-width="0.158983"/>
<path d="M100.619 7.74291C105.267 10.3214 109.935 12.9156 114.622 15.5251C114.713 15.5757 114.816 15.6022 114.921 15.6022L117.605 15.5964C117.615 15.5962 117.624 15.5935 117.633 15.5886C117.641 15.5837 117.649 15.5767 117.653 15.5683C117.658 15.56 117.66 15.5507 117.66 15.5413C117.66 15.5319 117.657 15.5228 117.651 15.5149C117.403 15.1319 117.08 14.8298 116.682 14.6087C111.803 11.8973 106.973 9.20865 102.192 6.54285C101.559 6.19083 101.095 5.98234 100.802 5.91737C100.187 5.7816 99.5562 5.89361 98.9102 6.25338C93.919 9.0259 88.9147 11.8067 83.8974 14.5956C83.4929 14.8206 83.1733 15.1168 82.9389 15.4844C82.8895 15.56 82.9112 15.5978 83.0037 15.5978L85.686 15.6008C85.7622 15.6008 85.8376 15.5812 85.9049 15.544C90.5076 12.9849 95.051 10.4563 99.5351 7.9582C99.914 7.74727 100.252 7.53781 100.619 7.74291Z" stroke="#7B7B7B" stroke-width="0.158983"/>
<path d="M100.729 13.3925C101.793 13.9782 103.094 14.7021 104.632 15.5642C104.674 15.588 104.722 15.6005 104.771 15.6006L108.225 15.5991C108.349 15.5991 108.357 15.5695 108.249 15.5104C106.032 14.2779 103.874 13.0773 101.775 11.9088C100.783 11.356 99.8193 11.3395 98.8845 11.8593C96.7018 13.0715 94.5142 14.2861 92.3215 15.5032C92.1957 15.5739 92.2057 15.6083 92.3517 15.6064C93.4103 15.5958 94.4875 15.5953 95.5834 15.605C95.7735 15.6069 95.9612 15.5555 96.1464 15.4508C97.3016 14.7982 98.4623 14.1503 99.6286 13.5074C100.012 13.2965 100.297 13.154 100.729 13.3925Z" stroke="#7B7B7B" stroke-width="0.158983"/>
<path d="M51.7977 19.5469C53.4173 19.3113 54.9419 19.5818 56.2203 20.5318C56.4815 20.7252 56.8725 20.862 57.1155 20.5535C57.3278 20.284 57.5416 19.9974 57.757 19.6938C57.8103 19.6192 57.8017 19.5518 57.7313 19.4917C56.7894 18.6902 55.6377 18.0807 54.397 17.8683C49.7343 17.0712 45.5758 19.7215 45.209 24.3821C44.7985 29.6129 48.3094 33.3105 53.849 32.5484C55.3977 32.335 56.7205 31.6543 57.8174 30.5061C57.8496 30.4721 57.8501 30.4377 57.8189 30.4027C57.5522 30.0992 57.2926 29.8292 57.04 29.5926C56.8246 29.3919 56.6088 29.3928 56.3924 29.5954C55.5633 30.3713 54.5353 30.8062 53.3086 30.9003C51.1109 31.069 49.4706 30.4096 48.3879 28.922C47.4037 27.5692 47.129 25.8222 47.3554 24.1668C47.6845 21.7609 49.2694 19.9136 51.7977 19.5469Z" stroke="#7B7B7B" stroke-width="0.158983"/>
<path d="M59.6951 25.9574C60.0136 30.122 63.2529 32.8174 67.5502 32.6268C71.1698 32.4668 73.8944 30.1918 74.4756 26.7632C74.9193 24.1435 74.2989 21.3899 72.2657 19.56C70.231 17.7301 67.1427 17.3199 64.5857 18.1127C61.0506 19.208 59.431 22.4809 59.6951 25.9574Z" stroke="#7B7B7B" stroke-width="0.158983"/>
<path d="M92.708 23.2389C91.7435 27.5285 93.9473 31.9796 98.8031 32.5615C100.227 32.7322 101.531 32.6119 102.714 32.2007C106.198 30.9905 107.731 27.7292 107.39 24.276C107.058 20.9085 104.811 18.3629 101.254 17.8262C100.151 17.6594 99.0577 17.702 97.976 17.9542C95.2303 18.5943 93.3013 20.6045 92.708 23.2389Z" stroke="#7B7B7B" stroke-width="0.158983"/>
<path d="M42.0301 17.9629C42.0301 17.9436 42.0222 17.9251 42.008 17.9114C41.9939 17.8978 41.9747 17.8901 41.9547 17.8901H40.0316C40.0116 17.8901 39.9924 17.8978 39.9783 17.9114C39.9641 17.9251 39.9562 17.9436 39.9562 17.9629V32.3985C39.9562 32.4178 39.9641 32.4363 39.9783 32.4499C39.9924 32.4636 40.0116 32.4712 40.0316 32.4712H41.9547C41.9747 32.4712 41.9939 32.4636 42.008 32.4499C42.0222 32.4363 42.0301 32.4178 42.0301 32.3985V17.9629Z" stroke="#7B7B7B" stroke-width="0.158983"/>
<path d="M87.4959 25.8468C87.5211 25.8468 87.5453 25.8565 87.5631 25.8737C87.581 25.8909 87.591 25.9142 87.591 25.9385V32.3912C87.591 32.4155 87.601 32.4388 87.6188 32.456C87.6367 32.4731 87.6609 32.4828 87.6861 32.4828L89.591 32.4727C89.6162 32.4727 89.6404 32.463 89.6582 32.4458C89.6761 32.4286 89.6861 32.4053 89.6861 32.381V17.9846C89.6861 17.9604 89.6761 17.937 89.6582 17.9198C89.6404 17.9026 89.6162 17.893 89.591 17.893L87.6876 17.8843C87.6624 17.8843 87.6382 17.8939 87.6204 17.9111C87.6025 17.9283 87.5925 17.9516 87.5925 17.9759L87.5956 24.2962C87.5956 24.3205 87.5855 24.3438 87.5677 24.361C87.5498 24.3782 87.5257 24.3879 87.5004 24.3879L79.5623 24.3893C79.5498 24.3893 79.5374 24.387 79.5259 24.3824C79.5144 24.3778 79.5039 24.371 79.4951 24.3625C79.4863 24.354 79.4793 24.3439 79.4744 24.3328C79.4696 24.3216 79.4672 24.3097 79.4672 24.2977V17.9788C79.4672 17.9545 79.4572 17.9312 79.4394 17.914C79.4215 17.8968 79.3973 17.8871 79.3721 17.8871L77.4853 17.8901C77.4601 17.8901 77.4359 17.8997 77.418 17.9169C77.4002 17.9341 77.3902 17.9574 77.3902 17.9817V32.397C77.3902 32.4213 77.4002 32.4446 77.418 32.4618C77.4359 32.479 77.4601 32.4886 77.4853 32.4886L79.3781 32.4843C79.4033 32.4843 79.4276 32.4746 79.4454 32.4574C79.4632 32.4402 79.4732 32.4169 79.4732 32.3926L79.4853 25.9399C79.4853 25.9157 79.4953 25.8923 79.5132 25.8751C79.531 25.858 79.5552 25.8483 79.5804 25.8483L87.4959 25.8468Z" stroke="#7B7B7B" stroke-width="0.158983"/>
<path d="M112.356 30.8072C112.348 30.8072 112.34 30.8056 112.332 30.8025C112.324 30.7995 112.317 30.795 112.312 30.7893C112.306 30.7836 112.301 30.7769 112.298 30.7694C112.295 30.762 112.293 30.7541 112.293 30.7461L112.291 17.9498C112.291 17.9336 112.285 17.9181 112.273 17.9066C112.261 17.8951 112.245 17.8887 112.228 17.8887H110.281C110.264 17.8887 110.248 17.8951 110.236 17.9066C110.224 17.9181 110.217 17.9336 110.217 17.9498V32.4116C110.217 32.4197 110.219 32.4276 110.222 32.435C110.226 32.4424 110.23 32.4492 110.236 32.4548C110.242 32.4605 110.249 32.465 110.257 32.4681C110.264 32.4711 110.273 32.4727 110.281 32.4727H118.779C118.796 32.4727 118.812 32.4663 118.824 32.4548C118.836 32.4434 118.842 32.4279 118.842 32.4116L118.829 30.8654C118.829 30.8492 118.822 30.8336 118.81 30.8221C118.798 30.8107 118.782 30.8043 118.765 30.8043L112.356 30.8072Z" stroke="#7B7B7B" stroke-width="0.158983"/>
<path d="M121.103 17.9789L121.052 32.3709C121.052 32.4015 121.064 32.4309 121.087 32.4527C121.11 32.4745 121.14 32.4869 121.172 32.4873L126.96 32.5062C127.909 32.5095 128.85 32.3325 129.728 31.9855C130.606 31.6385 131.405 31.1282 132.079 30.4838C132.753 29.8394 133.288 29.0734 133.654 28.2296C134.021 27.3859 134.211 26.4808 134.215 25.5662L134.218 24.8709C134.224 23.0239 133.469 21.2502 132.118 19.9397C130.767 18.6293 128.932 17.8894 127.014 17.8829L121.226 17.8626C121.21 17.8623 121.194 17.8652 121.179 17.871C121.164 17.8767 121.151 17.8853 121.139 17.8961C121.128 17.9069 121.119 17.9198 121.113 17.934C121.106 17.9483 121.103 17.9635 121.103 17.9789Z" stroke="#7B7B7B" stroke-width="0.158983"/>
<path d="M139.153 24.353C139.132 24.353 139.112 24.3449 139.097 24.3304C139.082 24.316 139.073 24.2963 139.073 24.2759L139.06 19.608C139.06 19.5876 139.068 19.568 139.083 19.5536C139.098 19.5391 139.118 19.5309 139.14 19.5309L146.257 19.5179C146.278 19.5179 146.298 19.5098 146.313 19.4953C146.328 19.4808 146.337 19.4612 146.337 19.4408L146.332 17.9672C146.332 17.9468 146.323 17.9272 146.308 17.9127C146.294 17.8982 146.273 17.8901 146.252 17.8901L137.051 17.8931C137.029 17.8931 137.009 17.9012 136.994 17.9157C136.979 17.9301 136.971 17.9497 136.971 17.9702L136.969 32.3956C136.969 32.4161 136.978 32.4357 136.993 32.4502C137.008 32.4645 137.028 32.4727 137.049 32.4727H146.257C146.278 32.4727 146.298 32.4645 146.313 32.4502C146.328 32.4357 146.337 32.4161 146.337 32.3956L146.331 30.9439C146.331 30.9234 146.322 30.9038 146.308 30.8893C146.292 30.875 146.272 30.8668 146.25 30.8668H139.13C139.11 30.8668 139.089 30.8587 139.074 30.8442C139.059 30.8297 139.051 30.8102 139.051 30.7897L139.061 25.9822C139.061 25.9618 139.07 25.9421 139.085 25.9277C139.099 25.9132 139.12 25.9051 139.141 25.9051L144.854 25.9065C144.876 25.9065 144.896 25.8984 144.911 25.8839C144.926 25.8695 144.935 25.8499 144.935 25.8295L144.936 24.4287C144.936 24.4082 144.928 24.3886 144.912 24.3742C144.897 24.3597 144.877 24.3516 144.856 24.3516L139.153 24.353Z" stroke="#7B7B7B" stroke-width="0.158983"/>
<path d="M155.724 26.036C158.234 25.4963 159.688 23.4991 159.215 21.0132C158.726 18.4473 155.982 17.8959 153.692 17.8945C152.349 17.8936 150.964 17.892 149.538 17.8901C149.518 17.8901 149.5 17.8975 149.486 17.9106C149.472 17.9237 149.464 17.9414 149.464 17.9599V32.3971C149.464 32.407 149.467 32.4168 149.47 32.426C149.474 32.4352 149.48 32.4436 149.486 32.4506C149.494 32.4575 149.502 32.4631 149.512 32.4669C149.521 32.4707 149.531 32.4727 149.541 32.4727L151.472 32.4698C151.509 32.4698 151.528 32.4518 151.528 32.416L151.531 26.4651C151.531 26.4488 151.537 26.4331 151.548 26.4214C151.56 26.4097 151.576 26.4029 151.593 26.4025C152.131 26.388 152.676 26.3895 153.226 26.4069C153.573 26.4166 153.844 26.5505 154.04 26.8084C155.403 28.6141 156.75 30.3984 158.08 32.1614C158.23 32.3602 158.436 32.4615 158.698 32.4654C159.265 32.4732 159.89 32.4776 160.572 32.4785C160.582 32.4783 160.591 32.4757 160.599 32.4707C160.607 32.4658 160.614 32.4589 160.618 32.4507C160.622 32.4425 160.625 32.4333 160.624 32.4241C160.623 32.4149 160.62 32.406 160.614 32.3985C159.029 30.3087 157.564 28.3901 156.219 26.6426C156.077 26.4593 155.905 26.2828 155.704 26.1131C155.698 26.1075 155.693 26.1004 155.691 26.0924C155.688 26.0844 155.688 26.0759 155.69 26.068C155.691 26.0599 155.695 26.0527 155.702 26.0471C155.708 26.0414 155.715 26.0376 155.724 26.036Z" stroke="#7B7B7B" stroke-width="0.158983"/>
<path d="M99.9095 48.2305L79.7223 37.0111C79.6158 36.9523 79.5274 36.8675 79.4656 36.7651C79.4039 36.6627 79.3711 36.5464 79.3706 36.4278L79.3646 34.8466C79.3646 34.8353 79.3623 34.8242 79.3576 34.8138C79.3531 34.8033 79.3464 34.7939 79.338 34.7859C79.3296 34.7779 79.3196 34.7716 79.3087 34.7673C79.2976 34.763 79.2859 34.7607 79.274 34.7607L77.6121 34.7637C77.5457 34.7637 77.512 34.7957 77.511 34.8597C77.4918 35.6142 77.5045 36.2363 77.5487 36.726C77.594 37.2312 77.8134 37.6855 78.2068 38.089C78.4101 38.2975 78.8036 38.5636 79.3872 38.8875C85.8084 42.4572 92.23 46.0258 98.6522 49.5935C99.3751 49.9964 99.9382 50.2059 100.764 50.0619C101.064 50.0095 101.339 49.913 101.591 49.7724C108.411 45.9866 115.15 42.2409 121.808 38.5355C122.595 38.0977 123.052 37.2118 123.051 36.3405C123.05 35.8779 123.051 35.3872 123.054 34.8685C123.054 34.8398 123.042 34.8125 123.021 34.7923C123 34.7721 122.971 34.7607 122.942 34.7607L121.273 34.7623C121.253 34.7623 121.234 34.7697 121.22 34.7831C121.207 34.7965 121.199 34.8146 121.199 34.8335V36.3943C121.199 36.5216 121.164 36.6467 121.098 36.7568C121.032 36.8668 120.937 36.958 120.823 37.0212L100.652 48.2305C100.539 48.2933 100.411 48.3264 100.281 48.3264C100.15 48.3264 100.022 48.2933 99.9095 48.2305Z" stroke="#7B7B7B" stroke-width="0.158983"/>
<path d="M100.604 42.6492C100.506 42.7037 100.394 42.7324 100.281 42.7324C100.167 42.7324 100.056 42.7037 99.9579 42.6492L85.9337 34.8539C85.8229 34.7929 85.6975 34.7608 85.5699 34.7607L82.948 34.7623C82.9398 34.7623 82.9316 34.7644 82.9244 34.7684C82.9172 34.7723 82.9111 34.7781 82.9069 34.785C82.9027 34.7918 82.9003 34.7996 82.9002 34.8076C82.8999 34.8156 82.9018 34.8235 82.9057 34.8306C83.1362 35.2272 83.4577 35.5405 83.8703 35.7703C88.6119 38.4061 93.6444 41.2023 98.9677 44.1591C99.8039 44.6246 100.779 44.6144 101.644 44.1329C106.741 41.3032 111.77 38.5079 116.732 35.747C117.105 35.5385 117.408 35.2447 117.642 34.8655C117.649 34.8551 117.652 34.8432 117.652 34.831C117.652 34.8189 117.649 34.8069 117.643 34.7964C117.636 34.7859 117.627 34.7772 117.616 34.7712C117.605 34.7652 117.593 34.7621 117.581 34.7623H114.951C114.846 34.7623 114.749 34.7875 114.658 34.8378L100.604 42.6492Z" stroke="#7B7B7B" stroke-width="0.158983"/>
<path d="M101.944 38.3902C104.165 37.1383 106.281 35.962 108.293 34.8614C108.304 34.8549 108.313 34.8448 108.317 34.8328C108.321 34.8207 108.321 34.8076 108.316 34.7959C108.302 34.7677 108.279 34.7542 108.245 34.7552C107.137 34.7619 106.022 34.7639 104.9 34.761C104.789 34.761 104.68 34.7896 104.584 34.8439C103.315 35.5557 102.03 36.2699 100.728 36.9866C100.432 37.1495 100.143 37.1538 99.8627 36.9996C98.5455 36.2781 97.2504 35.5572 95.9774 34.8367C95.8914 34.788 95.7935 34.7624 95.6936 34.7624L92.3336 34.7595C92.1867 34.7595 92.1766 34.7949 92.3034 34.8657C94.47 36.0701 96.6537 37.2862 98.8544 38.5139C99.8883 39.0899 100.886 38.9867 101.944 38.3902Z" stroke="#7B7B7B" stroke-width="0.158983"/>
<path d="M72.3863 26.5001C73.0098 22.5712 70.8936 18.9696 66.3215 19.5194C63.9003 19.8103 62.2958 21.4599 61.9033 23.7436C61.3615 26.8929 62.5312 30.4203 66.2882 30.8567C69.4928 31.2276 71.9018 29.5577 72.3863 26.5001Z" stroke="#7B7B7B" stroke-width="0.158983"/>
<path d="M105.292 24.5174C105.036 21.2664 102.749 19.1368 99.2725 19.5033C95.5985 19.8903 94.2687 23.057 94.6702 26.2542C95.0913 29.6086 97.8084 31.4283 101.233 30.7854C104.374 30.1963 105.512 27.3147 105.292 24.5174Z" stroke="#7B7B7B" stroke-width="0.158983"/>
<path d="M123.165 19.5805L123.145 30.7984C123.145 30.8223 123.154 30.8453 123.172 30.8622C123.189 30.8791 123.213 30.8886 123.238 30.8886L126.821 30.8944C128.214 30.8968 129.55 30.3599 130.536 29.4022C131.522 28.4444 132.078 27.144 132.08 25.7873L132.083 24.6207C132.084 23.9488 131.95 23.2833 131.687 22.6623C131.424 22.0411 131.039 21.4765 130.552 21.0006C130.065 20.5247 129.487 20.1469 128.85 19.8888C128.215 19.6306 127.532 19.4971 126.843 19.496L123.259 19.4902C123.234 19.4902 123.211 19.4997 123.193 19.5166C123.176 19.5336 123.165 19.5565 123.165 19.5805Z" stroke="#7B7B7B" stroke-width="0.158983"/>
<path d="M151.533 19.528L151.523 24.8462C151.523 24.855 151.525 24.8636 151.529 24.8718C151.532 24.8799 151.537 24.8873 151.544 24.8935C151.55 24.8997 151.557 24.9046 151.566 24.908C151.575 24.9113 151.583 24.9131 151.593 24.9131L154.257 24.9175C154.655 24.9181 155.048 24.8528 155.416 24.7251C155.785 24.5974 156.118 24.41 156.401 24.1735C156.682 23.9369 156.906 23.6559 157.059 23.3466C157.211 23.0373 157.29 22.7055 157.291 22.3704V22.0213C157.292 21.3447 156.974 20.6954 156.406 20.2161C155.839 19.7369 155.069 19.4668 154.265 19.4656L151.602 19.4612C151.583 19.4612 151.566 19.4682 151.552 19.4807C151.54 19.4933 151.533 19.5103 151.533 19.528Z" stroke="#7B7B7B" stroke-width="0.158983"/>
<path d="M79.7993 13.3242C79.4763 13.5032 79.351 13.7621 79.3601 14.1301C79.3721 14.616 79.3751 15.0757 79.3691 15.5091C79.3681 15.5702 79.3364 15.6002 79.274 15.5993L77.6091 15.5964C77.5467 15.5964 77.515 15.5663 77.514 15.5062C77.4928 14.3498 77.348 13.2385 78.163 12.3322C78.3532 12.1208 78.7331 11.8571 79.3027 11.5409C85.7067 7.98 92.0554 4.45158 98.3487 0.955644C99.0249 0.579382 99.5266 0.361675 99.8536 0.30252C100.452 0.193909 101.097 0.331613 101.787 0.715632C108.239 4.30466 114.845 7.97466 121.606 11.7257C122.384 12.1577 122.933 12.8137 123.014 13.6923C123.065 14.2257 123.072 14.839 123.037 15.5324C123.036 15.5504 123.029 15.5674 123.015 15.5799C123.002 15.5924 122.985 15.5993 122.967 15.5993H121.277C121.225 15.5993 121.199 15.5741 121.199 15.5237L121.197 13.9948C121.197 13.8649 121.162 13.7373 121.094 13.6249C121.027 13.5125 120.93 13.4194 120.814 13.3548C114.164 9.65913 107.484 5.94596 100.774 2.21535C100.479 2.05097 100.189 1.99279 99.8763 2.16589C93.105 5.93432 86.4126 9.6538 79.7993 13.3242Z" fill="white"/>
<path d="M100.619 7.74291C100.252 7.53781 99.9141 7.74727 99.5353 7.9582C95.0512 10.4563 90.5078 12.9849 85.9051 15.544C85.8378 15.5812 85.7623 15.6008 85.6862 15.6008L83.0039 15.5978C82.9114 15.5978 82.8897 15.56 82.939 15.4844C83.1734 15.1168 83.493 14.8206 83.8975 14.5956C88.9149 11.8067 93.9192 9.0259 98.9103 6.25338C99.5564 5.89361 100.187 5.7816 100.802 5.91737C101.095 5.98234 101.559 6.19083 102.192 6.54285C106.973 9.20865 111.803 11.8973 116.682 14.6087C117.08 14.8298 117.403 15.1319 117.652 15.5149C117.657 15.5228 117.66 15.5319 117.66 15.5413C117.661 15.5507 117.658 15.56 117.653 15.5683C117.649 15.5767 117.642 15.5837 117.633 15.5886C117.624 15.5935 117.615 15.5962 117.605 15.5964L114.921 15.6022C114.816 15.6022 114.713 15.5757 114.622 15.5251C109.935 12.9156 105.267 10.3214 100.619 7.74291Z" fill="white"/>
<path d="M100.729 13.3925C100.297 13.1539 100.012 13.2965 99.6288 13.5073C98.4625 14.1503 97.3018 14.7981 96.1465 15.4507C95.9614 15.5554 95.7737 15.6069 95.5835 15.605C94.4877 15.5953 93.4104 15.5957 92.3518 15.6064C92.2059 15.6083 92.1959 15.5739 92.3216 15.5031C94.5143 14.286 96.702 13.0715 98.8847 11.8593C99.8195 11.3395 100.783 11.356 101.775 11.9088C103.874 13.0773 106.032 14.2779 108.249 15.5104C108.357 15.5695 108.349 15.5991 108.225 15.5991L104.771 15.6006C104.722 15.6005 104.674 15.5879 104.633 15.5642C103.094 14.7021 101.793 13.9782 100.729 13.3925Z" fill="white"/>
<path d="M56.2203 20.5318C54.9419 19.5818 53.4173 19.3113 51.7977 19.5469C49.2694 19.9136 47.6845 21.7609 47.3554 24.1668C47.129 25.8222 47.4037 27.5692 48.3879 28.922C49.4706 30.4096 51.1109 31.069 53.3086 30.9003C54.5353 30.8062 55.5633 30.3713 56.3924 29.5954C56.6088 29.3928 56.8246 29.3919 57.04 29.5926C57.2926 29.8292 57.5522 30.0992 57.8189 30.4027C57.8501 30.4377 57.8496 30.4721 57.8174 30.5061C56.7205 31.6543 55.3977 32.335 53.849 32.5484C48.3094 33.3105 44.7985 29.6129 45.209 24.3821C45.5758 19.7215 49.7343 17.0712 54.397 17.8683C55.6377 18.0807 56.7894 18.6902 57.7313 19.4917C57.8017 19.5518 57.8103 19.6192 57.757 19.6938C57.5416 19.9974 57.3278 20.284 57.1155 20.5535C56.8725 20.862 56.4815 20.7252 56.2203 20.5318Z" fill="white"/>
<path d="M67.5501 32.6271C63.2528 32.8176 60.0135 30.1222 59.695 25.9577C59.4309 22.4811 61.0505 19.2082 64.5856 18.1129C67.1425 17.3202 70.2309 17.7303 72.2656 19.5602C74.2988 21.3902 74.9192 24.1438 74.4755 26.7635C73.8943 30.192 71.1697 32.4671 67.5501 32.6271ZM72.3863 26.5002C73.0098 22.5713 70.8935 18.9697 66.3215 19.5195C63.9003 19.8105 62.2958 21.46 61.9034 23.7438C61.3615 26.893 62.5313 30.4204 66.2882 30.8568C69.4928 31.2277 71.9018 29.5578 72.3863 26.5002Z" fill="white"/>
<path d="M92.708 23.2389C93.3013 20.6045 95.2303 18.5943 97.976 17.9542C99.0577 17.702 100.151 17.6594 101.254 17.8262C104.811 18.3629 107.058 20.9085 107.39 24.276C107.731 27.7292 106.198 30.9905 102.714 32.2007C101.531 32.6119 100.227 32.7322 98.8031 32.5615C93.9473 31.9796 91.7435 27.5285 92.708 23.2389ZM105.292 24.5174C105.036 21.2664 102.749 19.1368 99.2726 19.5033C95.5986 19.8903 94.2687 23.057 94.6703 26.2543C95.0914 29.6086 97.8084 31.4284 101.233 30.7854C104.374 30.1962 105.513 27.3147 105.292 24.5174Z" fill="white"/>
<path d="M41.9547 17.8904H40.0316C39.99 17.8904 39.9562 17.923 39.9562 17.9631V32.3987C39.9562 32.4389 39.99 32.4715 40.0316 32.4715H41.9547C41.9964 32.4715 42.0301 32.4389 42.0301 32.3987V17.9631C42.0301 17.923 41.9964 17.8904 41.9547 17.8904Z" fill="white"/>
<path d="M87.4959 25.8468L79.5804 25.8483C79.5552 25.8483 79.531 25.858 79.5132 25.8751C79.4953 25.8923 79.4853 25.9157 79.4853 25.9399L79.4732 32.3926C79.4732 32.4169 79.4632 32.4402 79.4454 32.4574C79.4276 32.4746 79.4033 32.4843 79.3781 32.4843L77.4853 32.4886C77.4601 32.4886 77.4359 32.479 77.418 32.4618C77.4002 32.4446 77.3902 32.4213 77.3902 32.397V17.9817C77.3902 17.9574 77.4002 17.9341 77.418 17.9169C77.4359 17.8997 77.4601 17.8901 77.4853 17.8901L79.3721 17.8871C79.3973 17.8871 79.4215 17.8968 79.4394 17.914C79.4572 17.9312 79.4672 17.9545 79.4672 17.9788V24.2977C79.4672 24.3097 79.4696 24.3216 79.4744 24.3328C79.4793 24.3439 79.4863 24.354 79.4951 24.3625C79.5039 24.371 79.5144 24.3778 79.5259 24.3824C79.5374 24.387 79.5498 24.3893 79.5623 24.3893L87.5004 24.3879C87.5257 24.3879 87.5498 24.3782 87.5677 24.361C87.5855 24.3438 87.5956 24.3205 87.5956 24.2962L87.5925 17.9759C87.5925 17.9516 87.6025 17.9283 87.6204 17.9111C87.6382 17.8939 87.6624 17.8843 87.6876 17.8843L89.591 17.893C89.6162 17.893 89.6404 17.9026 89.6582 17.9198C89.6761 17.937 89.6861 17.9604 89.6861 17.9846V32.381C89.6861 32.4053 89.6761 32.4286 89.6582 32.4458C89.6404 32.463 89.6162 32.4727 89.591 32.4727L87.6861 32.4828C87.6609 32.4828 87.6367 32.4732 87.6188 32.456C87.601 32.4388 87.591 32.4155 87.591 32.3912V25.9385C87.591 25.9142 87.581 25.8909 87.5631 25.8737C87.5453 25.8565 87.5211 25.8468 87.4959 25.8468Z" fill="white"/>
<path d="M112.356 30.8072L118.765 30.8043C118.782 30.8043 118.798 30.8107 118.81 30.8221C118.822 30.8336 118.829 30.8492 118.829 30.8654L118.842 32.4116C118.842 32.4279 118.836 32.4434 118.824 32.4548C118.812 32.4663 118.796 32.4727 118.779 32.4727H110.281C110.273 32.4727 110.264 32.4711 110.257 32.4681C110.249 32.465 110.242 32.4605 110.236 32.4548C110.23 32.4492 110.226 32.4424 110.222 32.435C110.219 32.4276 110.217 32.4197 110.217 32.4116V17.9498C110.217 17.9336 110.224 17.9181 110.236 17.9066C110.248 17.8951 110.264 17.8887 110.281 17.8887H112.228C112.245 17.8887 112.261 17.8951 112.273 17.9066C112.285 17.9181 112.291 17.9336 112.291 17.9498L112.293 30.7461C112.293 30.7541 112.295 30.762 112.298 30.7694C112.301 30.7769 112.306 30.7836 112.312 30.7893C112.317 30.795 112.324 30.7995 112.332 30.8025C112.34 30.8056 112.348 30.8072 112.356 30.8072Z" fill="white"/>
<path d="M121.103 17.9789C121.103 17.9636 121.106 17.9483 121.113 17.9341C121.119 17.9199 121.128 17.907 121.139 17.8962C121.151 17.8854 121.164 17.8768 121.179 17.8711C121.194 17.8653 121.21 17.8624 121.226 17.8626L127.014 17.883C128.932 17.8895 130.767 18.6294 132.118 19.9398C133.469 21.2503 134.224 23.024 134.218 24.871L134.215 25.5663C134.211 26.4808 134.021 27.3859 133.654 28.2296C133.288 29.0734 132.753 29.8394 132.079 30.4839C131.405 31.1283 130.606 31.6385 129.728 31.9855C128.85 32.3326 127.909 32.5095 126.96 32.5063L121.172 32.4874C121.14 32.487 121.11 32.4746 121.087 32.4528C121.064 32.431 121.052 32.4016 121.052 32.371L121.103 17.9789ZM123.165 19.5805L123.145 30.7985C123.145 30.8224 123.154 30.8454 123.172 30.8623C123.189 30.8792 123.213 30.8887 123.238 30.8887L126.821 30.8945C128.214 30.8968 129.55 30.36 130.536 29.4022C131.522 28.4445 132.078 27.1442 132.08 25.7874L132.083 24.6207C132.084 23.9489 131.95 23.2835 131.687 22.6623C131.424 22.0412 131.039 21.4765 130.552 21.0007C130.065 20.5248 129.487 20.147 128.85 19.8889C128.215 19.6307 127.532 19.4973 126.843 19.4961L123.259 19.4903C123.234 19.4903 123.211 19.4998 123.193 19.5167C123.176 19.5336 123.165 19.5566 123.165 19.5805Z" fill="white"/>
<path d="M139.153 24.3533L144.856 24.3518C144.877 24.3518 144.897 24.3599 144.912 24.3744C144.928 24.3889 144.936 24.4084 144.936 24.4289L144.935 25.8297C144.935 25.8502 144.926 25.8697 144.911 25.8842C144.896 25.8986 144.876 25.9068 144.854 25.9068L139.141 25.9053C139.12 25.9053 139.099 25.9134 139.085 25.9279C139.07 25.9424 139.061 25.962 139.061 25.9824L139.051 30.79C139.051 30.8104 139.059 30.83 139.074 30.8444C139.089 30.8589 139.11 30.867 139.13 30.867H146.25C146.272 30.867 146.292 30.8752 146.308 30.8896C146.322 30.9041 146.331 30.9237 146.331 30.9441L146.337 32.3959C146.337 32.4163 146.328 32.4359 146.313 32.4504C146.298 32.4648 146.278 32.473 146.257 32.473H137.049C137.028 32.473 137.008 32.4648 136.993 32.4504C136.978 32.4359 136.969 32.4163 136.969 32.3959L136.971 17.9703C136.971 17.9499 136.979 17.9304 136.994 17.9159C137.009 17.9014 137.029 17.8933 137.051 17.8933L146.252 17.8904C146.273 17.8904 146.294 17.8985 146.308 17.913C146.323 17.9274 146.332 17.9471 146.332 17.9675L146.337 19.441C146.337 19.4614 146.328 19.4811 146.313 19.4955C146.298 19.51 146.278 19.5181 146.257 19.5181L139.14 19.5312C139.118 19.5312 139.098 19.5393 139.083 19.5538C139.068 19.5682 139.06 19.5878 139.06 19.6083L139.073 24.2762C139.073 24.2966 139.082 24.3162 139.097 24.3307C139.112 24.3452 139.132 24.3533 139.153 24.3533Z" fill="white"/>
<path d="M155.724 26.0362C155.715 26.0378 155.708 26.0417 155.702 26.0473C155.695 26.0529 155.691 26.0602 155.69 26.0682C155.688 26.0762 155.688 26.0847 155.691 26.0926C155.693 26.1006 155.698 26.1078 155.704 26.1134C155.905 26.2831 156.077 26.4595 156.219 26.6428C157.564 28.3903 159.029 30.309 160.614 32.3987C160.62 32.4063 160.623 32.4152 160.624 32.4243C160.625 32.4335 160.622 32.4428 160.618 32.451C160.614 32.4591 160.607 32.4661 160.599 32.471C160.591 32.4759 160.582 32.4785 160.572 32.4788C159.89 32.4778 159.265 32.4734 158.698 32.4657C158.436 32.4618 158.23 32.3604 158.08 32.1617C156.75 30.3986 155.403 28.6143 154.04 26.8087C153.844 26.5507 153.573 26.4169 153.226 26.4072C152.676 26.3897 152.131 26.3882 151.593 26.4028C151.576 26.4032 151.56 26.4099 151.548 26.4216C151.537 26.4333 151.531 26.449 151.531 26.4653L151.528 32.4162C151.528 32.4521 151.509 32.47 151.472 32.47L149.541 32.473C149.531 32.473 149.521 32.471 149.512 32.4672C149.502 32.4634 149.494 32.4578 149.486 32.4508C149.48 32.4438 149.474 32.4355 149.47 32.4262C149.467 32.4171 149.464 32.4072 149.464 32.3973V17.9602C149.464 17.9417 149.472 17.9239 149.486 17.9108C149.5 17.8978 149.518 17.8904 149.538 17.8904C150.964 17.8923 152.349 17.8938 153.692 17.8948C155.982 17.8962 158.726 18.4475 159.215 21.0134C159.688 23.4994 158.234 25.4966 155.724 26.0362ZM151.533 19.5283L151.523 24.8463C151.523 24.8552 151.525 24.8638 151.529 24.872C151.532 24.8801 151.537 24.8874 151.544 24.8937C151.55 24.8999 151.558 24.9048 151.566 24.9082C151.575 24.9115 151.583 24.9133 151.593 24.9133L154.257 24.9176C154.655 24.9183 155.048 24.8529 155.416 24.7253C155.784 24.5976 156.118 24.4102 156.401 24.1737C156.682 23.9371 156.906 23.6562 157.059 23.3468C157.211 23.0374 157.29 22.7057 157.291 22.3706V22.0215C157.292 21.3449 156.974 20.6956 156.406 20.2164C155.839 19.737 155.069 19.4671 154.265 19.4657L151.602 19.4614C151.583 19.4614 151.566 19.4684 151.552 19.481C151.54 19.4935 151.533 19.5106 151.533 19.5283Z" fill="white"/>
<path d="M99.9095 48.2305C100.022 48.2933 100.15 48.3264 100.281 48.3264C100.411 48.3264 100.539 48.2933 100.652 48.2305L120.823 37.0212C120.937 36.958 121.032 36.8668 121.098 36.7568C121.164 36.6467 121.199 36.5216 121.199 36.3943V34.8335C121.199 34.8146 121.207 34.7965 121.22 34.7831C121.234 34.7697 121.253 34.7623 121.273 34.7623L122.942 34.7607C122.971 34.7607 123 34.7721 123.021 34.7923C123.042 34.8125 123.054 34.8398 123.054 34.8685C123.051 35.3872 123.05 35.8779 123.051 36.3405C123.052 37.2118 122.595 38.0977 121.808 38.5355C115.15 42.2409 108.411 45.9866 101.591 49.7724C101.339 49.913 101.064 50.0095 100.764 50.0619C99.9382 50.2059 99.3751 49.9964 98.6522 49.5935C92.23 46.0258 85.8084 42.4572 79.3872 38.8875C78.8036 38.5636 78.4101 38.2975 78.2068 38.089C77.8134 37.6855 77.594 37.2312 77.5487 36.726C77.5045 36.2363 77.4918 35.6142 77.511 34.8597C77.512 34.7957 77.5457 34.7637 77.6121 34.7637L79.274 34.7607C79.2859 34.7607 79.2976 34.763 79.3087 34.7673C79.3196 34.7716 79.3296 34.7779 79.338 34.7859C79.3464 34.7939 79.3531 34.8033 79.3576 34.8138C79.3623 34.8242 79.3646 34.8353 79.3646 34.8466L79.3706 36.4278C79.3711 36.5464 79.4039 36.6627 79.4656 36.7651C79.5274 36.8675 79.6158 36.9523 79.7223 37.0111L99.9095 48.2305Z" fill="white"/>
<path d="M100.604 42.6492L114.658 34.8378C114.749 34.7875 114.846 34.7623 114.951 34.7623H117.581C117.593 34.7621 117.605 34.7652 117.616 34.7712C117.627 34.7772 117.636 34.7859 117.643 34.7964C117.649 34.8069 117.652 34.8189 117.652 34.831C117.652 34.8432 117.649 34.8551 117.642 34.8655C117.408 35.2447 117.105 35.5385 116.732 35.747C111.77 38.5079 106.741 41.3032 101.644 44.1329C100.779 44.6144 99.8039 44.6246 98.9677 44.1591C93.6444 41.2023 88.6119 38.4061 83.8703 35.7703C83.4577 35.5405 83.1362 35.2272 82.9057 34.8306C82.9018 34.8235 82.8999 34.8156 82.9002 34.8076C82.9003 34.7996 82.9027 34.7918 82.9069 34.785C82.9111 34.7781 82.9172 34.7723 82.9244 34.7684C82.9316 34.7644 82.9398 34.7623 82.948 34.7623L85.5699 34.7607C85.6975 34.7608 85.8229 34.7929 85.9337 34.8539L99.9579 42.6492C100.056 42.7037 100.167 42.7324 100.281 42.7324C100.394 42.7324 100.506 42.7037 100.604 42.6492Z" fill="white"/>
<path d="M101.944 38.3902C100.886 38.9867 99.8883 39.0899 98.8544 38.5139C96.6537 37.2862 94.47 36.0701 92.3034 34.8657C92.1766 34.7949 92.1867 34.7595 92.3336 34.7595L95.6936 34.7624C95.7935 34.7624 95.8914 34.788 95.9774 34.8367C97.2504 35.5572 98.5455 36.2781 99.8627 36.9996C100.143 37.1538 100.432 37.1494 100.728 36.9866C102.03 36.2699 103.315 35.5557 104.584 34.8439C104.68 34.7896 104.789 34.761 104.9 34.761C106.022 34.7639 107.137 34.7619 108.245 34.7552C108.279 34.7542 108.302 34.7677 108.316 34.7959C108.321 34.8076 108.321 34.8207 108.317 34.8327C108.313 34.8448 108.304 34.8549 108.293 34.8614C106.281 35.962 104.165 37.1383 101.944 38.3902Z" fill="white"/>
</g>
</g>
</g>
<defs>
<clipPath id="clip0_4_1276">
<rect width="199" height="50" fill="white" transform="translate(0.790039 0.187012)"/>
</clipPath>
<clipPath id="clip1_4_1276">
<rect width="199" height="50" fill="white" transform="translate(0.790039 0.187012)"/>
</clipPath>
<clipPath id="clip2_4_1276">
<rect width="120.827" height="50" fill="white" transform="translate(39.8767 0.187012)"/>
</clipPath>
</defs>
</svg>
