<svg width="24" height="23" viewBox="0 0 24 23" fill="none" xmlns="http://www.w3.org/2000/svg">
<g clip-path="url(#clip0_4_601)">
<path d="M11.478 1.76535C11.7146 1.76535 11.9369 1.80839 12.1449 1.89444C12.3529 1.98049 12.5357 2.10599 12.6935 2.27093C12.8512 2.43587 12.9731 2.61874 13.0593 2.81952C13.1453 3.02032 13.1919 3.24262 13.199 3.48645C13.199 3.7231 13.156 3.94541 13.07 4.15337C12.9839 4.36134 12.8584 4.5442 12.6935 4.70197C12.5285 4.85974 12.3457 4.98165 12.1449 5.0677C11.9441 5.15376 11.7217 5.20037 11.478 5.20755C11.2413 5.20755 11.019 5.16451 10.811 5.07846C10.6031 4.99241 10.4202 4.86691 10.2624 4.70197C10.1046 4.53703 9.98272 4.35416 9.8967 4.15337C9.8106 3.95257 9.76403 3.73027 9.75686 3.48645C9.75686 3.2498 9.79987 3.02749 9.88598 2.81952C9.97199 2.61156 10.0975 2.42869 10.2624 2.27093C10.4273 2.11316 10.6102 1.99124 10.811 1.90519C11.0118 1.81914 11.2341 1.77252 11.478 1.76535ZM4.08801 5.90674C4.08801 5.6916 4.12745 5.49081 4.20633 5.30436C4.28521 5.1179 4.39279 4.95655 4.52904 4.8203C4.66529 4.68405 4.83022 4.57289 5.02385 4.48683C5.21747 4.40078 5.42185 4.35775 5.63699 4.35775C5.85213 4.35775 6.05292 4.3972 6.23937 4.47607C6.42583 4.55496 6.58718 4.66612 6.72343 4.80954C6.85969 4.95297 6.97084 5.1179 7.05689 5.30436C7.14294 5.49081 7.18597 5.6916 7.18597 5.90674C7.18597 6.12187 7.14654 6.32267 7.06765 6.50912C6.98876 6.69557 6.87761 6.86051 6.73419 7.00393C6.59077 7.14736 6.42583 7.25851 6.23937 7.3374C6.05292 7.41628 5.85213 7.45572 5.63699 7.45572C5.42185 7.45572 5.22106 7.41628 5.03461 7.3374C4.84816 7.25851 4.68322 7.15095 4.53979 7.01469C4.39637 6.87844 4.28521 6.7135 4.20633 6.51987C4.12745 6.32625 4.08801 6.12187 4.08801 5.90674ZM3.2167 10.3708C3.41032 10.3708 3.5896 10.4066 3.75455 10.4784C3.91949 10.5501 4.06291 10.6469 4.18481 10.7688C4.30673 10.8907 4.40712 11.0378 4.48601 11.2099C4.56489 11.382 4.60075 11.5612 4.59358 11.7477C4.59358 11.9413 4.55772 12.1206 4.48601 12.2855C4.4143 12.4505 4.31748 12.5939 4.19557 12.7158C4.07367 12.8377 3.92665 12.9381 3.75455 13.017C3.58244 13.0959 3.40315 13.1318 3.2167 13.1246C3.02308 13.1246 2.8438 13.0888 2.67886 13.017C2.51392 12.9453 2.3705 12.8485 2.24859 12.7266C2.12668 12.6047 2.02628 12.4576 1.9474 12.2855C1.86851 12.1134 1.83265 11.9342 1.83983 11.7477C1.83983 11.5541 1.87569 11.3748 1.9474 11.2099C2.01911 11.0449 2.11592 10.9015 2.23783 10.7796C2.35974 10.6577 2.50675 10.5573 2.67886 10.4784C2.85097 10.3995 3.03025 10.3636 3.2167 10.3708ZM4.43222 17.5886C4.43222 17.4237 4.4645 17.2696 4.52904 17.1261C4.59358 16.9827 4.67964 16.8536 4.7872 16.7388C4.89477 16.6241 5.02027 16.5381 5.16369 16.4807C5.30712 16.4233 5.46488 16.391 5.63699 16.3839C5.80193 16.3839 5.95611 16.4161 6.09954 16.4807C6.24296 16.5453 6.37204 16.6313 6.48678 16.7388C6.60152 16.8464 6.68757 16.972 6.74495 17.1154C6.80231 17.2587 6.83458 17.4166 6.84176 17.5886C6.84176 17.7536 6.80949 17.9078 6.74495 18.0512C6.6804 18.1946 6.59435 18.3237 6.48678 18.4385C6.37921 18.5531 6.25372 18.6393 6.11029 18.6966C5.96687 18.754 5.80909 18.7863 5.63699 18.7935C5.47205 18.7935 5.31787 18.7612 5.17445 18.6966C5.03102 18.6321 4.90194 18.5461 4.7872 18.4385C4.67246 18.3308 4.5864 18.2054 4.52904 18.062C4.47166 17.9185 4.43939 17.7607 4.43222 17.5886ZM11.478 18.9763C11.7648 18.9763 12.0086 19.0767 12.2094 19.2775C12.4102 19.4783 12.5106 19.7221 12.5106 20.0089C12.5106 20.2958 12.4102 20.5396 12.2094 20.7404C12.0086 20.9412 11.7648 21.0416 11.478 21.0416C11.1911 21.0416 10.9472 20.9412 10.7465 20.7404C10.5457 20.5396 10.4453 20.2958 10.4453 20.0089C10.4453 19.7221 10.5457 19.4783 10.7465 19.2775C10.9472 19.0767 11.1911 18.9763 11.478 18.9763ZM16.4584 17.5886C16.4584 17.3449 16.5409 17.1405 16.7058 16.9755C16.8707 16.8106 17.0751 16.7281 17.3189 16.7281C17.5628 16.7281 17.7672 16.8106 17.9321 16.9755C18.097 17.1405 18.1795 17.3449 18.1795 17.5886C18.1795 17.8325 18.097 18.0369 17.9321 18.2018C17.7672 18.3668 17.5628 18.4492 17.3189 18.4492C17.0751 18.4492 16.8707 18.3668 16.7058 18.2018C16.5409 18.0369 16.4584 17.8325 16.4584 17.5886ZM19.7392 11.0592C19.9256 11.0592 20.087 11.1274 20.2232 11.2636C20.3595 11.3999 20.4276 11.5612 20.4276 11.7477C20.4276 11.9342 20.3595 12.0955 20.2232 12.2318C20.087 12.368 19.9256 12.4362 19.7392 12.4362C19.5527 12.4362 19.3914 12.368 19.2551 12.2318C19.1188 12.0955 19.0507 11.9342 19.0507 11.7477C19.0507 11.5612 19.1188 11.3999 19.2551 11.2636C19.3914 11.1274 19.5527 11.0592 19.7392 11.0592ZM17.3189 4.01353C17.577 4.01353 17.8209 4.06373 18.0504 4.16413C18.2799 4.26453 18.4806 4.40078 18.6528 4.57289C18.8249 4.74499 18.9611 4.94579 19.0616 5.17527C19.1619 5.40475 19.2121 5.64857 19.2121 5.90674C19.2121 6.1649 19.1619 6.40872 19.0616 6.6382C18.9611 6.86768 18.8249 7.06848 18.6528 7.24058C18.4806 7.41269 18.2799 7.54894 18.0504 7.64934C17.8209 7.74974 17.577 7.79994 17.3189 7.79994C17.0608 7.79994 16.8169 7.74974 16.5874 7.64934C16.358 7.54894 16.1572 7.41269 15.985 7.24058C15.813 7.06848 15.6767 6.86768 15.5763 6.6382C15.4759 6.40872 15.4258 6.1649 15.4258 5.90674C15.4258 5.64857 15.4759 5.40475 15.5763 5.17527C15.6767 4.94579 15.813 4.74499 15.985 4.57289C16.1572 4.40078 16.358 4.26453 16.5874 4.16413C16.8169 4.06373 17.0608 4.01353 17.3189 4.01353Z" fill="white"/>
</g>
<defs>
<clipPath id="clip0_4_601">
<rect width="23" height="22.03" fill="white" transform="translate(0.209961 0.732697)"/>
</clipPath>
</defs>
</svg>
