<svg width="56" height="66" viewBox="0 0 56 66" fill="none" xmlns="http://www.w3.org/2000/svg">
<g clip-path="url(#clip0_4_133)">
<g clip-path="url(#clip1_4_133)">
<g clip-path="url(#clip2_4_133)">
<path d="M5.76883 35.6691V24.9554C5.76883 23.2762 4.40758 21.915 2.72836 21.915C2.10284 21.915 1.5957 22.4221 1.5957 23.0476V37.6337C1.5957 38.401 1.85857 39.1451 2.34046 39.7422L11.1265 50.7754C11.538 51.2922 11.7622 51.9334 11.7622 52.5941V56.5812" stroke="#EA5584" stroke-width="1.5" stroke-miterlimit="10" stroke-linecap="round" stroke-linejoin="round"/>
<path d="M12.4942 43.8636L6.34433 37.1712C5.95976 36.7523 5.76855 36.2227 5.76855 35.6942C5.76855 35.6856 5.76855 35.6781 5.76855 35.6695C5.77499 35.113 5.99306 34.5587 6.41845 34.1387C7.2703 33.2976 8.63993 33.2997 9.49071 34.1419L14.4794 39.0887" stroke="#EA5584" stroke-width="1.5" stroke-miterlimit="10" stroke-linecap="round" stroke-linejoin="round"/>
<path d="M17.1494 41.7366L18.2494 42.8269C19.6007 44.1665 20.3602 45.9894 20.3602 47.8908V56.5812" stroke="#EA5584" stroke-width="1.5" stroke-miterlimit="10" stroke-linecap="round" stroke-linejoin="round"/>
<path d="M44.8183 56.5813V52.5938C44.8183 51.9331 45.0428 51.2918 45.4543 50.7751L48.5878 46.8403" stroke="#EA5584" stroke-width="1.5" stroke-miterlimit="10" stroke-linecap="round" stroke-linejoin="round"/>
<path d="M50.8115 35.6696V24.9554C50.8115 23.2764 52.1725 21.9153 53.8526 21.9153C54.1652 21.9153 54.4477 22.0421 54.6529 22.2473C54.8581 22.4514 54.9848 22.735 54.9848 23.0475V37.6333C54.9848 38.4014 54.7216 39.1447 54.2404 39.742L50.9329 43.896" stroke="#EA5584" stroke-width="1.5" stroke-miterlimit="10" stroke-linecap="round" stroke-linejoin="round"/>
<path d="M36.2207 56.5812V47.8912C36.2207 45.9894 36.9804 44.1663 38.3308 42.8272L47.0896 34.1423C47.9396 33.2993 49.3099 33.2978 50.1619 34.1388C50.9987 34.9649 51.0313 36.3053 50.2357 37.1711L44.0857 43.8633" stroke="#EA5584" stroke-width="1.5" stroke-miterlimit="10" stroke-linecap="round" stroke-linejoin="round"/>
<path d="M28.8964 5.16187C37.0142 5.43172 43.7638 11.1039 45.665 18.6981" stroke="#EA5584" stroke-width="1.5" stroke-miterlimit="10" stroke-linecap="round" stroke-linejoin="round"/>
<path d="M29.7797 19.8231C29.6767 19.714 28.8903 18.9392 27.6641 19.3085C26.4546 19.6729 26.0803 21.1276 26.9314 22.1082C27.3725 22.6164 28.1135 22.7827 29.0705 23.1209C31.2125 23.8781 30.4207 26.899 28.2419 26.9135C27.3915 26.9191 26.994 26.8651 26.247 26.3766" stroke="#EA5584" stroke-width="1.5" stroke-miterlimit="10" stroke-linecap="round" stroke-linejoin="round"/>
<path d="M28.29 27.0432V28.2945" stroke="#EA5584" stroke-width="1.5" stroke-miterlimit="10" stroke-linecap="round" stroke-linejoin="round"/>
<path d="M28.29 17.8298V19.081" stroke="#EA5584" stroke-width="1.5" stroke-miterlimit="10" stroke-linecap="round" stroke-linejoin="round"/>
<path d="M34.6679 29.6152C36.3749 27.9544 37.4351 25.632 37.4351 23.0614C37.4351 18.0115 33.3413 13.9165 28.2903 13.9165C23.2393 13.9165 19.1455 18.0115 19.1455 23.0614C19.1455 28.1123 23.2393 32.2062 28.2903 32.2062C29.4161 32.2062 30.4935 32.0032 31.4893 31.6304" stroke="#EA5584" stroke-width="1.5" stroke-miterlimit="10" stroke-linecap="round" stroke-linejoin="round"/>
<path d="M23.2612 10.798C24.8124 10.1621 26.5096 9.81079 28.2896 9.81079C35.6083 9.81079 41.5412 15.7437 41.5412 23.0613C41.5412 30.38 35.6083 36.3129 28.2896 36.3129C20.971 36.3129 15.038 30.38 15.038 23.0613C15.038 18.8708 16.9835 15.1347 20.0213 12.7058" stroke="#EA5584" stroke-width="1.5" stroke-miterlimit="10" stroke-linecap="round" stroke-linejoin="round"/>
<path d="M28.29 13.6149V10.0391" stroke="#EA5584" stroke-width="1.5" stroke-miterlimit="10" stroke-linecap="round" stroke-linejoin="round"/>
<path d="M20.1084 18.3384L17.0117 16.5505" stroke="#EA5584" stroke-width="1.5" stroke-miterlimit="10" stroke-linecap="round" stroke-linejoin="round"/>
<path d="M20.1084 27.7852L17.0117 29.5731" stroke="#EA5584" stroke-width="1.5" stroke-miterlimit="10" stroke-linecap="round" stroke-linejoin="round"/>
<path d="M28.29 32.5085V36.0842" stroke="#EA5584" stroke-width="1.5" stroke-miterlimit="10" stroke-linecap="round" stroke-linejoin="round"/>
<path d="M36.4707 27.7852L39.5674 29.5731" stroke="#EA5584" stroke-width="1.5" stroke-miterlimit="10" stroke-linecap="round" stroke-linejoin="round"/>
<path d="M36.4707 18.3384L39.5674 16.5505" stroke="#EA5584" stroke-width="1.5" stroke-miterlimit="10" stroke-linecap="round" stroke-linejoin="round"/>
<path d="M30.3326 7.11128L28.29 5.09013L30.3326 3.19263" stroke="#EA5584" stroke-width="1.5" stroke-miterlimit="10" stroke-linecap="round" stroke-linejoin="round"/>
<path d="M10.3906 22.4558C10.6605 14.3381 16.3326 7.58842 23.9268 5.68726" stroke="#EA5584" stroke-width="1.5" stroke-miterlimit="10" stroke-linecap="round" stroke-linejoin="round"/>
<path d="M12.3395 21.019L10.3184 23.0616L8.4209 21.019" stroke="#EA5584" stroke-width="1.5" stroke-miterlimit="10" stroke-linecap="round" stroke-linejoin="round"/>
<path d="M27.6836 40.9612C19.5658 40.6914 12.8162 35.0192 10.915 27.425" stroke="#EA5584" stroke-width="1.5" stroke-miterlimit="10" stroke-linecap="round" stroke-linejoin="round"/>
<path d="M26.247 39.0122L28.2897 41.0335L26.247 42.931" stroke="#EA5584" stroke-width="1.5" stroke-miterlimit="10" stroke-linecap="round" stroke-linejoin="round"/>
<path d="M46.1895 23.6677C45.9197 31.7854 40.2475 38.5351 32.6533 40.4362" stroke="#EA5584" stroke-width="1.5" stroke-miterlimit="10" stroke-linecap="round" stroke-linejoin="round"/>
<path d="M44.2402 25.1044L46.2613 23.0618L48.1588 25.1044" stroke="#EA5584" stroke-width="1.5" stroke-miterlimit="10" stroke-linecap="round" stroke-linejoin="round"/>
</g>
</g>
</g>
<defs>
<clipPath id="clip0_4_133">
<rect width="55" height="65" fill="white" transform="translate(0.790039 0.386963)"/>
</clipPath>
<clipPath id="clip1_4_133">
<rect width="55" height="65" fill="white" transform="translate(0.790039 0.386963)"/>
</clipPath>
<clipPath id="clip2_4_133">
<rect width="55" height="65" fill="white" transform="translate(0.790039 0.386963)"/>
</clipPath>
</defs>
</svg>
