<svg width="26" height="26" viewBox="0 0 26 26" fill="none" xmlns="http://www.w3.org/2000/svg">
<path d="M13.6886 16.0362V16.0367C13.7086 16.1357 13.7661 16.2224 13.8486 16.2797L13.8511 16.2802C14.4034 16.6675 15.0132 17.0249 15.6855 17.3521C15.8379 17.4265 16.0279 17.439 16.2453 17.3998C16.4602 17.3608 16.6976 17.2718 16.9351 17.1554C17.3849 16.9354 17.8248 16.6281 18.1372 16.4101C18.1547 16.3974 18.1722 16.3846 18.1897 16.3724V16.3721C18.2996 16.2974 18.3871 16.1974 18.4471 16.081C18.5071 15.9643 18.5396 15.8346 18.5396 15.7026V13.6958C18.5396 13.5638 18.5046 13.4341 18.4396 13.3199C18.3746 13.2054 18.2796 13.1105 18.1672 13.0437L16.5152 12.074C16.3753 11.9928 16.2178 11.9501 16.0579 11.9501C15.8979 11.9501 15.7405 11.9928 15.603 12.074C13.7111 13.1887 11.8367 14.2853 9.97761 15.3632L9.97737 15.3635C9.55575 15.6074 9.12415 15.6081 8.70079 15.3662C7.79534 14.8494 6.81241 14.2733 5.75201 13.638C5.39688 13.4256 5.22468 13.1949 5.15071 12.8998C5.11522 12.7578 5.10371 12.6054 5.10022 12.4422C5.09797 12.3422 5.09897 12.233 5.10022 12.1175C5.10072 12.0468 5.10147 11.9738 5.10147 11.8989C5.10147 10.8989 5.10397 9.90751 5.10897 8.92408C5.10997 8.76313 5.15245 8.60519 5.23242 8.46574C5.31264 8.32653 5.42711 8.21081 5.56556 8.12984L8.77676 6.23797H8.77702C8.95546 6.13325 9.15864 6.07827 9.36557 6.07827C9.57275 6.07827 9.77618 6.13325 9.95537 6.23772C10.9895 6.84102 12.0292 7.45607 13.0764 8.08286C13.4012 8.2773 13.5387 8.59244 13.5937 8.91508C13.6387 9.18849 13.6262 9.48365 13.6187 9.73557C13.6162 9.77705 13.6137 9.81704 13.6137 9.85577C13.6012 10.2242 13.4287 10.5021 13.1013 10.6748L12.3566 11.0696C12.2816 11.1099 12.2066 11.1391 12.1392 11.1503C12.0692 11.1616 11.9942 11.1563 11.9292 11.1094C11.8617 11.0624 11.8343 10.9912 11.8218 10.9224C11.8118 10.8539 11.8143 10.775 11.8293 10.69C11.8767 10.3686 11.9017 10.0697 11.8442 9.80504C11.7893 9.54688 11.6518 9.3172 11.3669 9.13227C10.7211 8.7159 10.1123 8.35977 9.54001 8.06362C9.47528 8.03013 9.40331 8.01288 9.33033 8.01413C9.25711 8.01513 9.18487 8.03412 9.12039 8.06961L7.25402 9.09903C7.14255 9.16076 7.04908 9.25073 6.98285 9.35969C6.91662 9.46866 6.87964 9.59311 6.87589 9.72082V9.72132C6.8559 10.3239 6.85015 10.9484 6.8584 11.595V11.5957C6.8609 11.9616 6.89263 12.2472 7.16254 12.4269C7.23277 12.4737 7.304 12.5214 7.37597 12.5696C7.94429 12.9505 8.55934 13.3626 9.15064 13.5518H9.15139C9.36607 13.6218 9.62773 13.5806 9.94887 13.3909V13.3906C11.9042 12.2392 13.7811 11.1483 15.5805 10.1184C15.738 10.0285 15.9179 9.98148 16.0979 9.98198C16.2803 9.98248 16.4577 10.0305 16.6152 10.1212L19.8291 11.9806C19.9716 12.0623 20.0891 12.1785 20.1715 12.3182C20.2565 12.4579 20.304 12.6166 20.309 12.7793C20.3514 14.0484 20.3539 15.3432 20.3115 16.6638M13.6886 16.0362L20.1865 16.6598L13.6886 16.0362ZM13.6886 16.0362C13.6087 15.6636 13.5987 15.2815 13.6587 14.8896V14.8889C13.6786 14.7567 13.6761 14.6067 13.5662 14.5182C13.4587 14.4298 13.3113 14.455 13.1863 14.5005V14.5007C12.8739 14.6157 12.574 14.7677 12.2916 14.9563V14.9569C12.0417 15.1265 11.9042 15.3662 11.8817 15.6664C11.8792 15.7153 11.8742 15.7651 11.8717 15.8148C11.8468 16.116 11.8243 16.4301 11.8767 16.717C11.9392 17.0647 12.1167 17.3766 12.519 17.6102C13.3912 18.1151 14.3559 18.6724 15.4131 19.2822M13.6886 16.0362L16.8776 19.2344L13.6886 16.0362ZM20.3115 16.6638L20.1865 16.6598L20.3115 16.6638ZM20.3115 16.6638C20.3115 16.6638 20.3115 16.6638 20.3115 16.6635L20.1865 16.6598M20.3115 16.6638C20.3065 16.8365 20.2565 17.0049 20.169 17.1536C20.0816 17.3023 19.9566 17.4265 19.8066 17.5145M20.1865 16.6598C20.1815 16.8112 20.139 16.9594 20.0615 17.0899C19.9841 17.2206 19.8741 17.3296 19.7441 17.407M19.8066 17.5145L19.7441 17.407L19.8066 17.5145ZM19.8066 17.5145C18.8819 18.0628 17.9048 18.6361 16.8776 19.2344L19.8066 17.5145ZM19.8066 17.5145L19.7441 17.407L19.8066 17.5145ZM19.7441 17.407L16.8776 19.2344L19.7441 17.407ZM16.8776 19.2344C16.3728 19.5286 15.8779 19.5508 15.4131 19.2822L16.8776 19.2344ZM13.2288 14.618C13.4712 14.5297 13.5737 14.6137 13.5362 14.8704C13.4737 15.277 13.4837 15.6744 13.5662 16.0625L13.2288 14.618ZM13.2288 14.618C12.9264 14.7297 12.6365 14.8771 12.3616 15.0603L13.2288 14.618ZM24.9824 12.7986C24.9824 16.0642 23.6854 19.1962 21.3761 21.5054C19.0669 23.8147 15.9354 25.112 12.669 25.112C9.40331 25.112 6.27134 23.8147 3.9621 21.5054C1.65286 19.1962 0.35553 16.0642 0.35553 12.7986C0.35553 11.1816 0.673919 9.58037 1.29297 8.08636C1.91176 6.59235 2.81873 5.23505 3.9621 4.09167C5.10548 2.9483 6.46302 2.04135 7.95677 1.4223C9.45078 0.803503 11.052 0.485107 12.669 0.485107C14.286 0.485107 15.8879 0.803503 17.3799 1.4223C18.8744 2.04135 20.2315 2.9483 21.3761 4.09167C22.5182 5.23505 23.4255 6.59235 24.0452 8.08636C24.665 9.58037 24.9824 11.1816 24.9824 12.7986Z" fill="white"/>
<path d="M13.6886 16.0362V16.0367C13.7086 16.1357 13.7661 16.2224 13.8486 16.2797L13.8511 16.2802C14.4034 16.6675 15.0132 17.0249 15.6855 17.3521C15.8379 17.4265 16.0279 17.439 16.2453 17.3998C16.4602 17.3608 16.6976 17.2718 16.9351 17.1554C17.3849 16.9354 17.8248 16.6281 18.1372 16.4101C18.1547 16.3974 18.1722 16.3846 18.1897 16.3724V16.3721C18.2996 16.2974 18.3871 16.1974 18.4471 16.081C18.5071 15.9643 18.5396 15.8346 18.5396 15.7026V13.6958C18.5396 13.5638 18.5046 13.4341 18.4396 13.3199C18.3746 13.2054 18.2796 13.1105 18.1672 13.0437L16.5152 12.074C16.3753 11.9928 16.2178 11.9501 16.0579 11.9501C15.8979 11.9501 15.7405 11.9928 15.603 12.074C13.7111 13.1887 11.8367 14.2853 9.97761 15.3632L9.97737 15.3635C9.55575 15.6074 9.12415 15.6081 8.70079 15.3662C7.79534 14.8494 6.81241 14.2733 5.75201 13.638C5.39688 13.4256 5.22468 13.1949 5.15071 12.8998C5.11522 12.7578 5.10371 12.6054 5.10022 12.4422C5.09797 12.3422 5.09897 12.233 5.10022 12.1175C5.10072 12.0468 5.10147 11.9738 5.10147 11.8989C5.10147 10.8989 5.10397 9.90751 5.10897 8.92408C5.10997 8.76313 5.15245 8.60519 5.23242 8.46574C5.31264 8.32653 5.42711 8.21081 5.56556 8.12984L8.77676 6.23797H8.77702C8.95546 6.13325 9.15864 6.07827 9.36557 6.07827C9.57275 6.07827 9.77618 6.13325 9.95537 6.23772C10.9895 6.84102 12.0292 7.45607 13.0764 8.08286C13.4012 8.2773 13.5387 8.59244 13.5937 8.91508C13.6387 9.18849 13.6262 9.48365 13.6187 9.73557C13.6162 9.77705 13.6137 9.81704 13.6137 9.85577C13.6012 10.2242 13.4287 10.5021 13.1013 10.6748L12.3566 11.0696C12.2816 11.1099 12.2066 11.1391 12.1392 11.1503C12.0692 11.1616 11.9942 11.1563 11.9292 11.1094C11.8617 11.0624 11.8343 10.9912 11.8218 10.9224C11.8118 10.8539 11.8143 10.775 11.8293 10.69C11.8767 10.3686 11.9017 10.0697 11.8442 9.80504C11.7893 9.54688 11.6518 9.3172 11.3669 9.13227C10.7211 8.7159 10.1123 8.35977 9.54001 8.06362C9.47528 8.03013 9.40331 8.01288 9.33033 8.01413C9.25711 8.01513 9.18487 8.03412 9.12039 8.06961L7.25402 9.09903C7.14255 9.16076 7.04908 9.25073 6.98285 9.35969C6.91662 9.46866 6.87964 9.59311 6.87589 9.72082V9.72132C6.8559 10.3239 6.85015 10.9484 6.8584 11.595V11.5957C6.8609 11.9616 6.89263 12.2472 7.16254 12.4269C7.23277 12.4737 7.304 12.5214 7.37597 12.5696C7.94429 12.9505 8.55934 13.3626 9.15064 13.5518H9.15139C9.36607 13.6218 9.62773 13.5806 9.94887 13.3909V13.3906C11.9042 12.2392 13.7811 11.1483 15.5805 10.1184C15.738 10.0285 15.9179 9.98148 16.0979 9.98198C16.2803 9.98248 16.4577 10.0305 16.6152 10.1212L19.8291 11.9806C19.9716 12.0623 20.0891 12.1785 20.1715 12.3182C20.2565 12.4579 20.304 12.6166 20.309 12.7793C20.3514 14.0484 20.3539 15.3432 20.3115 16.6638M13.6886 16.0362L20.1865 16.6598M13.6886 16.0362C13.6087 15.6636 13.5987 15.2815 13.6587 14.8896V14.8889C13.6786 14.7567 13.6761 14.6067 13.5662 14.5182C13.4587 14.4298 13.3113 14.455 13.1863 14.5005V14.5007C12.8739 14.6157 12.574 14.7677 12.2916 14.9563V14.9569C12.0417 15.1265 11.9042 15.3662 11.8817 15.6664C11.8792 15.7153 11.8742 15.7651 11.8717 15.8148C11.8468 16.116 11.8243 16.4301 11.8767 16.717C11.9392 17.0647 12.1167 17.3766 12.519 17.6102C13.3912 18.1151 14.3559 18.6724 15.4131 19.2822M13.6886 16.0362L16.8776 19.2344M20.3115 16.6638L20.1865 16.6598M20.3115 16.6638C20.3115 16.6638 20.3115 16.6638 20.3115 16.6635L20.1865 16.6598M20.3115 16.6638C20.3065 16.8365 20.2565 17.0049 20.169 17.1536C20.0816 17.3023 19.9566 17.4265 19.8066 17.5145M20.1865 16.6598C20.1815 16.8112 20.139 16.9594 20.0615 17.0899C19.9841 17.2206 19.8741 17.3296 19.7441 17.407M15.4131 19.2822C15.8779 19.5508 16.3728 19.5286 16.8776 19.2344M15.4131 19.2822L15.4756 19.174M16.8776 19.2344C17.9048 18.6361 18.8819 18.0628 19.8066 17.5145M16.8776 19.2344L19.7441 17.407M16.8776 19.2344L16.8151 19.1265M19.8066 17.5145L19.7441 17.407M13.2288 14.618C13.4712 14.5297 13.5737 14.6137 13.5362 14.8704C13.4737 15.277 13.4837 15.6744 13.5662 16.0625L13.2288 14.618ZM13.2288 14.618C12.9264 14.7297 12.6365 14.8771 12.3616 15.0603L13.2288 14.618ZM24.9824 12.7986C24.9824 16.0642 23.6854 19.1962 21.3761 21.5054C19.0669 23.8147 15.9354 25.112 12.669 25.112C9.40331 25.112 6.27134 23.8147 3.9621 21.5054C1.65286 19.1962 0.35553 16.0642 0.35553 12.7986C0.35553 11.1816 0.673919 9.58037 1.29297 8.08636C1.91176 6.59235 2.81873 5.23505 3.9621 4.09167C5.10548 2.9483 6.46302 2.04135 7.95677 1.4223C9.45078 0.803503 11.052 0.485107 12.669 0.485107C14.286 0.485107 15.8879 0.803503 17.3799 1.4223C18.8744 2.04135 20.2315 2.9483 21.3761 4.09167C22.5182 5.23505 23.4255 6.59235 24.0452 8.08636C24.665 9.58037 24.9824 11.1816 24.9824 12.7986Z" stroke="#824BDB" stroke-width="0.249918"/>
<path d="M13.7786 16.3823C14.3359 16.7739 14.9532 17.1345 15.6305 17.4644C16.3703 17.8243 17.6398 16.9096 18.2621 16.4747C18.3871 16.3885 18.487 16.2731 18.557 16.1386C18.627 16.0042 18.6645 15.8545 18.6645 15.7025V13.6957C18.6645 13.542 18.6245 13.391 18.547 13.2578C18.4721 13.1243 18.3621 13.0136 18.2296 12.9359L16.5777 11.9662C16.4202 11.8738 16.2403 11.8253 16.0579 11.8253C15.8754 11.8253 15.698 11.8738 15.5405 11.9662C13.6487 13.0809 11.7718 14.1773 9.91488 15.2551C9.53175 15.4768 9.14763 15.4776 8.76276 15.2576C7.85806 14.7413 6.87587 14.1655 5.81622 13.5307C5.15144 13.1333 5.22642 12.7085 5.22642 11.8988C5.22642 10.8991 5.22892 9.9079 5.23392 8.92473C5.23492 8.78527 5.27165 8.64857 5.34088 8.52811C5.41011 8.4074 5.50932 8.30743 5.62878 8.23745L8.84023 6.34558C8.99943 6.25236 9.18087 6.20312 9.36556 6.20312C9.5505 6.20312 9.73243 6.25236 9.89238 6.34558C10.9245 6.94888 11.9642 7.56367 13.0114 8.18997C13.5787 8.52736 13.5062 9.28711 13.4887 9.85193C13.4787 10.1753 13.3313 10.4127 13.0439 10.5642L12.2991 10.9591C12.0167 11.1075 11.9017 11.024 11.9517 10.7091C12.0517 10.0619 12.0642 9.43456 11.4344 9.02719C10.7871 8.60908 10.174 8.25095 9.59748 7.95255C9.5145 7.90956 9.42229 7.88782 9.32857 7.88907C9.23485 7.89032 9.14264 7.91481 9.06016 7.96005L7.19327 8.98971C7.06306 9.06193 6.9536 9.16715 6.87613 9.29461C6.79865 9.42207 6.75542 9.56777 6.75092 9.71697C6.73093 10.3218 6.72518 10.9483 6.73343 11.5963C6.73593 11.9587 6.76342 12.3111 7.09331 12.531C7.71061 12.9409 8.42536 13.4507 9.11264 13.6707C9.3743 13.7556 9.67421 13.6982 10.0123 13.4982C11.9667 12.3471 13.8436 11.2565 15.643 10.2268C15.7804 10.1478 15.9379 10.1063 16.0978 10.1068C16.2578 10.1073 16.4152 10.1496 16.5527 10.2293L19.7666 12.0887C19.8891 12.1599 19.9916 12.2611 20.0665 12.3826C20.139 12.504 20.179 12.6423 20.184 12.7835C20.2265 14.0498 20.229 15.3419 20.1865 16.6597C20.1815 16.8114 20.139 16.9593 20.0615 17.0898C19.9841 17.2205 19.8741 17.3297 19.7441 17.4069C18.8169 17.9553 17.8423 18.5283 16.8151 19.1264C16.3428 19.4013 15.8979 19.417 15.4755 19.1739C14.4184 18.5641 13.4537 18.0067 12.5815 17.5019C11.8442 17.0745 11.9567 16.3848 12.0067 15.675C12.0242 15.4136 12.1441 15.2087 12.3616 15.0602C12.6365 14.877 12.9264 14.7296 13.2288 14.6179C13.4712 14.5296 13.5737 14.6136 13.5362 14.8703C13.4737 15.2769 13.4837 15.6743 13.5662 16.0624C13.5937 16.1926 13.6686 16.307 13.7786 16.3823Z" fill="#824BDB"/>
</svg>
