<svg width="25" height="25" viewBox="0 0 25 25" fill="none" xmlns="http://www.w3.org/2000/svg">
<mask id="mask0_4_1199" style="mask-type:luminance" maskUnits="userSpaceOnUse" x="0" y="0" width="25" height="25">
<path d="M24.9629 0.110352H0.221024V24.8522H24.9629V0.110352Z" fill="white"/>
</mask>
<g mask="url(#mask0_4_1199)">
<path d="M12.592 24.8522C19.4247 24.8522 24.9629 19.3135 24.9629 12.4813C24.9629 5.64903 19.4247 0.110352 12.592 0.110352C5.7592 0.110352 0.221024 5.64903 0.221024 12.4813C0.221024 19.3135 5.7592 24.8522 12.592 24.8522Z" fill="#E6007A"/>
<path d="M12.8019 5.23267C9.93531 5.23267 7.59359 7.5614 7.59359 10.441C7.59359 11.02 7.69105 11.5851 7.86849 12.1356C7.93347 12.3173 8.06592 12.467 8.23837 12.5523C8.41081 12.6372 8.61077 12.6512 8.79321 12.591C8.97315 12.5275 9.12308 12.3951 9.20805 12.2224C9.29302 12.0497 9.30802 11.8507 9.24804 11.6678C9.09559 11.2387 9.02563 10.7851 9.04062 10.3302C9.09561 8.38813 10.6676 6.78915 12.6094 6.69318C13.1193 6.66644 13.6266 6.74367 14.1065 6.91986C14.5838 7.09605 15.0211 7.36772 15.391 7.7181C15.7609 8.06874 16.0558 8.49085 16.2583 8.95894C16.4607 9.42704 16.5631 9.93112 16.5656 10.441C16.5631 11.3994 16.1958 12.3211 15.5385 13.0179C14.8787 13.7146 13.9815 14.1337 13.0243 14.1892C13.0243 14.1892 12.292 14.2302 11.9347 14.2859C11.7547 14.3129 11.6173 14.3407 11.5223 14.3547C11.4798 14.3687 11.4373 14.3269 11.4523 14.2852L11.5748 13.6796L12.2521 10.5654C12.2895 10.3792 12.2546 10.1848 12.1521 10.0248C12.0471 9.86489 11.8872 9.75218 11.6998 9.71094C11.5148 9.67171 11.3199 9.70744 11.1599 9.81066C11 9.91412 10.8875 10.0763 10.845 10.2623C10.845 10.2623 9.22054 17.841 9.20555 17.9237C9.16806 18.1099 9.20305 18.3044 9.30552 18.4643C9.40799 18.6243 9.57045 18.7372 9.75789 18.778C9.94283 18.8174 10.1377 18.7815 10.2977 18.6782C10.4576 18.575 10.5701 18.4128 10.6126 18.2269C10.6251 18.1442 10.845 17.1383 10.845 17.1383C10.925 16.7694 11.1149 16.4337 11.3898 16.1771C11.6672 15.9206 12.0146 15.7555 12.3895 15.7047C12.6594 15.675 12.9293 15.6522 13.2017 15.6357C14.5113 15.534 15.7309 14.9425 16.6231 13.9795C17.5153 13.0166 18.0102 11.753 18.0102 10.441C18.0102 7.5614 15.6684 5.23267 12.8019 5.23267ZM13.1742 17.221C13.0618 17.1967 12.9468 17.195 12.8344 17.216C12.7194 17.2367 12.6119 17.28 12.517 17.3427C12.4195 17.4054 12.337 17.4866 12.2745 17.5816C12.2096 17.6766 12.1646 17.7835 12.1421 17.896C12.0446 18.3643 12.3345 18.8329 12.8169 18.9297C12.9293 18.9539 13.0443 18.9557 13.1568 18.9347C13.2692 18.9139 13.3792 18.8707 13.4742 18.808C13.5716 18.745 13.6541 18.6637 13.7166 18.5685C13.7816 18.4736 13.8265 18.3666 13.849 18.2539C13.9465 17.7723 13.6566 17.3167 13.1742 17.221Z" fill="white"/>
</g>
</svg>
