<svg width="41" height="41" viewBox="0 0 41 41" fill="none" xmlns="http://www.w3.org/2000/svg">
<g clip-path="url(#clip0_4_38)">
<mask id="mask0_4_38" style="mask-type:luminance" maskUnits="userSpaceOnUse" x="0" y="0" width="41" height="41">
<path d="M40.79 0.416992H0.790039V40.417H40.79V0.416992Z" fill="white"/>
</mask>
<g mask="url(#mask0_4_38)">
<path d="M20.79 40.417C31.8357 40.417 40.79 31.4627 40.79 20.417C40.79 9.3713 31.8357 0.416992 20.79 0.416992C9.74435 0.416992 0.790039 9.3713 0.790039 20.417C0.790039 31.4627 9.74435 40.417 20.79 40.417Z" fill="url(#paint0_linear_4_38)"/>
<path d="M14.3281 21.8791L16.7009 28.4467C16.7009 28.4467 16.9976 29.0612 17.3153 29.0612C17.6329 29.0612 22.3578 24.1459 22.3578 24.1459L27.6119 13.9976L14.4128 20.1837L14.3281 21.8791Z" fill="#C8DAEA"/>
<path d="M17.4742 23.5635L17.0187 28.4045C17.0187 28.4045 16.828 29.8878 18.311 28.4045C19.794 26.9211 21.2135 25.7773 21.2135 25.7773" fill="#A9C6D8"/>
<path d="M14.3713 22.1135L9.49038 20.5231C9.49038 20.5231 8.90705 20.2865 9.09488 19.7498C9.13355 19.6391 9.21155 19.545 9.44488 19.3831C10.5264 18.6293 29.4625 11.8231 29.4625 11.8231C29.4625 11.8231 29.9972 11.643 30.3125 11.7628C30.3905 11.787 30.4607 11.8314 30.5159 11.8916C30.5711 11.9518 30.6093 12.0255 30.6267 12.1053C30.6608 12.2463 30.675 12.3913 30.669 12.5361C30.6675 12.6615 30.6523 12.7776 30.6408 12.9598C30.5255 14.8206 27.0742 28.7086 27.0742 28.7086C27.0742 28.7086 26.8677 29.5213 26.1278 29.5491C25.946 29.555 25.7649 29.5242 25.5952 29.4586C25.4256 29.393 25.2709 29.2938 25.1403 29.1671C23.6885 27.9183 18.6705 24.546 17.5617 23.8043C17.5367 23.7873 17.5156 23.7651 17.4999 23.7392C17.4842 23.7133 17.4742 23.6844 17.4707 23.6543C17.4552 23.5761 17.5402 23.4793 17.5402 23.4793C17.5402 23.4793 26.2778 15.7126 26.5103 14.8973C26.5283 14.8341 26.4603 14.803 26.369 14.8306C25.7887 15.0441 15.7283 21.3973 14.618 22.0985C14.5381 22.1227 14.4536 22.1278 14.3713 22.1135Z" fill="white"/>
</g>
</g>
<defs>
<linearGradient id="paint0_linear_4_38" x1="20.79" y1="40.417" x2="20.79" y2="0.416992" gradientUnits="userSpaceOnUse">
<stop stop-color="#1D93D2"/>
<stop offset="1" stop-color="#38B0E3"/>
</linearGradient>
<clipPath id="clip0_4_38">
<rect width="40" height="40" fill="white" transform="translate(0.790039 0.416992)"/>
</clipPath>
</defs>
</svg>
