<svg width="451" height="451" viewBox="0 0 451 451" fill="none" xmlns="http://www.w3.org/2000/svg">
<g clip-path="url(#clip0_4_556)">
<path d="M225.527 225.252V1.15381C349.293 1.15381 449.625 101.485 449.625 225.252C449.625 248.767 445.923 272.137 438.656 294.502L225.527 225.252Z" fill="#FF3543" stroke="white" stroke-width="0.905433"/>
<path d="M225.53 225.252L438.659 294.501C400.413 412.209 273.988 476.627 156.28 438.38C88.0559 416.214 34.5675 362.725 12.4002 294.501L225.53 225.252Z" fill="#8824AF" stroke="white" stroke-width="0.905433"/>
<path d="M225.528 225.252L12.3988 294.501C-9.7685 226.277 2.0648 151.565 44.2294 93.5302L225.528 225.252Z" fill="#EA5584" stroke="white" stroke-width="0.905433"/>
<path d="M225.531 225.252L44.2318 93.5301C72.0486 55.2436 111.273 26.7461 156.281 12.1219L225.531 225.252Z" fill="#1CBEC0" stroke="white" stroke-width="0.905433"/>
<path d="M225.529 225.252L156.279 12.1219C178.644 4.85514 202.013 1.15381 225.529 1.15381V225.252Z" fill="#F56527" stroke="white" stroke-width="0.905433"/>
<path d="M225.155 388.593C315.767 388.593 389.222 315.138 389.222 224.526C389.222 133.915 315.767 60.4592 225.155 60.4592C134.543 60.4592 61.088 133.915 61.088 224.526C61.088 315.138 134.543 388.593 225.155 388.593Z" fill="#F7FCEB"/>
<path d="M225.155 399.911C322.018 399.911 400.54 321.389 400.54 224.526C400.54 127.664 322.018 49.1414 225.155 49.1414C128.293 49.1414 49.7701 127.664 49.7701 224.526C49.7701 321.389 128.293 399.911 225.155 399.911Z" stroke="#FBFFF3" stroke-opacity="0.45" stroke-width="22.6358"/>
</g>
<defs>
<clipPath id="clip0_4_556">
<rect width="450" height="450" fill="white" transform="translate(0.290039 0.24707)"/>
</clipPath>
</defs>
</svg>
