<svg width="26" height="26" viewBox="0 0 26 26" fill="none" xmlns="http://www.w3.org/2000/svg">
<mask id="mask0_4_1163" style="mask-type:luminance" maskUnits="userSpaceOnUse" x="0" y="0" width="26" height="26">
<path d="M25.7934 0.610352H0.961563V25.4422H25.7934V0.610352Z" fill="white"/>
</mask>
<g mask="url(#mask0_4_1163)">
<path d="M13.3775 25.4422C20.2352 25.4422 25.7934 19.8835 25.7934 13.0263C25.7934 6.16902 20.2352 0.610352 13.3775 0.610352C6.51975 0.610352 0.961563 6.16902 0.961563 13.0263C0.961563 19.8835 6.51975 25.4422 13.3775 25.4422Z" fill="#EF0027"/>
<path d="M17.981 8.30252L6.78217 6.24146L12.6752 21.0723L20.8875 11.0666L17.981 8.30252ZM17.801 9.21047L19.513 10.8392L14.8295 11.6874L17.801 9.21047ZM13.8099 11.5175L8.87147 7.42181L16.9438 8.90707L13.8099 11.5175ZM13.46 12.2422L12.6527 18.9003L8.31166 7.97188L13.46 12.2415V12.2422ZM14.2047 12.5954L19.393 11.6564L13.44 18.9065L14.2047 12.5954Z" fill="white"/>
</g>
</svg>
