<svg width="26" height="25" viewBox="0 0 26 25" fill="none" xmlns="http://www.w3.org/2000/svg">
<path d="M25.4047 12.5488C25.4047 15.8477 24.0941 19.0114 21.7616 21.3441C19.4289 23.6766 16.2652 24.9872 12.9662 24.9872C9.66732 24.9872 6.50362 23.6766 4.17088 21.3441C1.8384 19.0114 0.527832 15.8477 0.527832 12.5488C0.527832 9.24984 1.8384 6.08614 4.17088 3.7534C6.50362 1.42092 9.66732 0.110352 12.9662 0.110352C16.2652 0.110352 19.4289 1.42092 21.7616 3.7534C24.0941 6.08614 25.4047 9.24984 25.4047 12.5488ZM9.95973 21.5608C10.4028 21.729 10.6328 21.5758 10.6495 21.1009L10.6595 20.851C10.6745 20.3779 10.4646 20.0488 10.0297 19.8639C6.34842 18.3044 4.40655 14.3682 5.50869 10.5119C6.15848 8.23268 7.87042 6.30332 10.1647 5.40861C10.4913 5.2804 10.657 5.04123 10.662 4.69134C10.6637 4.48966 10.652 4.29323 10.627 4.10154C10.577 3.74341 10.3821 3.62594 10.0422 3.74915C4.04168 5.91844 1.63747 12.7612 5.31126 18.0994C6.36267 19.6272 7.91215 20.7811 9.95973 21.5608ZM20.2014 15.5453C19.4341 17.5621 17.7672 19.2391 15.6878 20.0238C15.5591 20.0718 15.4494 20.1608 15.3759 20.2772C15.3025 20.3937 15.269 20.5311 15.2805 20.6686L15.338 21.3384C15.3662 21.67 15.5371 21.7782 15.8503 21.6633C19.081 20.4754 21.1503 18.2661 22.0583 15.0354C22.6656 12.8787 22.3582 10.432 21.2935 8.39263C20.1171 6.13837 18.3287 4.59463 15.9278 3.76165C15.5279 3.6217 15.3197 3.7634 15.303 4.18651L15.283 4.66385C15.2662 5.03873 15.4304 5.30039 15.7753 5.44859C19.819 7.18302 21.7633 11.4341 20.2014 15.5453ZM12.2065 17.4297L12.164 18.3793C12.1473 18.746 12.3232 18.9324 12.6913 18.9392L13.3836 18.9492C13.4361 18.9502 13.4881 18.9407 13.5366 18.9212C13.5853 18.9019 13.6295 18.8729 13.6668 18.8359C13.704 18.7992 13.7335 18.7555 13.7537 18.707C13.7737 18.6585 13.7837 18.6068 13.7835 18.5543V17.4696C13.7835 17.3597 13.8352 17.2897 13.9384 17.2597C15.4529 16.8174 16.4426 15.9576 16.4026 14.2882C16.3501 12.1864 14.1983 11.904 12.5464 11.6965C11.6242 11.5791 10.8344 10.8393 11.4117 9.86715C11.8916 9.05741 13.816 9.06741 14.2858 9.85215C14.394 10.0338 14.5 10.2195 14.6032 10.4095C14.6499 10.4927 14.7182 10.5477 14.8081 10.5744C15.163 10.6744 15.5261 10.6736 15.8978 10.5719C15.9383 10.5609 15.9743 10.5379 16.0015 10.5059C16.0287 10.4737 16.0457 10.434 16.0502 10.392C16.1727 9.22236 14.9081 8.1952 13.8984 8.04774C13.8542 8.0405 13.814 8.018 13.785 7.98401C13.7562 7.95003 13.7405 7.90703 13.741 7.8628L13.7585 6.92311C13.7652 6.60497 13.6093 6.43502 13.2911 6.41328L12.6314 6.37079C12.3197 6.3508 12.1623 6.4975 12.159 6.81065L12.1515 7.78033C12.151 7.82706 12.1365 7.8723 12.1103 7.91054C12.084 7.94877 12.047 7.97826 12.0041 7.99526C11.6267 8.14271 11.2443 8.1877 10.8869 8.40013C10.1239 8.85323 9.69981 9.48402 9.61484 10.292C9.47489 11.6266 10.0504 12.498 11.3418 12.9061C12.1015 13.1461 13.3036 13.1611 14.1484 13.5884C14.9081 13.9733 14.9331 14.948 14.3708 15.4978C13.4611 16.385 11.2268 16.2026 11.0444 14.6056C11.0384 14.5509 11.0121 14.5001 10.9709 14.4629C10.9294 14.4256 10.8757 14.4044 10.8194 14.4032L9.79229 14.3832C9.73756 14.3824 9.68332 14.3939 9.63359 14.4169C9.5841 14.4399 9.54012 14.4736 9.50538 14.5159C9.47064 14.5583 9.44565 14.6078 9.43266 14.6608C9.41966 14.7141 9.41866 14.7695 9.4299 14.823C9.71156 16.1743 10.5895 16.983 12.064 17.2497C12.1055 17.2575 12.1428 17.28 12.169 17.3129C12.195 17.3462 12.2085 17.3874 12.2065 17.4297Z" fill="#2875C9"/>
<path d="M9.95973 21.5608C7.91215 20.781 6.36267 19.6271 5.31126 18.0994C1.63747 12.7611 4.04168 5.9184 10.0422 3.74911C10.3821 3.62565 10.577 3.74311 10.627 4.10149C10.652 4.29293 10.6637 4.48961 10.662 4.6913C10.657 5.04118 10.4913 5.28011 10.1647 5.40857C7.87042 6.30327 6.15848 8.23263 5.50869 10.5119C4.40656 14.3681 6.34842 18.3043 10.0297 19.8638C10.4646 20.0488 10.6745 20.3776 10.6595 20.851L10.6495 21.1009C10.6328 21.5757 10.4028 21.7289 9.95973 21.5608Z" fill="white"/>
<path d="M20.2014 15.5453C21.7633 11.4341 19.819 7.183 15.7753 5.44857C15.4304 5.30037 15.2662 5.03871 15.283 4.66384L15.303 4.18649C15.3197 3.76338 15.5279 3.62168 15.9278 3.76163C18.3287 4.59461 20.1171 6.13836 21.2935 8.39261C22.3582 10.4319 22.6656 12.8786 22.0583 15.0354C21.1503 18.2661 19.081 20.4754 15.8503 21.6632C15.5371 21.7782 15.3662 21.67 15.338 21.3384L15.2805 20.6686C15.269 20.5311 15.3025 20.3937 15.3759 20.2772C15.4494 20.1607 15.5591 20.0718 15.6878 20.0238C17.7672 19.239 19.4341 17.5621 20.2014 15.5453Z" fill="white"/>
<path d="M12.064 17.2496C10.5895 16.983 9.71131 16.1742 9.42991 14.8229C9.41866 14.7694 9.41941 14.714 9.43266 14.661C9.44565 14.6077 9.47039 14.5583 9.50538 14.516C9.54012 14.4738 9.58386 14.4398 9.63359 14.4168C9.68332 14.3938 9.73756 14.3823 9.79229 14.3831L10.8194 14.4031C10.8757 14.4046 10.9294 14.4258 10.9707 14.463C11.0121 14.5003 11.0381 14.5508 11.0444 14.6055C11.2268 16.2025 13.4611 16.3849 14.3708 15.4977C14.9331 14.9479 14.9081 13.9732 14.1484 13.5883C13.3036 13.161 12.1015 13.146 11.3418 12.9061C10.0504 12.4979 9.47489 11.6265 9.61484 10.2919C9.69981 9.48392 10.1237 8.85314 10.8869 8.40003C11.2443 8.1876 11.6267 8.14261 12.0041 7.99516C12.047 7.97842 12.084 7.94893 12.1103 7.91044C12.1365 7.8722 12.1508 7.82697 12.1515 7.78024L12.159 6.81055C12.1623 6.49741 12.3197 6.3507 12.6314 6.3707L13.2911 6.41318C13.6093 6.43493 13.765 6.60487 13.7585 6.92302L13.741 7.8627C13.7405 7.90694 13.756 7.94993 13.785 7.98392C13.8137 8.01791 13.854 8.0404 13.8984 8.04765C14.9081 8.1951 16.1727 9.22226 16.0502 10.3919C16.0457 10.4341 16.0287 10.4736 16.0015 10.5058C15.9743 10.5378 15.938 10.5611 15.8978 10.5718C15.5262 10.6735 15.163 10.6743 14.8081 10.5743C14.7182 10.5478 14.6497 10.4928 14.6032 10.4094C14.4997 10.2194 14.394 10.0337 14.2858 9.85206C13.816 9.06731 11.8916 9.05732 11.4118 9.86705C10.8344 10.8392 11.6242 11.579 12.5464 11.6964C14.1983 11.9039 16.3501 12.1863 16.4026 14.2881C16.4426 15.9575 15.4529 16.8173 13.9384 17.2596C13.835 17.2896 13.7835 17.3596 13.7835 17.4695V18.5542C13.7837 18.6067 13.7735 18.6584 13.7535 18.7069C13.7335 18.7554 13.704 18.7991 13.6668 18.8361C13.6295 18.8728 13.5853 18.9018 13.5366 18.9211C13.4878 18.9406 13.4358 18.9501 13.3836 18.9491L12.6913 18.9391C12.323 18.9326 12.1473 18.7459 12.164 18.3793L12.2065 17.4296C12.2082 17.3876 12.195 17.3461 12.1688 17.3131C12.1425 17.2799 12.1053 17.2574 12.064 17.2496Z" fill="white"/>
</svg>
