<svg width="26" height="25" viewBox="0 0 26 25" fill="none" xmlns="http://www.w3.org/2000/svg">
<path d="M25.3751 12.5388C25.3751 15.8349 24.0658 18.9961 21.7348 21.3269C19.4041 23.6579 16.2429 24.9672 12.9467 24.9672C9.65054 24.9672 6.48933 23.6579 4.1586 21.3269C1.82762 18.9961 0.518303 15.8349 0.518303 12.5388C0.518303 9.2426 1.82762 6.08139 4.1586 3.75065C6.48933 1.41967 9.65054 0.110352 12.9467 0.110352C16.2429 0.110352 19.4041 1.41967 21.7348 3.75065C24.0658 6.08139 25.3751 9.2426 25.3751 12.5388ZM11.2473 14.1132C11.3322 14.1182 11.3747 14.1632 11.3747 14.2482L11.3872 19.8963C11.3872 19.9316 11.4012 19.9651 11.426 19.9901C11.451 20.0148 11.4845 20.0288 11.5197 20.0288L14.2163 20.0213C14.266 20.0213 14.3138 20.0016 14.3488 19.9663C14.384 19.9313 14.4037 19.8836 14.4037 19.8339L14.3962 14.2282C14.3962 14.1945 14.4095 14.1622 14.4332 14.138C14.457 14.1137 14.4895 14.0995 14.5237 14.0983C15.7533 14.0583 17.0071 13.9041 18.285 13.6359C18.9915 13.4892 19.5803 13.2768 20.0519 12.9986C20.5367 12.712 20.575 12.3863 20.1668 12.0214C19.8819 11.7683 19.4628 11.5691 18.9098 11.4241C17.9451 11.1725 17.1004 11.0268 16.3756 10.9868C15.7708 10.9568 15.2035 10.7568 14.5937 10.7469C14.4855 10.7451 14.4305 10.6901 14.4287 10.5819L14.3987 9.15987C14.3955 9.03316 14.4562 8.96994 14.5812 8.96994L18.4999 8.97243C18.6116 8.97243 18.6673 8.91571 18.6673 8.80249V6.27082C18.6673 6.16586 18.6156 6.11337 18.5124 6.11337L7.38105 6.12337C7.26109 6.12337 7.2011 6.1826 7.2011 6.30081L7.1986 8.80749C7.1986 8.9192 7.25434 8.97494 7.36606 8.97494L11.2373 8.96494C11.3372 8.96494 11.3872 9.01567 11.3872 9.11739L11.3822 10.5969C11.3822 10.7119 11.3248 10.7736 11.2098 10.7818C9.48861 10.8986 7.9891 11.136 6.71127 11.4941C6.27142 11.6173 5.87404 11.8282 5.51916 12.1264C5.45593 12.1796 5.42095 12.2481 5.4142 12.3313C5.34672 13.1761 7.11863 13.5484 7.71343 13.6659C8.8848 13.8991 10.0627 14.0483 11.2473 14.1132Z" fill="#25A27A"/>
<path d="M11.2473 14.1134C10.0627 14.0484 8.88479 13.8992 7.71343 13.6658C7.11863 13.5483 5.34672 13.176 5.4142 12.3312C5.42095 12.248 5.45593 12.1798 5.51916 12.1265C5.87404 11.8281 6.27142 11.6175 6.71127 11.494C7.9891 11.1359 9.48861 10.8984 11.2098 10.782C11.3248 10.7735 11.3822 10.7118 11.3822 10.5968L11.3872 9.11753C11.3872 9.01582 11.3372 8.96484 11.2373 8.96484L7.36606 8.97509C7.25434 8.97509 7.1986 8.9191 7.1986 8.80739L7.2011 6.30096C7.2011 6.1825 7.26109 6.12352 7.38105 6.12352L18.5124 6.11353C18.6156 6.11353 18.6673 6.16601 18.6673 6.27097V8.80264C18.6673 8.91586 18.6116 8.97233 18.4999 8.97233L14.5812 8.97008C14.4562 8.97008 14.3955 9.03331 14.3987 9.15977L14.4287 10.5818C14.4305 10.6903 14.4855 10.7453 14.5937 10.747C15.2035 10.757 15.7708 10.9567 16.3756 10.9867C17.1004 11.0267 17.9451 11.1726 18.9098 11.424C19.4628 11.569 19.8819 11.7682 20.1668 12.0216C20.575 12.3865 20.5367 12.7121 20.0519 12.9988C19.5803 13.2769 18.9915 13.4893 18.285 13.6358C17.0071 13.9042 15.7533 14.0584 14.5237 14.0984C14.4895 14.0997 14.457 14.1139 14.4332 14.1381C14.4095 14.1624 14.3962 14.1946 14.3962 14.2281L14.4037 19.834C14.4037 19.8835 14.384 19.9312 14.3488 19.9665C14.3138 20.0015 14.266 20.0215 14.2163 20.0215L11.5197 20.0289C11.4845 20.0289 11.451 20.015 11.426 19.99C11.4012 19.9652 11.3872 19.9315 11.3872 19.8965L11.3747 14.2484C11.3747 14.1634 11.3322 14.1184 11.2473 14.1134ZM14.2263 13.1487L11.5922 13.1562C11.5422 13.1562 11.4942 13.1367 11.4587 13.102C11.4232 13.0675 11.403 13.0205 11.4022 12.971L11.3622 11.0492C11.3605 10.9427 11.308 10.9002 11.2048 10.9219C10.2051 11.1394 9.20545 11.1516 8.22077 11.3615C7.50351 11.514 6.6113 11.6267 6.10896 12.219C6.08072 12.2525 6.06573 12.2952 6.06723 12.339C6.06848 12.383 6.08598 12.4247 6.11647 12.4562C6.36813 12.7179 6.67127 12.8978 7.02616 12.9963C9.97269 13.811 13.3066 13.7658 16.3881 13.4559C17.1928 13.3759 17.9651 13.2344 18.7048 13.0312C19.0215 12.9445 19.3246 12.8003 19.6145 12.5989C19.66 12.5674 19.6972 12.5257 19.723 12.4767C19.749 12.4279 19.7625 12.3735 19.7627 12.3182C19.763 12.263 19.75 12.2085 19.7245 12.1595C19.6992 12.1103 19.6623 12.0681 19.617 12.0366C19.0647 11.6467 18.3874 11.5367 17.7426 11.3718C17.3645 11.2751 16.9896 11.2208 16.618 11.2094C16.0264 11.1909 15.4309 11.1041 14.8311 10.9492C14.5429 10.876 14.4005 10.9877 14.4037 11.2841L14.4162 12.956C14.4165 12.9813 14.412 13.0063 14.4025 13.0295C14.393 13.053 14.3792 13.0742 14.3615 13.092C14.3438 13.11 14.3228 13.1242 14.2995 13.134C14.2763 13.1437 14.2515 13.1487 14.2263 13.1487Z" fill="white"/>
<path d="M14.4162 12.956L14.4037 11.2841C14.4005 10.9876 14.5429 10.8759 14.8311 10.9492C15.4309 11.1041 16.0264 11.1908 16.618 11.2091C16.9896 11.2208 17.3645 11.2751 17.7426 11.3715C18.3874 11.5365 19.0647 11.6464 19.617 12.0363C19.6623 12.068 19.699 12.1103 19.7245 12.1593C19.75 12.2085 19.763 12.263 19.7627 12.3182C19.7625 12.3734 19.749 12.4277 19.723 12.4767C19.6972 12.5254 19.66 12.5674 19.6145 12.5986C19.3246 12.8003 19.0215 12.9445 18.7048 13.031C17.9651 13.2344 17.1928 13.3759 16.3881 13.4558C13.3066 13.7657 9.97269 13.8107 7.02615 12.996C6.67127 12.8978 6.36813 12.7178 6.11647 12.4562C6.08598 12.4247 6.06848 12.3827 6.06723 12.339C6.06573 12.2952 6.08072 12.2522 6.10896 12.2187C6.6113 11.6264 7.5035 11.514 8.22077 11.3615C9.20544 11.1516 10.2051 11.1391 11.2048 10.9217C11.308 10.9002 11.3605 10.9427 11.3622 11.0491L11.4022 12.971C11.403 13.0202 11.4232 13.0675 11.4587 13.102C11.4942 13.1367 11.5422 13.1559 11.5922 13.1559L14.2263 13.1484C14.2515 13.1484 14.2763 13.1434 14.2995 13.1337C14.3228 13.1242 14.3438 13.11 14.3615 13.092C14.3792 13.074 14.393 13.0527 14.4025 13.0295C14.412 13.0062 14.4165 12.9812 14.4162 12.956Z" fill="#25A27A"/>
</svg>
