<svg width="63" height="63" viewBox="0 0 63 63" fill="none" xmlns="http://www.w3.org/2000/svg">
<path d="M19.6724 23.077C17.6811 21.3189 15.1159 20.3486 12.4594 20.3486C6.44032 20.3486 1.56097 25.2279 1.56097 31.247C1.56097 37.2661 6.44044 42.1454 12.4594 42.1454C15.1158 42.1454 17.6808 41.1752 19.6723 39.4171" stroke="white" stroke-miterlimit="22.9256" stroke-linecap="round" stroke-linejoin="round"/>
<path d="M14.0258 27.4652L13.4721 27.2358C12.432 26.8051 11.2288 27.3034 10.7979 28.3435C10.3672 29.3834 10.8656 30.5867 11.9055 31.0176L12.4592 31.2469L13.013 31.4763C14.0529 31.907 14.5512 33.1103 14.1205 34.1504C13.6898 35.1905 12.4865 35.6888 11.4464 35.258L10.8926 35.0287" stroke="white" stroke-miterlimit="22.9256" stroke-linecap="round" stroke-linejoin="round"/>
<path d="M12.4594 26.7413V25.5952" stroke="white" stroke-miterlimit="22.9256" stroke-linecap="round" stroke-linejoin="round"/>
<path d="M12.4594 36.8987V35.6499" stroke="white" stroke-miterlimit="22.9256" stroke-linecap="round" stroke-linejoin="round"/>
<path d="M10.2629 20.186C14.5942 10.6955 24.0664 4.60645 34.4986 4.60645C39.894 4.60645 44.9141 6.21166 49.1092 8.96907M56.7758 16.6356C59.5333 20.8312 61.139 25.8512 61.139 31.247C61.139 45.9602 49.2116 57.8875 34.4984 57.8875C24.0646 57.8875 14.5911 51.7965 10.2607 42.3037" stroke="white" stroke-miterlimit="22.9256" stroke-linecap="round" stroke-linejoin="round"/>
<path d="M20.5383 42.5059C19.5877 38.9802 19.0951 35.1373 19.0951 31.2471C19.0951 27.357 19.5877 23.514 20.5383 19.9883" stroke="white" stroke-miterlimit="22.9256" stroke-linecap="round" stroke-linejoin="round"/>
<path d="M19.5659 34.7129C25.5706 33.6708 23.219 37.8451 26.4832 38.627C28.7269 39.1644 34.2799 34.9073 36.1473 38.1418C37.867 41.1203 31.7305 44.5113 33.8854 48.2437C35.9534 51.8256 43.819 47.2434 47.5172 54.1011" stroke="white" stroke-miterlimit="22.9256" stroke-linecap="round" stroke-linejoin="round"/>
<path d="M29.1333 5.5083C30.1464 9.40508 29.9917 11.015 29.0159 14.6567C28.444 16.7912 28.1537 20.1318 30.5671 21.9951C32.6302 23.5878 34.6661 22.0981 35.3543 19.5298C36.1513 16.5553 41.4638 14.0567 44.0108 20.7425C45.3386 24.2281 41.4699 26.7758 44.0513 28.8258C46.0869 30.4423 48.8013 27.1841 51.9094 27.0284C54.5766 26.8947 56.2852 30.3417 60.5679 28.1083" stroke="white" stroke-miterlimit="22.9256" stroke-linecap="round" stroke-linejoin="round"/>
<path d="M53.3356 12.4087L53.3371 12.4102" stroke="white" stroke-miterlimit="2.6131" stroke-linecap="round" stroke-linejoin="round"/>
</svg>
