<svg width="63" height="75" viewBox="0 0 63 75" fill="none" xmlns="http://www.w3.org/2000/svg">
<g clip-path="url(#clip0_4_393)">
<g clip-path="url(#clip1_4_393)">
<g clip-path="url(#clip2_4_393)">
<path d="M6.49762 40.3873V28.1985C6.49762 26.2881 4.96343 24.7394 3.07086 24.7394C2.36588 24.7394 1.79431 25.3164 1.79431 26.0281V42.6224C1.79431 43.4955 2.09057 44.342 2.63369 45.0213L12.5359 57.5736C12.9997 58.1616 13.2525 58.8911 13.2525 59.6428V64.1789" stroke="white" stroke-width="1.0875" stroke-miterlimit="10" stroke-linecap="round" stroke-linejoin="round"/>
<path d="M14.0774 49.7099L7.14622 42.096C6.7128 41.6193 6.4973 41.0168 6.4973 40.4156C6.4973 40.4058 6.4973 40.3972 6.4973 40.3874C6.50456 39.7544 6.75033 39.1237 7.22976 38.6459C8.18984 37.689 9.73348 37.6914 10.6924 38.6496L16.3148 44.2775" stroke="white" stroke-width="1.0875" stroke-miterlimit="10" stroke-linecap="round" stroke-linejoin="round"/>
<path d="M19.3239 47.2903L20.5636 48.5307C22.0867 50.0547 22.9426 52.1287 22.9426 54.2918V64.1788" stroke="white" stroke-width="1.0875" stroke-miterlimit="10" stroke-linecap="round" stroke-linejoin="round"/>
<path d="M50.5083 64.1788V59.6422C50.5083 58.8906 50.7613 58.161 51.225 57.5731L54.7566 53.0966" stroke="white" stroke-width="1.0875" stroke-miterlimit="10" stroke-linecap="round" stroke-linejoin="round"/>
<path d="M57.2628 40.3875V28.1981C57.2628 26.2879 58.7968 24.7394 60.6903 24.7394C61.0425 24.7394 61.361 24.8836 61.5922 25.1171C61.8235 25.3492 61.9664 25.6719 61.9664 26.0275V42.6216C61.9664 43.4955 61.6697 44.3411 61.1273 45.0207L57.3996 49.7467" stroke="white" stroke-width="1.0875" stroke-miterlimit="10" stroke-linecap="round" stroke-linejoin="round"/>
<path d="M40.8182 64.1789V54.2923C40.8182 52.1287 41.6744 50.0546 43.1963 48.5311L53.068 38.6503C54.026 37.6913 55.5704 37.6896 56.5306 38.6464C57.4737 39.5862 57.5105 41.1112 56.6137 42.0963L49.6824 49.7098" stroke="white" stroke-width="1.0875" stroke-miterlimit="10" stroke-linecap="round" stroke-linejoin="round"/>
<path d="M32.5635 5.67957C41.7127 5.98657 49.3198 12.4398 51.4626 21.0796" stroke="white" stroke-width="1.0875" stroke-miterlimit="10" stroke-linecap="round" stroke-linejoin="round"/>
<path d="M33.5593 22.3591C33.4431 22.2352 32.5568 21.3536 31.1749 21.7737C29.8116 22.1883 29.3899 23.8434 30.3491 24.9589C30.8462 25.5372 31.6814 25.7263 32.7599 26.1111C35.1741 26.9726 34.2817 30.4094 31.826 30.4259C30.8676 30.4323 30.4196 30.3709 29.5777 29.815" stroke="white" stroke-width="1.0875" stroke-miterlimit="10" stroke-linecap="round" stroke-linejoin="round"/>
<path d="M31.88 30.5736V31.9971" stroke="white" stroke-width="1.0875" stroke-miterlimit="10" stroke-linecap="round" stroke-linejoin="round"/>
<path d="M31.88 20.0918V21.5153" stroke="white" stroke-width="1.0875" stroke-miterlimit="10" stroke-linecap="round" stroke-linejoin="round"/>
<path d="M39.0683 33.4998C40.9921 31.6103 42.187 28.9682 42.187 26.0435C42.187 20.2984 37.5731 15.6396 31.8804 15.6396C26.1877 15.6396 21.5737 20.2984 21.5737 26.0435C21.5737 31.79 26.1877 36.4475 31.8804 36.4475C33.1492 36.4475 34.3636 36.2166 35.4859 35.7925" stroke="white" stroke-width="1.0875" stroke-miterlimit="10" stroke-linecap="round" stroke-linejoin="round"/>
<path d="M26.2123 12.0918C27.9606 11.3683 29.8734 10.9686 31.8796 10.9686C40.128 10.9686 46.8147 17.7184 46.8147 26.0436C46.8147 34.37 40.128 41.1198 31.8796 41.1198C23.6311 41.1198 16.9444 34.37 16.9444 26.0436C16.9444 21.2761 19.137 17.0255 22.5608 14.2622" stroke="white" stroke-width="1.0875" stroke-miterlimit="10" stroke-linecap="round" stroke-linejoin="round"/>
<path d="M31.88 15.2963V11.2283" stroke="white" stroke-width="1.0875" stroke-miterlimit="10" stroke-linecap="round" stroke-linejoin="round"/>
<path d="M22.659 20.6702L19.1688 18.636" stroke="white" stroke-width="1.0875" stroke-miterlimit="10" stroke-linecap="round" stroke-linejoin="round"/>
<path d="M22.659 31.4176L19.1688 33.4517" stroke="white" stroke-width="1.0875" stroke-miterlimit="10" stroke-linecap="round" stroke-linejoin="round"/>
<path d="M31.88 36.7914V40.8595" stroke="white" stroke-width="1.0875" stroke-miterlimit="10" stroke-linecap="round" stroke-linejoin="round"/>
<path d="M41.1 31.4176L44.5902 33.4517" stroke="white" stroke-width="1.0875" stroke-miterlimit="10" stroke-linecap="round" stroke-linejoin="round"/>
<path d="M41.1 20.6702L44.5902 18.636" stroke="white" stroke-width="1.0875" stroke-miterlimit="10" stroke-linecap="round" stroke-linejoin="round"/>
<path d="M34.1822 7.89717L31.88 5.59774L34.1822 3.43896" stroke="white" stroke-width="1.0875" stroke-miterlimit="10" stroke-linecap="round" stroke-linejoin="round"/>
<path d="M11.7066 25.3547C12.0108 16.1192 18.4035 8.44015 26.9626 6.27722" stroke="white" stroke-width="1.0875" stroke-miterlimit="10" stroke-linecap="round" stroke-linejoin="round"/>
<path d="M13.9032 23.7198L11.6253 26.0437L9.48672 23.7198" stroke="white" stroke-width="1.0875" stroke-miterlimit="10" stroke-linecap="round" stroke-linejoin="round"/>
<path d="M31.1966 46.4083C22.0474 46.1013 14.4402 39.648 12.2977 31.0082" stroke="white" stroke-width="1.0875" stroke-miterlimit="10" stroke-linecap="round" stroke-linejoin="round"/>
<path d="M29.5775 44.1904L31.8796 46.4901L29.5775 48.6487" stroke="white" stroke-width="1.0875" stroke-miterlimit="10" stroke-linecap="round" stroke-linejoin="round"/>
<path d="M52.0538 26.7332C51.7496 35.9686 45.3568 43.6477 36.7978 45.8106" stroke="white" stroke-width="1.0875" stroke-miterlimit="10" stroke-linecap="round" stroke-linejoin="round"/>
<path d="M49.8568 28.3677L52.1347 26.0438L54.2733 28.3677" stroke="white" stroke-width="1.0875" stroke-miterlimit="10" stroke-linecap="round" stroke-linejoin="round"/>
</g>
</g>
</g>
<defs>
<clipPath id="clip0_4_393">
<rect width="62" height="73.95" fill="white" transform="translate(0.880035 0.24707)"/>
</clipPath>
<clipPath id="clip1_4_393">
<rect width="62" height="73.95" fill="white" transform="translate(0.880035 0.24707)"/>
</clipPath>
<clipPath id="clip2_4_393">
<rect width="61.9875" height="73.95" fill="white" transform="translate(0.886292 0.24707)"/>
</clipPath>
</defs>
</svg>
