<svg width="61" height="61" viewBox="0 0 61 61" fill="none" xmlns="http://www.w3.org/2000/svg">
<mask id="mask0_4_442" style="mask-type:luminance" maskUnits="userSpaceOnUse" x="0" y="-1" width="61" height="62">
<path d="M0.108429 -0.859985H60.9955V60.0271H0.108429V-0.859985Z" fill="white"/>
</mask>
<g mask="url(#mask0_4_442)">
<path d="M6.68039 46.9301C8.05582 48.8677 10.4007 50.2284 13.1256 50.501C13.0753 50.8317 13.0404 51.1665 13.0404 51.509C13.0404 55.7207 16.9606 59.1351 21.7963 59.1351C25.3971 59.1351 28.49 57.2423 29.8351 54.5367C29.9734 54.259 30.2628 54.12 30.5524 54.12C30.8421 54.12 31.1314 54.259 31.2696 54.5367C32.6148 57.2423 35.7079 59.1351 39.3085 59.1351C44.1441 59.1351 48.0644 55.7207 48.0644 51.509C48.0644 51.1665 48.0295 50.8317 47.9791 50.501C49.2478 50.3742 50.4341 50.0113 51.4785 49.4643" stroke="white" stroke-width="1.10704" stroke-miterlimit="10" stroke-linecap="round" stroke-linejoin="round"/>
<path d="M10.0961 7.91382C8.55698 8.96067 7.56734 10.592 7.56734 12.4246C7.56734 13.4712 7.89555 14.4493 8.45935 15.2932C4.92707 15.3873 2.095 17.9047 2.095 21.0039C2.095 22.4737 2.73324 23.8123 3.77902 24.8256C1.90555 26.4328 1.00034 28.5003 1.00034 30.5367C1.00034 34.0667 3.75927 37.023 7.49788 37.8914C6.11984 39.2773 5.37837 41.1215 5.37837 42.9293" stroke="white" stroke-width="1.10704" stroke-miterlimit="10" stroke-linecap="round" stroke-linejoin="round"/>
<path d="M54.6207 46.6388C55.3244 45.5414 55.7256 44.2765 55.7256 42.9294C55.7256 41.1215 54.984 39.2774 53.6061 37.8914C57.3444 37.0233 60.1036 34.0667 60.1036 30.5368C60.1036 28.5003 59.1985 26.4327 57.325 24.8256C58.3707 23.8124 59.009 22.4737 59.009 21.0041C59.009 17.9047 56.1769 15.3873 52.6446 15.2934C53.2083 14.4493 53.5366 13.4713 53.5366 12.4246C53.5366 9.26572 50.5964 6.7049 46.9696 6.7049C46.6299 6.7049 46.2032 6.73998 45.8621 6.78494C45.8671 6.7231 45.8752 6.66197 45.8741 6.5987C45.811 3.05942 42.3876 0.0824898 38.324 0.032662C35.1973 -0.00574884 32.4927 1.58766 31.2609 3.89768C31.1187 4.1643 30.8353 4.29761 30.552 4.29761C30.2688 4.29761 29.9853 4.1643 29.8432 3.89768C28.6116 1.58766 25.9069 -0.00574884 22.7801 0.032662C18.7163 0.0824898 15.2931 3.05942 15.23 6.5987C15.2289 6.66186 15.237 6.7231 15.2418 6.78494C14.901 6.73998 14.4742 6.7049 14.1345 6.7049" stroke="white" stroke-width="1.10704" stroke-miterlimit="10" stroke-linecap="round" stroke-linejoin="round"/>
<path d="M8.45987 15.2932C8.45987 15.2932 10.1692 15.2921 11.4046 16.3848" stroke="white" stroke-width="1.10704" stroke-miterlimit="10" stroke-linecap="round" stroke-linejoin="round"/>
<path d="M13.1247 50.501C13.1247 50.501 13.355 48.7426 14.6225 47.5199" stroke="white" stroke-width="1.10704" stroke-miterlimit="10" stroke-linecap="round" stroke-linejoin="round"/>
<path d="M57.3243 24.8254C57.3243 24.8254 56.1815 26.0032 54.5673 26.1315" stroke="white" stroke-width="1.10704" stroke-miterlimit="10" stroke-linecap="round" stroke-linejoin="round"/>
<path d="M45.8738 6.59863C45.8738 6.59863 45.8757 8.68544 44.6818 10.1122" stroke="white" stroke-width="1.10704" stroke-miterlimit="10" stroke-linecap="round" stroke-linejoin="round"/>
<path d="M30.5519 14.5869V54.12" stroke="white" stroke-width="1.10704" stroke-miterlimit="10" stroke-linecap="round" stroke-linejoin="round"/>
<path d="M30.5519 4.29761V10.4695" stroke="white" stroke-width="1.10704" stroke-miterlimit="10" stroke-linecap="round" stroke-linejoin="round"/>
<path d="M38.7696 46.733C39.756 46.733 40.5557 47.5314 40.5557 48.5165C40.5557 49.5014 39.756 50.3 38.7696 50.3C37.7831 50.3 36.9834 49.5014 36.9834 48.5165C36.9834 47.5314 37.7831 46.733 38.7696 46.733Z" stroke="white" stroke-width="1.10704" stroke-miterlimit="10" stroke-linecap="round" stroke-linejoin="round"/>
<path d="M38.7699 46.7329C38.7699 40.3218 33.457 41.3274 30.5519 41.3274" stroke="white" stroke-width="1.10704" stroke-miterlimit="10" stroke-linejoin="round"/>
<path d="M38.7696 13.9179C39.756 13.9179 40.5557 13.1194 40.5557 12.1344C40.5557 11.1494 39.756 10.351 38.7696 10.351C37.7831 10.351 36.9834 11.1494 36.9834 12.1344C36.9834 13.1194 37.7831 13.9179 38.7696 13.9179Z" stroke="white" stroke-width="1.10704" stroke-miterlimit="10" stroke-linecap="round" stroke-linejoin="round"/>
<path d="M38.7699 13.918C38.7699 20.329 33.457 19.3234 30.5519 19.3234" stroke="white" stroke-width="1.10704" stroke-miterlimit="10" stroke-linejoin="round"/>
<path d="M46.4529 40.83C47.4393 40.83 48.2391 41.6284 48.2391 42.6134C48.2391 43.5984 47.4393 44.3969 46.4529 44.3969C45.4664 44.3969 44.6667 43.5984 44.6667 42.6134C44.6667 41.6284 45.4664 40.83 46.4529 40.83Z" stroke="white" stroke-width="1.10704" stroke-miterlimit="10" stroke-linecap="round" stroke-linejoin="round"/>
<path d="M46.4526 40.8298C46.4526 33.9149 39.9236 33.9149 30.5519 33.9149" stroke="white" stroke-width="1.10704" stroke-miterlimit="10" stroke-linejoin="round"/>
<path d="M46.4529 19.644C47.4393 19.644 48.2391 18.8454 48.2391 17.8605C48.2391 16.8754 47.4393 16.077 46.4529 16.077C45.4664 16.077 44.6667 16.8754 44.6667 17.8605C44.6667 18.8454 45.4664 19.644 46.4529 19.644Z" stroke="white" stroke-width="1.10704" stroke-miterlimit="10" stroke-linecap="round" stroke-linejoin="round"/>
<path d="M46.4526 19.644C46.4526 26.5589 39.9236 26.5589 30.5519 26.5589" stroke="white" stroke-width="1.10704" stroke-miterlimit="10" stroke-linejoin="round"/>
<path d="M11.0728 29.7034C11.0728 29.7034 11.3613 24.5657 16.5548 23.3025" stroke="white" stroke-width="1.10704" stroke-miterlimit="10" stroke-linecap="round" stroke-linejoin="round"/>
<path d="M20.0297 14.5872C20.0297 14.5872 23.5865 13.3408 23.9098 9.91333" stroke="white" stroke-width="1.10704" stroke-miterlimit="10" stroke-linecap="round" stroke-linejoin="round"/>
<path d="M20.0302 41.3949C20.0302 41.3949 19.596 46.0312 23.6594 47.9646" stroke="white" stroke-width="1.10704" stroke-miterlimit="10" stroke-linecap="round" stroke-linejoin="round"/>
<path d="M23.6511 29.2086C23.6511 29.2086 23.9031 31.8988 21.5454 33.0206" stroke="white" stroke-width="1.10704" stroke-miterlimit="10" stroke-linecap="round" stroke-linejoin="round"/>
</g>
</svg>
