<svg width="63" height="75" viewBox="0 0 63 75" fill="none" xmlns="http://www.w3.org/2000/svg">
<g clip-path="url(#clip0_4_471)">
<path d="M22.571 11.1462C21.8315 13.2414 21.6684 15.2605 22.0817 17.2035C22.9227 21.1693 25.123 23.8228 28.6828 25.164C31.9815 26.4038 35.0519 26.1102 37.8939 24.2832C41.2217 22.1444 42.9073 19.2118 42.9508 15.4853C42.9725 13.564 42.5412 11.7588 41.6567 10.0695C40.8737 8.56879 39.7898 7.36167 38.405 6.44817C35.6718 4.64292 32.6667 4.14267 29.3897 4.94742C29.0489 5.02717 28.7408 5.16854 28.4653 5.37154C27.8635 5.82104 27.1965 6.03129 26.4643 6.00229C25.877 5.98054 25.8263 5.80292 26.312 5.46942C29.241 3.42492 32.634 3.03342 36.491 4.29492C37.9809 4.78429 38.2528 5.92617 39.7862 6.31767C40.1269 6.40467 40.4097 6.58229 40.6344 6.85054C43.8027 10.6495 44.7089 14.8473 43.3532 19.4438C42.8529 21.1729 41.537 21.597 40.9389 23.2283C40.7939 23.6125 40.5293 23.8844 40.145 24.0439C38.6117 24.6638 37.9157 25.9253 36.2083 26.3712C30.3865 27.8792 25.8299 26.1573 22.5384 21.2055C21.6974 19.944 21.1718 18.5049 20.9615 16.8882C20.744 15.1554 20.8528 13.4625 21.2878 11.8095C21.5995 10.606 22.2267 9.60554 23.1692 8.80804C23.5099 8.52529 23.6223 8.59779 23.5063 9.02554C23.2997 9.79767 22.8429 10.374 22.571 11.1462Z" fill="#F8F9F9" fill-opacity="0.996"/>
<path d="M32.4455 21.4992C33.0545 21.8399 33.2394 22.3402 33.0002 22.9999C32.8407 23.4132 32.6087 23.4567 32.3042 23.1304C31.9199 22.7172 31.8075 22.2314 31.967 21.6732C32.0395 21.4049 31.9453 21.2346 31.6843 21.1621C30.0023 20.6908 29.0127 19.5779 28.7154 17.8234C28.7082 17.7799 28.719 17.7401 28.748 17.7038L28.9873 17.4754C29.1613 17.2942 29.3027 17.3196 29.4114 17.5516L30.1727 19.1393C30.2523 19.3096 30.3735 19.4574 30.5254 19.5694C30.6773 19.6814 30.8551 19.7541 31.0427 19.7809C33.9427 20.1942 35.2513 19.3061 34.9685 17.1166C34.9445 16.9151 34.8778 16.7208 34.7729 16.5465C34.6679 16.3721 34.527 16.2217 34.3595 16.1052C33.823 15.7209 33.214 15.5542 32.5325 15.6049C30.3938 15.7427 29.1178 14.7784 28.7045 12.7122C28.4218 11.3093 29.8573 10.3197 31.0862 10.1131C31.8909 9.98255 32.1592 9.53305 31.8909 8.76455C31.7822 8.44555 31.7967 8.1338 31.9344 7.8293C32.2317 7.1478 32.4637 7.16955 32.6304 7.89455C32.9132 9.1488 33.6853 10.0152 34.9468 10.4937C35.1529 10.5715 35.3386 10.6974 35.4895 10.8615C35.6404 11.0256 35.7524 11.2236 35.8168 11.4398C35.8675 11.6138 35.8893 11.7914 35.882 11.9727C35.8603 12.8137 35.6029 12.8934 35.1099 12.2119C33.7107 10.2617 31.967 10.1529 29.879 11.8857C29.6325 12.0959 29.5637 12.3533 29.6724 12.6578C29.9044 13.3393 30.2923 13.9048 30.836 14.3543C30.9724 14.4671 31.132 14.5496 31.3045 14.5965C31.4769 14.6434 31.6582 14.6535 31.8365 14.6262C34.3922 14.1912 36.9587 15.9964 35.7624 18.7696C35.2332 20.0093 34.1529 20.7851 32.5217 21.0968C32.1229 21.1693 32.0975 21.3034 32.4455 21.4992Z" fill="#F8F9F9" fill-opacity="0.996"/>
<path d="M15.7198 9.6346C15.7125 9.10535 15.8865 8.64497 16.2418 8.25347C16.684 7.75322 16.9269 7.8366 16.9704 8.5036C17.0502 9.7361 16.7783 10.2907 16.1548 10.1675C16.032 10.1424 15.9216 10.0757 15.8423 9.97857C15.763 9.88146 15.7198 9.75995 15.7198 9.6346Z" fill="#F8F9F9" fill-opacity="0.996"/>
<path d="M16.655 14.463C16.2055 14.492 15.9083 14.3107 15.7633 13.9192C15.6473 13.6147 15.7162 13.3465 15.9699 13.1145C16.0245 13.0633 16.0898 13.025 16.1611 13.0024C16.2325 12.9798 16.308 12.9735 16.382 12.9839C16.4561 12.9943 16.5269 13.0212 16.5892 13.0627C16.6515 13.1041 16.7038 13.159 16.742 13.2232C16.9523 13.5712 16.9885 13.9337 16.8508 14.3107C16.8379 14.3519 16.8123 14.3884 16.7775 14.4155C16.7426 14.4426 16.7 14.4591 16.655 14.463Z" fill="#F8F9F9" fill-opacity="0.996"/>
<path d="M50.8903 14.1149C51.3167 14.1223 51.6669 13.8704 51.6724 13.5521C51.678 13.2338 51.3368 12.9698 50.9105 12.9623C50.4841 12.9549 50.134 13.2069 50.1284 13.5251C50.1228 13.8434 50.464 14.1075 50.8903 14.1149Z" fill="#F8F9F9" fill-opacity="0.996"/>
<path d="M52.6187 14.9741C53.1552 14.9814 53.5394 15.1916 53.7714 15.6049C53.8279 15.7003 53.8448 15.8142 53.8183 15.9219C53.7919 16.0297 53.7243 16.1228 53.63 16.1812C53.253 16.435 52.8905 16.4205 52.5425 16.1377C52.2235 15.8767 52.1438 15.5577 52.3033 15.1807C52.3289 15.1199 52.3724 15.0679 52.4285 15.0311C52.4846 14.9944 52.5507 14.9746 52.6187 14.9741Z" fill="#F8F9F9" fill-opacity="0.996"/>
<path d="M14.567 16.4532C14.56 16.5033 14.5414 16.5504 14.5129 16.5903C14.4844 16.6301 14.447 16.6615 14.4039 16.6816C14.1139 16.8338 13.8384 16.8302 13.5774 16.6707C13.1497 16.4025 13.1134 16.0871 13.4687 15.7246C13.6209 15.5723 13.7949 15.4491 13.9907 15.3548C14.5417 15.1011 14.7664 15.2751 14.6649 15.8768L14.567 16.4532Z" fill="#F8F9F9" fill-opacity="0.996"/>
<path d="M17.8704 15.6849C17.6165 16.0928 17.6504 16.5727 17.9462 16.7568C18.2419 16.9409 18.6875 16.7594 18.9414 16.3515C19.1953 15.9436 19.1614 15.4637 18.8657 15.2796C18.5699 15.0955 18.1243 15.277 17.8704 15.6849Z" fill="#F8F9F9" fill-opacity="0.996"/>
<path d="M49.1278 16.3553C48.7435 16.3553 48.4028 16.2683 48.1055 16.0943C48.0302 16.0515 47.967 15.9903 47.9217 15.9163C47.8765 15.8424 47.8505 15.7579 47.8462 15.6705C47.8419 15.5831 47.8593 15.4956 47.897 15.4158C47.9347 15.336 47.9914 15.2665 48.062 15.2134C48.2795 15.0467 48.5224 14.9923 48.7907 15.0503C49.1024 15.1228 49.2909 15.3149 49.3562 15.6267L49.4323 15.9747C49.4419 16.0203 49.4414 16.0674 49.4306 16.1128C49.4198 16.1581 49.3991 16.2005 49.37 16.2369C49.3409 16.2733 49.3041 16.3028 49.2622 16.3233C49.2203 16.3438 49.1744 16.3547 49.1278 16.3553Z" fill="#F8F9F9" fill-opacity="0.996"/>
<path d="M50.6503 17.4102C51.0925 17.4754 51.3209 17.7509 51.3354 18.2367C51.3366 18.3084 51.3184 18.3794 51.2829 18.4419C51.2474 18.5043 51.1959 18.5558 51.1341 18.5907C51.0723 18.6255 51.0026 18.6424 50.9325 18.6394C50.8625 18.6364 50.795 18.6137 50.7373 18.5738C50.498 18.4143 50.3277 18.1968 50.2262 17.9213C50.2025 17.8594 50.1959 17.7925 50.207 17.7272C50.218 17.662 50.2463 17.6005 50.2891 17.5489C50.3319 17.4973 50.3877 17.4574 50.4511 17.4331C50.5144 17.4088 50.583 17.4009 50.6503 17.4102Z" fill="#F8F9F9" fill-opacity="0.996"/>
<path d="M29.4332 64.4771V35.778C29.4332 35.4082 29.2483 35.227 28.8785 35.2342L16.0895 35.2886C15.7415 35.2959 15.5675 35.4699 15.5675 35.8106L15.5567 56.8972C15.5567 57.064 15.4769 57.1365 15.3174 57.1147L15.0347 57.0712C14.8869 57.0526 14.7511 56.9815 14.6529 56.8713C14.5547 56.7611 14.5009 56.6194 14.5018 56.4731L14.4692 36.0934C14.4693 35.7382 14.4002 35.3873 14.2659 35.0608C14.1315 34.7342 13.9345 34.4384 13.6862 34.1902L4.09442 24.5332C3.78992 24.2215 3.78992 23.9134 4.09442 23.6089L6.07367 21.6296C6.15275 21.551 6.24617 21.4883 6.34858 21.4451C6.45099 21.402 6.56038 21.3793 6.67049 21.3783C6.78059 21.3773 6.88925 21.398 6.99024 21.4393C7.09123 21.4805 7.18258 21.5415 7.25904 21.6187C10.42 24.7435 13.6028 27.9154 16.8073 31.1344C17.8404 32.1784 18.4385 34.1576 20.3308 34.1576C28.1173 34.1576 36.0089 34.1685 44.0057 34.1902C44.7379 34.1902 45.3614 33.9292 45.8762 33.4072L57.545 21.597C57.6214 21.5184 57.7129 21.456 57.8141 21.4134C57.9153 21.3708 58.0242 21.3489 58.1345 21.3489C58.2448 21.3489 58.3543 21.3708 58.4566 21.4134C58.5589 21.456 58.652 21.5184 58.7304 21.597L60.6118 23.4566C61.0105 23.8481 61.0105 24.2432 60.6118 24.642L50.8352 34.4077C50.5162 34.7267 50.3567 35.111 50.3567 35.5605V40.6065C50.3567 40.795 50.2624 40.8856 50.0739 40.8784L49.6389 40.8675C49.3997 40.8602 49.28 40.737 49.28 40.4977L49.2909 36.0716C49.2909 35.8553 49.205 35.6478 49.052 35.4949C48.8991 35.3419 48.6916 35.256 48.4753 35.256L35.9582 35.2342C35.5957 35.2342 35.4144 35.4191 35.4144 35.7889L35.4035 64.6076C35.4035 64.9774 35.5884 65.1622 35.9582 65.1622L48.7254 65.1731C49.0879 65.1731 49.2692 64.9882 49.2692 64.6185L49.3018 44.9456C49.3018 44.7789 49.3852 44.6955 49.5519 44.6955H49.8564C49.9216 44.694 49.9864 44.7056 50.047 44.7296C50.1077 44.7535 50.1629 44.7893 50.2095 44.8349C50.2561 44.8805 50.2931 44.9349 50.3184 44.995C50.3437 45.0551 50.3567 45.1197 50.3567 45.1849L50.3675 65.1949C50.3675 65.3091 50.3453 65.4222 50.3021 65.5278C50.259 65.6333 50.1957 65.7293 50.1159 65.81C50.0361 65.8908 49.9414 65.9549 49.8372 65.9986C49.733 66.0424 49.6212 66.0649 49.5084 66.0649L15.5893 66.0866C15.3768 66.0859 15.171 66.012 15.0065 65.8773C14.8421 65.7426 14.7292 65.5554 14.6867 65.3471C14.4039 63.9479 14.364 62.5414 14.567 61.1276C14.6685 60.4606 14.8715 60.4244 15.176 61.0189C15.6328 61.9251 15.7415 62.9437 15.5023 64.0747C15.4749 64.2057 15.4773 64.3411 15.5094 64.4712C15.5415 64.6013 15.6024 64.7228 15.6877 64.8269C15.7731 64.9309 15.8807 65.015 16.0029 65.073C16.125 65.131 16.2587 65.1615 16.394 65.1622H28.748C29.2048 65.1622 29.4332 64.9339 29.4332 64.4771ZM17.3293 34.2337C17.4015 34.2345 17.4722 34.2135 17.5323 34.1734C17.5923 34.1334 17.6389 34.0761 17.6659 34.0092C17.6929 33.9422 17.6991 33.8687 17.6837 33.7982C17.6683 33.7276 17.6319 33.6634 17.5794 33.6139L6.66092 22.7606C6.59983 22.7 6.519 22.6634 6.43317 22.6574C6.34733 22.6514 6.2622 22.6765 6.19329 22.728L4.98617 23.6415C4.94495 23.6728 4.91099 23.7126 4.8866 23.7582C4.86222 23.8038 4.84799 23.8542 4.84489 23.9059C4.84179 23.9575 4.8499 24.0092 4.86865 24.0574C4.88741 24.1057 4.91636 24.1493 4.95354 24.1852L14.9585 34.1467C14.9924 34.1816 15.033 34.2092 15.0779 34.2279C15.1227 34.2466 15.1709 34.256 15.2195 34.2555L17.3293 34.2337ZM59.981 24.0112C60.0196 23.9725 60.0485 23.9252 60.0654 23.8732C60.0822 23.8211 60.0866 23.7659 60.0781 23.7119C60.0697 23.6579 60.0486 23.6066 60.0166 23.5622C59.9846 23.5179 59.9426 23.4817 59.894 23.4566L58.5129 22.7932C58.4488 22.7629 58.3769 22.7529 58.307 22.7646C58.237 22.7762 58.1722 22.809 58.1214 22.8585L47.1812 33.777C47.1265 33.8279 47.0896 33.8951 47.076 33.9686C47.0625 34.0421 47.0729 34.118 47.1059 34.1851C47.1388 34.2522 47.1925 34.3069 47.2589 34.3411C47.3253 34.3753 47.401 34.3873 47.4748 34.3751L50.0304 33.9727C50.1006 33.9598 50.1652 33.9257 50.2153 33.8749L59.981 24.0112ZM34.3378 35.517C34.3378 35.442 34.308 35.3701 34.255 35.317C34.202 35.264 34.13 35.2342 34.055 35.2342H30.7925C30.7176 35.2342 30.6456 35.264 30.5926 35.317C30.5396 35.3701 30.5098 35.442 30.5098 35.517V64.8795C30.5098 64.9545 30.5396 65.0264 30.5926 65.0794C30.6456 65.1324 30.7176 65.1622 30.7925 65.1622H34.055C34.13 65.1622 34.202 65.1324 34.255 65.0794C34.308 65.0264 34.3378 64.9545 34.3378 64.8795V35.517Z" fill="#F8F9F9" fill-opacity="0.996"/>
<path d="M19.439 29.949L15.4588 25.0335C15.4008 24.961 15.4044 24.8958 15.4697 24.8378L15.7198 24.5985C15.7995 24.526 15.8793 24.5297 15.959 24.6094L20.7875 29.3509C20.8249 29.3882 20.8532 29.4335 20.8705 29.4833C20.8878 29.5332 20.8935 29.5863 20.8872 29.6387C20.8809 29.691 20.8628 29.7413 20.8342 29.7857C20.8057 29.83 20.7674 29.8673 20.7223 29.8947L20.3417 30.1122C20.1964 30.1967 20.0257 30.2268 19.8603 30.1969C19.6949 30.167 19.5455 30.0791 19.439 29.949Z" fill="#F8F9F9" fill-opacity="0.996"/>
<path d="M48.8342 24.7834C48.9106 24.7204 49.0081 24.6888 49.107 24.6948C49.2059 24.7009 49.2988 24.7442 49.367 24.8161L49.5628 25.0227C49.5739 25.0353 49.5789 25.0526 49.5769 25.0708C49.5749 25.089 49.5659 25.1068 49.5519 25.1206C48.3122 26.2008 47.2102 27.5022 46.2459 29.0247C45.8254 29.6844 45.2527 30.0143 44.5277 30.0143C43.9549 30.0071 43.8534 29.7859 44.2232 29.3509C45.6152 27.6689 47.1522 26.1464 48.8342 24.7834Z" fill="#F8F9F9" fill-opacity="0.996"/>
<path d="M42.1352 27.1216L39.1772 30.0252C39.1047 30.0977 39.0249 30.1049 38.9379 30.0469L38.6987 29.8838C38.4812 29.7316 38.4667 29.5612 38.6552 29.3727L41.5153 26.5343C41.6965 26.3531 41.8597 26.3676 42.0047 26.5778L42.1678 26.8062C42.2403 26.9222 42.2294 27.0273 42.1352 27.1216Z" fill="#F8F9F9" fill-opacity="0.996"/>
<path d="M23.0822 27.4913C22.4732 26.8461 22.5855 26.6793 23.4193 26.9911C24.572 27.4261 25.4167 28.2163 25.9532 29.3618C26.3664 30.2318 26.1997 30.3587 25.4529 29.7425C24.6192 29.032 23.8289 28.2816 23.0822 27.4913Z" fill="#F8F9F9" fill-opacity="0.996"/>
</g>
<defs>
<clipPath id="clip0_4_471">
<rect width="62" height="73.95" fill="white" transform="translate(0.880035 0.717041)"/>
</clipPath>
</defs>
</svg>
