<svg width="63" height="63" viewBox="0 0 63 63" fill="none" xmlns="http://www.w3.org/2000/svg">
<g clip-path="url(#clip0_4_518)">
<path d="M20.1425 23.547C18.1512 21.7889 15.586 20.8186 12.9295 20.8186C6.91036 20.8186 2.03101 25.6979 2.03101 31.717C2.03101 37.7361 6.91048 42.6154 12.9295 42.6154C15.5859 42.6154 18.1509 41.6452 20.1424 39.8871" stroke="white" stroke-miterlimit="22.9256" stroke-linecap="round" stroke-linejoin="round"/>
<path d="M14.4959 27.9352L13.9422 27.7058C12.9021 27.2751 11.6989 27.7734 11.268 28.8135C10.8373 29.8534 11.3357 31.0567 12.3756 31.4876L12.9293 31.7169L13.4831 31.9463C14.523 32.377 15.0213 33.5803 14.5906 34.6204C14.1599 35.6605 12.9566 36.1588 11.9165 35.728L11.3627 35.4987" stroke="white" stroke-miterlimit="22.9256" stroke-linecap="round" stroke-linejoin="round"/>
<path d="M12.9295 27.2113V26.0652" stroke="white" stroke-miterlimit="22.9256" stroke-linecap="round" stroke-linejoin="round"/>
<path d="M12.9295 37.3687V36.1199" stroke="white" stroke-miterlimit="22.9256" stroke-linecap="round" stroke-linejoin="round"/>
<path d="M10.7329 20.6559C15.0643 11.1654 24.5365 5.07642 34.9687 5.07642C40.3641 5.07642 45.3842 6.68163 49.5793 9.43904M57.2459 17.1055C60.0034 21.3011 61.6091 26.3211 61.6091 31.7169C61.6091 46.4301 49.6817 58.3574 34.9685 58.3574C24.5347 58.3574 15.0612 52.2664 10.7307 42.7736" stroke="white" stroke-miterlimit="22.9256" stroke-linecap="round" stroke-linejoin="round"/>
<path d="M21.0084 42.9759C20.0578 39.4502 19.5652 35.6073 19.5652 31.7171C19.5652 27.827 20.0578 23.984 21.0084 20.4583" stroke="white" stroke-miterlimit="22.9256" stroke-linecap="round" stroke-linejoin="round"/>
<path d="M20.036 35.1828C26.0407 34.1407 23.6891 38.315 26.9533 39.0969C29.197 39.6343 34.75 35.3772 36.6174 38.6117C38.3371 41.5902 32.2006 44.9812 34.3555 48.7136C36.4235 52.2955 44.2891 47.7133 47.9873 54.571" stroke="white" stroke-miterlimit="22.9256" stroke-linecap="round" stroke-linejoin="round"/>
<path d="M29.6034 5.97827C30.6165 9.87505 30.4618 11.4849 29.486 15.1266C28.9141 17.2611 28.6238 20.6017 31.0372 22.465C33.1003 24.0577 35.1362 22.568 35.8244 19.9997C36.6214 17.0252 41.9339 14.5266 44.4809 21.2124C45.8087 24.698 41.94 27.2457 44.5214 29.2957C46.557 30.9122 49.2714 27.654 52.3795 27.4983C55.0467 27.3646 56.7553 30.8116 61.038 28.5782" stroke="white" stroke-miterlimit="22.9256" stroke-linecap="round" stroke-linejoin="round"/>
<path d="M53.8057 12.8787L53.8072 12.8802" stroke="white" stroke-miterlimit="2.6131" stroke-linecap="round" stroke-linejoin="round"/>
</g>
<defs>
<clipPath id="clip0_4_518">
<rect width="62" height="62" fill="white" transform="translate(0.820068 0.717041)"/>
</clipPath>
</defs>
</svg>
